<svg enable-background="new 0 0 512 512" height="512" viewBox="0 0 512 512" width="512" xmlns="http://www.w3.org/2000/svg"><g id="_x34_4_Promotion"><g><g><path d="m476.861 159.118-12.084-34.032 1.632-9.256c2.476-13.983-2.047-28.332-12.092-38.39l-26.666-26.666 32.681-32.681c3.125-3.125 3.125-8.186 0-11.311s-8.186-3.125-11.311 0l-32.681 32.681-26.663-26.663c-10.046-10.038-24.325-14.588-38.386-12.1l-73.639 12.987c-8.85 1.562-16.888 5.749-23.239 12.104l-209.082 209.079c-17.026 17.018-17.038 44.599 0 61.629l94.141 94.138-4.489 16.238c-6.575 23.757 7.341 48.314 31.113 54.887l175.751 48.587c23.808 6.574 48.361-7.495 54.891-31.113l81.075-293.302c2.462-8.869 2.126-18.142-.952-26.816zm-420.219 87.063 209.082-209.079c4.023-4.023 9.108-6.671 14.709-7.659l73.639-12.987c8.944-1.578 17.997 1.353 24.294 7.655l26.664 26.662-23.284 23.283c-9.62-4.633-21.926-3.182-29.705 4.603-10.038 10.038-10.038 26.372 0 36.417 10.069 10.053 26.403 10.018 36.417-.004 8.052-8.056 9.53-20.115 4.664-29.77l23.218-23.219 26.665 26.664c6.359 6.366 9.218 15.447 7.655 24.298l-12.983 73.631c-1 5.609-3.648 10.698-7.663 14.713l-209.081 209.083c-10.421 10.421-28.582 10.421-39.003 0l-125.288-125.285c-10.772-10.772-10.782-28.224 0-39.006zm320.505-156.211c3.796 3.8 3.796 9.987 0 13.791-3.812 3.804-9.983 3.804-13.795 0-3.796-3.804-3.796-9.991 0-13.787 3.816-3.815 9.957-3.842 13.795-.004zm85.247 91.696-81.075 293.306c-4.203 15.217-20.044 24.145-35.206 19.958l-175.751-48.587c-15.238-4.209-24.177-19.959-19.958-35.202l2.073-7.499 18.143 18.142c17.019 17.035 44.587 17.038 61.625 0l209.082-209.078c6.351-6.347 10.53-14.381 12.1-23.243l5.718-32.427 2.641 7.438c1.975 5.556 2.186 11.501.608 17.192z"/><path d="m309.086 234.299c0-4.417-3.578-7.999-7.999-8.003l-136.474-.062c-4.413 0-7.999 3.578-7.999 7.995s3.578 7.999 7.999 8.003l136.474.062c4.414 0 7.999-3.577 7.999-7.995z"/><path d="m205.685 262.569c-9.163 9.171-9.163 24.079 0 33.234 9.148 9.156 24.077 9.157 33.23.004 9.234-9.242 9.149-24.097 0-33.238-8.897-8.909-24.309-8.917-33.23 0zm21.919 21.919v.004c-2.812 2.804-7.796 2.808-10.608-.004-2.929-2.922-2.921-7.683 0-10.604 2.952-2.952 7.622-2.986 10.608 0 2.923 2.923 2.96 7.645 0 10.604z"/><path d="m260.014 205.967c0-.004 0-.004 0-.004 9.155-9.163 9.155-24.071 0-33.238-9.178-9.163-24.091-9.147-33.238.004-9.155 9.163-9.155 24.071 0 33.234 9.133 9.141 24.054 9.172 33.238.004zm-21.927-21.923c2.939-2.946 7.602-3.01 10.616-.004 2.921 2.925 2.921 7.687 0 10.612-2.812 2.804-7.804 2.804-10.616 0-2.921-2.925-2.921-7.686 0-10.608z"/></g></g></g></svg>