<svg id="b" height="512" viewBox="0 0 24 24" width="512" xmlns="http://www.w3.org/2000/svg" data-name="Layer 5"><path d="m21.5 3h-1.5v-1.5c0-.27637-.22363-.5-.5-.5s-.5.22363-.5.5v1.5h-4v-1.5c0-.27637-.22363-.5-.5-.5s-.5.22363-.5.5v1.5h-4v-1.5c0-.27637-.22363-.5-.5-.5s-.5.22363-.5.5v1.5h-4v-1.5c0-.27637-.22363-.5-.5-.5s-.5.22363-.5.5v1.5h-1.5c-1.37842 0-2.5 1.12158-2.5 2.5v15c0 1.37842 1.12158 2.5 2.5 2.5h19c1.37891 0 2.5-1.12158 2.5-2.5v-15c0-1.37842-1.12109-2.5-2.5-2.5zm-20.5 2.5c0-.82715.67285-1.5 1.5-1.5h1.5v1.5c0 .27637.22363.5.5.5s.5-.22363.5-.5v-1.5h4v1.5c0 .27637.22363.5.5.5s.5-.22363.5-.5v-1.5h4v1.5c0 .27637.22363.5.5.5s.5-.22363.5-.5v-1.5h4v1.5c0 .27637.22363.5.5.5s.5-.22363.5-.5v-1.5h1.5c.82715 0 1.5.67285 1.5 1.5v2.5h-22zm22 15c0 .82715-.67285 1.5-1.5 1.5h-19c-.82715 0-1.5-.67285-1.5-1.5v-11.5h22z"/><path d="m3.5 16h2c.27637 0 .5-.22363.5-.5s-.22363-.5-.5-.5h-2c-.27637 0-.5.22363-.5.5s.22363.5.5.5z"/><path d="m3.5 19h2c.27637 0 .5-.22363.5-.5s-.22363-.5-.5-.5h-2c-.27637 0-.5.22363-.5.5s.22363.5.5.5z"/><path d="m8.5 13h2c.27637 0 .5-.22363.5-.5s-.22363-.5-.5-.5h-2c-.27637 0-.5.22363-.5.5s.22363.5.5.5z"/><path d="m8.5 16h2c.27637 0 .5-.22363.5-.5s-.22363-.5-.5-.5h-2c-.27637 0-.5.22363-.5.5s.22363.5.5.5z"/><path d="m8.5 19h2c.27637 0 .5-.22363.5-.5s-.22363-.5-.5-.5h-2c-.27637 0-.5.22363-.5.5s.22363.5.5.5z"/><path d="m13.5 13h2c.27637 0 .5-.22363.5-.5s-.22363-.5-.5-.5h-2c-.27637 0-.5.22363-.5.5s.22363.5.5.5z"/><path d="m13.5 16h2c.27637 0 .5-.22363.5-.5s-.22363-.5-.5-.5h-2c-.27637 0-.5.22363-.5.5s.22363.5.5.5z"/><path d="m13.5 19h2c.27637 0 .5-.22363.5-.5s-.22363-.5-.5-.5h-2c-.27637 0-.5.22363-.5.5s.22363.5.5.5z"/><path d="m18.5 13h2c.27637 0 .5-.22363.5-.5s-.22363-.5-.5-.5h-2c-.27637 0-.5.22363-.5.5s.22363.5.5.5z"/><path d="m18.5 16h2c.27637 0 .5-.22363.5-.5s-.22363-.5-.5-.5h-2c-.27637 0-.5.22363-.5.5s.22363.5.5.5z"/></svg>