<svg width="240" height="253" viewBox="0 0 240 253" fill="none" xmlns="http://www.w3.org/2000/svg">
<path d="M120.9 159.6C120.5 159.4 120.5 159 120.4 158.6C113.9 137.3 107.4 116 100.9 94.5999C96.4999 79.9999 91.9999 65.4999 87.5999 50.8999C87.0999 49.0999 86.9999 49.0999 88.8999 49.0999C110.3 49.0999 131.7 49.0999 153.1 49.0999C154.9 49.0999 154.9 49.0999 154.4 50.8999C144.5 83.4999 134.5 116.1 124.6 148.7C123.6 151.9 122.7 155.1 121.7 158.3C121.4 158.8 121.4 159.3 120.9 159.6Z" fill="black"/>
<path d="M115.6 156.1C115 155.3 114.4 154.6 113.9 153.8C99.2998 134 84.7998 114.2 70.1998 94.4999C59.3998 79.7999 48.5998 65.0999 37.7998 50.3999C37.5998 50.0999 37.0998 49.7999 37.2998 49.3999C37.4998 48.9999 37.9998 49.1999 38.3998 49.1999C52.8998 49.1999 67.3998 49.1999 81.8998 49.1999C83.0998 49.1999 83.4998 49.6999 83.7998 50.6999C87.8998 64.2999 92.0998 77.8999 96.1998 91.4999C100.9 107 105.7 122.6 110.4 138.1C112.1 143.8 113.9 149.4 115.6 155.1C115.7 155.3 116 155.7 115.6 156.1Z" fill="black"/>
<path d="M125.8 156.1C126.5 153.8 127.1 151.8 127.7 149.8C135.1 125.7 142.4 101.6 149.8 77.5C152.5 68.6 155.2 59.7 157.9 50.8C158.3 49.5 158.8 49.1 160.2 49.1C174.5 49.2 188.8 49.1 203 49.1C203.2 49.1 203.5 49.1 203.7 49.1C204 49.1 204.3 49 204.5 49.3C204.7 49.7 204.4 49.9 204.2 50.1C203.7 50.8 203.1 51.6 202.6 52.3C184.6 76.7 166.7 101.1 148.7 125.5C141.5 135.2 134.4 145 127.2 154.7C126.9 155.2 126.7 155.7 125.8 156.1Z" fill="black"/>
<path d="M120.8 45.6999C110.1 45.6999 99.3998 45.6999 88.6998 45.6999C86.8998 45.6999 86.7998 45.6999 87.3998 43.8999C91.4998 30.9999 95.4998 17.9999 99.5998 5.0999C99.9998 3.7999 100.4 2.5999 100.8 1.2999C101.1 0.199902 101.6 -0.100098 102.7 -0.100098C107.7 -9.76548e-05 112.6 -0.100098 117.6 -0.100098C124.8 -0.100098 132 -0.100098 139.2 -0.100098C140.3 -0.100098 140.8 0.199902 141.1 1.2999C145.5 15.4999 150 29.6999 154.5 43.8999C155 45.4999 155 45.5999 153.3 45.5999C142.4 45.6999 131.6 45.6999 120.8 45.6999Z" fill="black"/>
<path d="M59.8999 45.7C52.6999 45.7 45.3999 45.7 38.1999 45.7C37.7999 45.7 37.0999 46 36.8999 45.4C36.6999 45 37.1999 44.6 37.4999 44.3C48.3999 29.9 59.2999 15.5 70.1999 1C70.7999 0.3 71.3999 0 72.2999 0C80.0999 0 87.9999 0 95.7999 0C97.3999 0 97.3999 0 96.9999 1.5C92.4999 15.7 87.9999 30 83.5999 44.3C83.2999 45.4 82.7999 45.8 81.5999 45.8C74.3999 45.7 67.1999 45.7 59.8999 45.7Z" fill="black"/>
<path d="M181.8 45.6999C174.5 45.6999 167.3 45.6999 160 45.6999C159 45.6999 158.5 45.3999 158.2 44.3999C153.7 30.0999 149.2 15.6999 144.8 1.3999C144.3 -9.76324e-05 144.4 -0.100098 145.9 -0.100098C153.8 -0.100098 161.6 -0.100098 169.5 -0.100098C170.4 -0.100098 171 0.199902 171.6 0.999902C182.4 15.2999 193.2 29.5999 204 43.8999C204.3 44.3999 205.1 44.7999 204.8 45.3999C204.5 45.9999 203.7 45.6999 203.1 45.6999C196 45.6999 188.9 45.6999 181.8 45.6999Z" fill="black"/>
<path d="M54.3 181.1H72.8L47.4 252.8H25.5L0 181.1H18.6L36.4 235.3L54.3 181.1Z" fill="black"/>
<path d="M128.9 181.1H147.4L122 252.8H100L74.6001 181.1H93.2001L111 235.3L128.9 181.1Z" fill="black"/>
<path d="M154.6 181.1H172.1V252.8H154.6V181.1Z" fill="black"/>
<path d="M213.1 227.1H202.3V252.8H184.8V181.1H213.1C230.7 181.1 239.5 191 239.5 204.2C239.4 216 231.3 227.1 213.1 227.1ZM211.7 213.2C218.6 213.2 221.6 209.7 221.6 204.2C221.6 198.7 218.6 195.2 211.7 195.2H202.2V213.2H211.7Z" fill="black"/>
</svg>
