<svg width="238" height="245" viewBox="0 0 238 245" fill="none" xmlns="http://www.w3.org/2000/svg">
<path d="M118.4 121.3C94.0001 121.3 69.7001 121.2 45.3001 121.4C42.3001 121.4 40.8001 120.6 39.8001 117.6C31.5001 92.0999 22.9001 66.6999 14.4001 41.2999C14.3001 40.8999 14.2001 40.4999 14.0001 40.0999C13.7001 39.1999 13.2001 38.2999 14.2001 37.5999C15.2001 36.7999 15.9001 37.6999 16.6001 38.2999C19.0001 40.3999 21.4001 42.3999 23.8001 44.4999C38.0001 56.9999 52.2001 69.4999 66.4001 81.9999C69.0001 84.2999 70.1001 83.9999 72.4001 80.5999C85.4001 61.0999 98.4001 41.5999 111.3 22.0999C112.8 19.7999 114.3 18.2999 117.2 19.3999C117.7 19.5999 118.3 19.6999 118.7 19.5999C122.9 17.7999 124.6 20.4999 126.6 23.4999C139 42.2999 151.5 60.9999 164 79.6999C167.2 84.4999 167.7 84.4999 171.9 80.7999C187.6 66.8999 203.4 53.0999 219.1 39.2999C220.1 38.3999 221.1 36.5999 222.6 37.5999C224.2 38.5999 222.9 40.1999 222.4 41.4999C216.7 58.7999 210.9 75.9999 205.2 93.1999C202.5 101.4 199.6 109.5 197.1 117.8C196.3 120.5 195 121.5 192.1 121.4C167.7 121.2 143 121.3 118.4 121.3Z" fill="black"/>
<path d="M118.9 123.3C145.1 123.3 171.3 123.3 197.5 123.3C202.4 123.3 206.2 126.2 207.3 130.6C208.5 135.1 206.6 139.7 202.7 142.1C200.7 143.3 198.5 143.4 196.2 143.4C154.5 143.4 112.8 143.4 71.1001 143.4C60.8001 143.4 50.6001 143.4 40.3001 143.4C33.8001 143.4 29.6001 139.4 29.6001 133.3C29.6001 127.2 33.8001 123.3 40.3001 123.2C66.5001 123.3 92.7001 123.3 118.9 123.3Z" fill="black"/>
<path d="M168.8 77.7001C167.8 77.7001 167.4 77.0001 167.1 76.5001C164 71.8001 160.8 67.1001 157.7 62.4001C157 61.3001 156.9 60.4001 157.7 59.3001C160.5 55.1001 163.3 50.9001 166.1 46.7001C166.8 45.6001 167.6 45.1001 168.9 45.7001C171.6 46.9001 174.3 46.9001 177 45.7001C178.3 45.1001 179.1 45.5001 179.8 46.6001C182.5 50.6001 185.1 54.6001 187.8 58.7001C188.4 59.6001 188.7 60.6001 187.7 61.4001C181.8 66.6001 175.8 71.8001 169.9 77.1001C169.5 77.4001 169.1 77.6001 168.8 77.7001Z" fill="black"/>
<path d="M80.3 60.9C80 61.5 79.7 62.2 79.3 62.8C76.4 67.2 73.3 71.7 70.4 76.1C69.3 77.8 68.4 78.1 66.8 76.7C61.3 71.8 55.7 66.9 50.2 62.1C49 61.1 48.6 60.1 49.6 58.7C52.3 54.8 54.8 50.8 57.4 46.9C58.2 45.7 59 45.2 60.5 45.9C63.1 47 65.7 47 68.3 45.9C69.4 45.4 70.3 45.4 71 46.5C74 50.9 76.9 55.4 79.9 59.8C80 60 80.1 60.4 80.3 60.9Z" fill="black"/>
<path d="M118.5 15.2C114 15.1 110.9 11.9 111 7.3C111.1 2.9 114.3 0 118.7 0C123.2 0.1 126.3 3.3 126.1 7.9C126.1 12.2 122.9 15.2 118.5 15.2Z" fill="black"/>
<path d="M15.2 27.2C15.2 31.8 12.1 34.9 7.5 34.9C3.1 34.9 0 31.8 0 27.4C0 22.8 3.1 19.7 7.7 19.7C12.1 19.7 15.2 22.8 15.2 27.2Z" fill="black"/>
<path d="M229.5 19.7001C234.1 19.6001 237.3 22.7001 237.2 27.3001C237.2 31.7001 234.1 34.8001 229.7 34.9001C225.1 35.0001 221.9 31.8001 222 27.3001C222 22.9001 225.1 19.8001 229.5 19.7001Z" fill="black"/>
<path d="M64.3002 42.3001C61.2002 42.3001 59.1002 40.1001 59.2002 37.0001C59.3002 34.1001 61.4002 32.1001 64.4002 32.1001C67.5002 32.1001 69.6002 34.3001 69.5002 37.4001C69.4002 40.3001 67.2002 42.3001 64.3002 42.3001Z" fill="black"/>
<path d="M172.8 42.3001C169.7 42.3001 167.6 40.1001 167.7 37.0001C167.8 34.1001 169.9 32.1001 172.9 32.1001C176 32.1001 178.1 34.3001 178 37.4001C177.9 40.3001 175.8 42.3001 172.8 42.3001Z" fill="black"/>
<path d="M89.2 173.1H107.7L82.3 244.8H60.4L35 173.1H53.6L71.4 227.3L89.2 173.1Z" fill="black"/>
<path d="M115 173.1H132.5V244.8H115V173.1Z" fill="black"/>
<path d="M173.4 219.1H162.6V244.8H145.1V173.1H173.4C191 173.1 199.8 183 199.8 196.2C199.8 208 191.7 219.1 173.4 219.1ZM172.1 205.2C179 205.2 182 201.7 182 196.2C182 190.7 179 187.2 172.1 187.2H162.6V205.2H172.1Z" fill="black"/>
</svg>
