<svg width="303" height="233" viewBox="0 0 303 233" fill="none" xmlns="http://www.w3.org/2000/svg">
<path d="M151.7 0C154.5 3.1 157.3 6.2 160 9.3C161.6 11.1 162.1 11.3 164.3 10.3C167.6 8.9 170.9 7.5 174.2 6.1C176.7 5 177.8 5.5 178.5 8.2C179.5 11.7 180.6 15.3 181.5 18.8C181.9 20.4 182.9 21.1 184.5 21.1C188.1 21.2 191.7 21.3 195.2 21.4C198.1 21.5 198.9 22.4 198.5 25.2C197.9 28.8 197.3 32.4 196.7 35.9C196.4 37.5 196.8 38.6 198.4 39.4C201.6 41 204.7 42.7 207.9 44.4C210.7 45.9 210.9 46.8 209 49.4C206.9 52.3 204.9 55.3 202.8 58.1C201.8 59.4 201.8 60.5 202.8 61.9C205 64.8 207.1 67.8 209.3 70.7C211.1 73.1 210.8 74.1 208.2 75.6C205.1 77.3 201.9 79.1 198.8 80.8C197.3 81.6 196.8 82.6 197.2 84.4C198 88.1 198.6 91.9 199.3 95.7C199.6 97.7 198.8 98.7 196.9 98.8C193.1 99 189.2 99.2 185.4 99.4C183.7 99.5 182.8 100.1 182.3 101.9C181.4 105.5 180.3 109.1 179.3 112.7C178.6 115.1 177.6 115.6 175.3 114.7C172 113.4 168.8 112 165.5 110.7C162.9 109.6 162.7 109.7 160.8 111.8C158.5 114.4 156.2 117.1 153.8 119.8C152.1 121.7 150.9 121.7 149.2 119.8C146.7 117.1 144.2 114.4 141.8 111.5C140.6 110.1 139.5 109.9 137.9 110.7C134.8 112.2 131.5 113.5 128.3 114.9C125.1 116.3 124.4 115.9 123.4 112.6C122.4 109.2 121.4 105.7 120.4 102.3C120 100.8 119.2 100.2 117.6 100.2C113.6 100.1 109.6 99.9 105.6 99.6C103.7 99.5 103 98.5 103.3 96.6C104 92.7 104.6 88.8 105.3 85C105.5 83.6 105.1 82.6 103.8 81.9C100.4 80.1 96.9997 78.3 93.5997 76.4C91.2997 75.2 91.0997 74.1 92.5997 72.1C94.6997 69.1 96.7997 66.2 98.8997 63.2C100.3 61.2 100.3 60.9 98.8997 59C96.7997 56.1 94.5997 53.1 92.4997 50.2C90.9997 48.1 91.2997 47 93.4997 45.7C96.7997 43.9 99.9998 42.1 103.3 40.3C104.7 39.6 105.2 38.6 104.8 37C104 33.3 103.4 29.6 102.8 25.8C102.4 23.4 103.2 22.4 105.6 22.3C109.3 22.1 113.1 21.8 116.8 21.7C118.6 21.7 119.4 20.9 119.8 19.2C120.7 15.6 121.7 12.1 122.7 8.5C123.4 6 124.4 5.5 126.8 6.5C130.3 7.9 133.8 9.3 137.3 10.8C138.8 11.4 139.7 11.1 140.7 9.9C143.5 6.6 146.4 3.3 149.3 0.1C150.2 3.7998e-07 150.9 0 151.7 0ZM115.5 60.6C115.5 80.2 131.4 96.3 151 96.2C170.3 96.1 186.5 81 186.6 60.7C186.7 40.2 169.9 25 151 25.1C131.3 25.1 115.5 40.9 115.5 60.6Z" fill="black"/>
<path d="M108.7 150.5C108.8 150.1 108.9 149.6 109.1 149.1C112.1 139.7 115.2 130.2 118.2 120.8C118.6 119.6 119 119.3 120.1 120.2C122.7 122.2 125.7 122.9 128.9 122C131.4 121.3 133.9 120.6 136.4 119.8C137.3 119.5 138 119.6 138.7 120.3C140.5 122 142.3 123.6 144.1 125.2C144.8 125.8 145 126.3 144.7 127.2C141.4 137.4 138.1 147.6 134.8 157.8C134.5 158.6 134.2 159.4 133.2 159.5C132.2 159.6 131.7 159 131.1 158.3C129 155.6 126.8 152.8 124.7 150.1C123.8 149 122.9 148.7 121.6 149.1C118.1 150.1 114.6 151.1 111.1 152.1C109.7 152.6 108.7 151.9 108.7 150.5Z" fill="black"/>
<path d="M165.2 119.6C166.8 120.1 168.7 120.6 170.5 121.2C173 122 175.5 122.8 178.3 122.1C179.7 121.7 180.9 121.2 182.1 120.3C183.5 119.3 183.5 119.3 184.1 121C185.6 125.6 187.1 130.3 188.6 134.9C190.1 139.7 191.7 144.5 193.2 149.3C193.5 150.1 193.8 151 193 151.8C192.3 152.6 191.4 152.3 190.5 152.1C187.3 151.2 184.1 150.3 181 149.3C179.4 148.8 178.3 149.1 177.2 150.5C175.3 153.1 173.2 155.7 171.2 158.3C170.6 159 170.1 159.9 168.9 159.6C167.8 159.4 167.6 158.4 167.3 157.5C164.1 147.7 161 137.9 157.8 128.1C157.3 126.7 157.4 125.8 158.7 124.8C160.4 123.5 161.9 121.9 163.5 120.4C163.9 119.9 164.3 119.5 165.2 119.6Z" fill="black"/>
<path d="M138.1 66.4001C138.3 65.3001 137.8 65 137.3 64.6C134.6 62.4 132 60.1001 129.3 57.9001C128.9 57.6001 128.6 57.3 128.2 57C127.3 56.1 126.7 55.2001 127.1 53.8001C127.5 52.4001 128.5 51.6 129.9 51.5C131.6 51.3 133.3 51.2 135 51.1C137.1 51 139.2 50.8 141.4 50.7C142.6 50.7 143.4 50.1001 143.8 48.9001C145.1 45.5001 146.5 42.2 147.9 38.8C148.5 37.3 149.3 36.3 151.1 36.3C152.8 36.3 153.6 37.4 154.1 38.8C155.5 42.2 156.9 45.6 158.2 49.1C158.6 50.3 159.4 50.7001 160.5 50.8001C164 51.0001 167.4 51.2 170.9 51.5C171.3 51.5 171.6 51.5 172 51.6C173.4 51.8 174.4 52.4001 174.9 53.9001C175.3 55.3001 174.7 56.3 173.7 57.2C170.8 59.7 167.9 62.2 164.9 64.6C164 65.3 163.8 66 164.1 67.1C165.1 70.7 165.9 74.4 166.8 78C167.2 79.5 167.1 80.8001 165.8 81.8001C164.5 82.8001 163.2 82.5 161.9 81.6C158.8 79.6 155.6 77.7 152.5 75.7C151.4 75 150.6 75.1 149.5 75.7C146.4 77.7 143.3 79.5 140.3 81.5C139 82.3 137.6 82.8 136.3 81.7C135 80.7 134.9 79.4001 135.3 77.9001C136.2 74.3001 137.1 70.7 137.9 67.2C138 66.7 138.1 66.4001 138.1 66.4001Z" fill="black"/>
<path d="M247.7 47.7001C249.2 49.4001 250.8 51.1001 252.3 52.8001C253.2 53.8001 253.5 53.9001 254.7 53.4001C256.5 52.6001 258.3 51.8001 260.1 51.1001C261.5 50.5001 262.1 50.8001 262.5 52.3001C263.1 54.2001 263.7 56.2001 264.2 58.1001C264.4 59.0001 264.9 59.4001 265.8 59.4001C267.8 59.4001 269.7 59.5001 271.7 59.6001C273.3 59.7001 273.7 60.2001 273.5 61.7001C273.2 63.7001 272.8 65.6001 272.5 67.6001C272.3 68.5001 272.6 69.1001 273.4 69.5001C275.2 70.4001 276.9 71.3001 278.6 72.3001C280.1 73.1001 280.2 73.6001 279.2 75.0001C278.1 76.6001 276.9 78.2001 275.8 79.8001C275.2 80.5001 275.3 81.1001 275.8 81.9001C277 83.5001 278.2 85.1001 279.3 86.7001C280.3 88.0001 280.1 88.6001 278.7 89.4001C277 90.3001 275.3 91.3001 273.5 92.2001C272.7 92.6001 272.4 93.2001 272.6 94.2001C273 96.3001 273.4 98.3001 273.7 100.4C273.9 101.5 273.4 102 272.4 102.1C270.3 102.2 268.2 102.3 266.1 102.4C265.2 102.4 264.7 102.8 264.4 103.8C263.9 105.8 263.3 107.8 262.8 109.7C262.4 111 261.9 111.3 260.6 110.8C258.8 110.1 257 109.3 255.2 108.6C253.8 108 253.7 108 252.6 109.2C251.3 110.7 250 112.1 248.8 113.6C247.9 114.7 247.2 114.7 246.3 113.6C244.9 112.1 243.6 110.6 242.3 109.1C241.7 108.3 241 108.2 240.1 108.6C238.4 109.4 236.6 110.1 234.8 110.9C233.1 111.7 232.7 111.5 232.1 109.6C231.5 107.7 231 105.8 230.5 103.9C230.3 103.1 229.8 102.7 229 102.7C226.8 102.6 224.6 102.5 222.4 102.4C221.4 102.3 221 101.8 221.1 100.7C221.5 98.6001 221.8 96.4001 222.2 94.3001C222.3 93.5001 222.1 93.0001 221.4 92.6001C219.5 91.6001 217.7 90.6001 215.8 89.6001C214.6 88.9001 214.4 88.4001 215.2 87.2001C216.3 85.6001 217.5 83.9001 218.7 82.3001C219.5 81.2001 219.5 81.0001 218.7 80.0001C217.5 78.4001 216.3 76.8001 215.2 75.2001C214.4 74.1001 214.5 73.4001 215.8 72.7001C217.6 71.7001 219.4 70.7001 221.2 69.7001C222 69.3001 222.2 68.8001 222 67.9001C221.6 65.9001 221.2 63.8001 220.9 61.8001C220.7 60.5001 221.1 59.9001 222.4 59.8001C224.4 59.7001 226.5 59.5001 228.5 59.5001C229.5 59.5001 229.9 59.1001 230.1 58.1001C230.6 56.1001 231.2 54.2001 231.7 52.2001C232.1 50.8001 232.6 50.6001 234 51.1001C235.9 51.9001 237.9 52.7001 239.8 53.5001C240.6 53.8001 241.1 53.7001 241.7 53.0001C243.3 51.2001 244.9 49.4001 246.4 47.6001C246.9 47.7001 247.3 47.7001 247.7 47.7001ZM227.8 81.0001C227.8 91.8001 236.6 100.6 247.3 100.6C257.9 100.6 266.8 92.3001 266.9 81.1001C266.9 69.8001 257.7 61.5001 247.3 61.5001C236.5 61.5001 227.8 70.2001 227.8 81.0001Z" fill="black"/>
<path d="M224 130.4C224.1 130.2 224.1 129.9 224.2 129.7C225.9 124.5 227.6 119.3 229.2 114.1C229.4 113.4 229.6 113.3 230.2 113.8C231.6 114.9 233.3 115.3 235 114.8C236.4 114.4 237.7 114 239.1 113.6C239.6 113.4 240 113.5 240.3 113.9C241.3 114.8 242.3 115.7 243.3 116.6C243.7 116.9 243.8 117.2 243.6 117.7C241.8 123.3 240 128.9 238.1 134.6C238 135.1 237.8 135.5 237.2 135.5C236.7 135.6 236.4 135.2 236.1 134.9C234.9 133.4 233.7 131.9 232.6 130.4C232.1 129.8 231.6 129.6 230.9 129.8C229 130.4 227.1 130.9 225.1 131.5C224.6 131.6 224 131.2 224 130.4Z" fill="black"/>
<path d="M255.1 113.5C256 113.8 257 114.1 258 114.4C259.4 114.8 260.8 115.3 262.3 114.9C263.1 114.7 263.7 114.4 264.4 113.9C265.2 113.3 265.2 113.3 265.5 114.3C266.3 116.8 267.2 119.4 268 121.9C268.9 124.5 269.7 127.2 270.5 129.8C270.7 130.3 270.8 130.7 270.4 131.2C270 131.6 269.5 131.5 269 131.4C267.2 130.9 265.5 130.4 263.8 129.9C262.9 129.6 262.3 129.8 261.7 130.6C260.6 132 259.5 133.5 258.4 134.9C258.1 135.3 257.8 135.8 257.2 135.6C256.6 135.5 256.5 135 256.3 134.5C254.6 129.1 252.8 123.7 251.1 118.3C250.8 117.5 250.9 117 251.6 116.5C252.5 115.8 253.4 114.9 254.3 114.1C254.4 113.6 254.6 113.4 255.1 113.5Z" fill="black"/>
<path d="M240.2 84.2001C240.3 83.6001 240 83.4001 239.8 83.2001C238.3 82.0001 236.9 80.7001 235.4 79.5001C235.2 79.3001 235 79.2001 234.8 79.0001C234.3 78.5001 234 78.0001 234.2 77.3001C234.4 76.5001 235 76.1001 235.7 76.0001C236.6 75.9001 237.6 75.8001 238.5 75.8001C239.7 75.7001 240.8 75.6001 242 75.6001C242.7 75.6001 243.1 75.3001 243.3 74.6001C244 72.7001 244.8 70.9001 245.5 69.0001C245.8 68.2001 246.3 67.6001 247.2 67.6001C248.1 67.6001 248.6 68.2001 248.9 69.0001C249.7 70.9001 250.5 72.7001 251.2 74.6001C251.4 75.2001 251.9 75.5001 252.5 75.5001C254.4 75.6001 256.3 75.7001 258.2 75.9001C258.4 75.9001 258.6 75.9001 258.8 76.0001C259.6 76.1001 260.1 76.5001 260.4 77.2001C260.6 78.0001 260.3 78.5001 259.7 79.0001C258.1 80.4001 256.5 81.8001 254.9 83.1001C254.4 83.5001 254.3 83.9001 254.4 84.5001C254.9 86.5001 255.4 88.5001 255.9 90.5001C256.1 91.3001 256.1 92.0001 255.3 92.6001C254.6 93.1001 253.9 93.0001 253.2 92.5001C251.5 91.4001 249.7 90.4001 248.1 89.3001C247.5 88.9001 247 88.9001 246.5 89.3001C244.8 90.4001 243.1 91.4001 241.4 92.5001C240.7 93.0001 239.9 93.2001 239.2 92.6001C238.5 92.1001 238.4 91.3001 238.7 90.5001C239.2 88.5001 239.7 86.6001 240.1 84.6001C240.2 84.4001 240.2 84.2001 240.2 84.2001Z" fill="black"/>
<path d="M54.4998 47.7001C55.9998 49.4001 57.5998 51.1001 59.0998 52.8001C59.9998 53.8001 60.2998 53.9001 61.4998 53.4001C63.2998 52.6001 65.0998 51.8001 66.8998 51.1001C68.2998 50.5001 68.8998 50.8001 69.2998 52.3001C69.8998 54.2001 70.4998 56.2001 70.9998 58.1001C71.1998 59.0001 71.6998 59.4001 72.5998 59.4001C74.5998 59.4001 76.4998 59.5001 78.4998 59.6001C80.0998 59.7001 80.4998 60.2001 80.2998 61.7001C79.9998 63.7001 79.6998 65.6001 79.2998 67.6001C79.0998 68.5001 79.3997 69.1001 80.1997 69.5001C81.9997 70.4001 83.6998 71.3001 85.3998 72.3001C86.8998 73.1001 86.9998 73.6001 85.9998 75.0001C84.8998 76.6001 83.6998 78.2001 82.5998 79.8001C81.9998 80.5001 82.0998 81.1001 82.5998 81.9001C83.7998 83.5001 84.9998 85.1001 86.0998 86.7001C87.0998 88.0001 86.8998 88.6001 85.4998 89.4001C83.7998 90.3001 82.0998 91.3001 80.2998 92.2001C79.4998 92.6001 79.1998 93.2001 79.3998 94.2001C79.7998 96.3001 80.1998 98.3001 80.4998 100.4C80.6998 101.5 80.1997 102 79.1997 102.1C77.0997 102.2 74.9998 102.3 72.8998 102.4C71.9998 102.4 71.4997 102.8 71.1997 103.8C70.6997 105.8 70.0998 107.8 69.5998 109.7C69.1998 111 68.6998 111.3 67.3998 110.8C65.5998 110.1 63.7998 109.3 61.9998 108.6C60.5998 108 60.4998 108 59.3998 109.2C58.0998 110.7 56.7998 112.1 55.5998 113.6C54.6998 114.7 53.9998 114.7 53.0998 113.6C51.6998 112.1 50.3998 110.6 49.0998 109.1C48.4998 108.3 47.7998 108.2 46.8998 108.6C45.1998 109.4 43.3998 110.1 41.5998 110.9C39.8998 111.7 39.4998 111.5 38.8998 109.6C38.2998 107.7 37.7998 105.8 37.2998 103.9C37.0998 103.1 36.5998 102.7 35.7998 102.7C33.5998 102.6 31.3997 102.5 29.1997 102.4C28.1997 102.3 27.7998 101.8 27.8998 100.7C28.2998 98.6001 28.5998 96.4001 28.9998 94.3001C29.0998 93.5001 28.8997 93.0001 28.1997 92.6001C26.2997 91.6001 24.4998 90.6001 22.5998 89.6001C21.3998 88.9001 21.1998 88.4001 21.9998 87.2001C23.0998 85.6001 24.2998 83.9001 25.4998 82.3001C26.2998 81.2001 26.2998 81.0001 25.4998 80.0001C24.2998 78.4001 23.0998 76.8001 21.9998 75.2001C21.1998 74.1001 21.2998 73.4001 22.5998 72.7001C24.3998 71.7001 26.1998 70.7001 27.9998 69.7001C28.7998 69.3001 28.9998 68.8001 28.7998 67.9001C28.3998 65.9001 27.9997 63.8001 27.6997 61.8001C27.4997 60.5001 27.8997 59.9001 29.1997 59.8001C31.1997 59.7001 33.2998 59.5001 35.2998 59.5001C36.2998 59.5001 36.6998 59.1001 36.8998 58.1001C37.3998 56.1001 37.9998 54.2001 38.4998 52.2001C38.8998 50.8001 39.3998 50.6001 40.7998 51.1001C42.6998 51.9001 44.6998 52.7001 46.5998 53.5001C47.3998 53.8001 47.8998 53.7001 48.4998 53.0001C50.0998 51.2001 51.6997 49.4001 53.1997 47.6001C53.6997 47.7001 54.0998 47.7001 54.4998 47.7001ZM34.5998 81.0001C34.5998 91.8001 43.3998 100.6 54.0998 100.6C64.6998 100.6 73.5997 92.3001 73.6997 81.1001C73.6997 69.8001 64.4998 61.5001 54.0998 61.5001C43.2998 61.5001 34.5998 70.2001 34.5998 81.0001Z" fill="black"/>
<path d="M30.8999 130.4C30.9999 130.2 30.9999 129.9 31.0999 129.7C32.7999 124.5 34.4999 119.3 36.0999 114.1C36.2999 113.4 36.4999 113.3 37.0999 113.8C38.4999 114.9 40.1999 115.3 41.8999 114.8C43.2999 114.4 44.5999 114 45.9999 113.6C46.4999 113.4 46.8998 113.5 47.1998 113.9C48.1998 114.8 49.1998 115.7 50.1998 116.6C50.5998 116.9 50.6999 117.2 50.4999 117.7C48.6999 123.3 46.8999 128.9 44.9999 134.6C44.8999 135.1 44.6999 135.5 44.0999 135.5C43.5999 135.6 43.2999 135.2 42.9999 134.9C41.7999 133.4 40.5999 131.9 39.4999 130.4C38.9999 129.8 38.4999 129.6 37.7999 129.8C35.8999 130.4 33.9999 130.9 31.9999 131.5C31.3999 131.6 30.8999 131.2 30.8999 130.4Z" fill="black"/>
<path d="M61.9998 113.5C62.8998 113.8 63.8998 114.1 64.8998 114.4C66.2998 114.8 67.6997 115.3 69.1997 114.9C69.9997 114.7 70.5998 114.4 71.2998 113.9C72.0998 113.3 72.0998 113.3 72.3998 114.3C73.1998 116.8 74.0998 119.4 74.8998 121.9C75.7998 124.5 76.5998 127.2 77.3998 129.8C77.5998 130.3 77.6998 130.7 77.2998 131.2C76.8998 131.6 76.3998 131.5 75.8998 131.4C74.0998 130.9 72.3997 130.4 70.6997 129.9C69.7997 129.6 69.1998 129.8 68.5998 130.6C67.4998 132 66.3998 133.5 65.2998 134.9C64.9998 135.3 64.6998 135.8 64.0998 135.6C63.4998 135.5 63.3997 135 63.1997 134.5C61.4997 129.1 59.6998 123.7 57.9998 118.3C57.6998 117.5 57.7998 117 58.4998 116.5C59.3998 115.8 60.2997 114.9 61.1997 114.1C61.2997 113.6 61.4998 113.4 61.9998 113.5Z" fill="black"/>
<path d="M47.0998 84.2001C47.1998 83.6001 46.8997 83.4001 46.6997 83.2001C45.1997 82.0001 43.7998 80.7001 42.2998 79.5001C42.0998 79.3001 41.8997 79.2001 41.6997 79.0001C41.1997 78.5001 40.8998 78.0001 41.0998 77.3001C41.2998 76.5001 41.8998 76.1001 42.5998 76.0001C43.4998 75.9001 44.4998 75.8001 45.3998 75.8001C46.5998 75.7001 47.6998 75.6001 48.8998 75.6001C49.5998 75.6001 49.9997 75.3001 50.1997 74.6001C50.8997 72.7001 51.6998 70.9001 52.3998 69.0001C52.6998 68.2001 53.1998 67.6001 54.0998 67.6001C54.9998 67.6001 55.4998 68.2001 55.7998 69.0001C56.5998 70.9001 57.3998 72.7001 58.0998 74.6001C58.2998 75.2001 58.7998 75.5001 59.3998 75.5001C61.2998 75.6001 63.1998 75.7001 65.0998 75.9001C65.2998 75.9001 65.4997 75.9001 65.6997 76.0001C66.4997 76.1001 66.9998 76.5001 67.2998 77.2001C67.4998 78.0001 67.1998 78.5001 66.5998 79.0001C64.9998 80.4001 63.3998 81.8001 61.7998 83.1001C61.2998 83.5001 61.1998 83.9001 61.2998 84.5001C61.7998 86.5001 62.2998 88.5001 62.7998 90.5001C62.9998 91.3001 62.9997 92.0001 62.1997 92.6001C61.4997 93.1001 60.7998 93.0001 60.0998 92.5001C58.3998 91.4001 56.5998 90.4001 54.9998 89.3001C54.3998 88.9001 53.8998 88.9001 53.3998 89.3001C51.6998 90.4001 49.9998 91.4001 48.2998 92.5001C47.5998 93.0001 46.7998 93.2001 46.0998 92.6001C45.3998 92.1001 45.2998 91.3001 45.5998 90.5001C46.0998 88.5001 46.5998 86.6001 46.9998 84.6001C46.9998 84.4001 47.0998 84.2001 47.0998 84.2001Z" fill="black"/>
<path d="M0.399902 181H15.1998L29.5999 216.6L43.9999 181H58.6998V232.5H46.1998V201.6L34.6998 232.5H24.5999L12.9999 201.6V232.5H0.499878V181H0.399902Z" fill="black"/>
<path d="M99.1997 191H80.1997V201.4H96.9998V211.1H80.1997V222.4H99.1997V232.4H67.6997V181H99.1997V191Z" fill="black"/>
<path d="M107.4 181H122.2L136.6 216.6L150.9 181H165.6V232.5H153.1V201.6L141.6 232.5H131.5L119.9 201.6V232.5H107.4V181Z" fill="black"/>
<path d="M198.6 232.4H174.6V181H197.8C208.3 181 214.5 186.2 214.5 194.3C214.5 200.5 210.8 204.6 205.8 206C211.8 207.2 215.7 212.5 215.7 218.4C215.7 226.9 209.5 232.4 198.6 232.4ZM195.4 191H187.2V201.8H195.4C199.5 201.8 201.8 200 201.8 196.4C201.8 192.8 199.5 191 195.4 191ZM196.3 211H187.2V222.4H196.4C200.6 222.4 203 220.5 203 216.8C203 213.1 200.5 211 196.3 211Z" fill="black"/>
<path d="M254.5 191H235.5V201.4H252.3V211.1H235.5V222.4H254.5V232.4H223V181H254.5V191Z" fill="black"/>
<path d="M283.7 181C296.3 181 302.6 188.3 302.6 197.2C302.6 203.7 299.1 209.7 291.2 212.1L303.1 232.5H289L278.3 213.1H275.3V232.5H262.8V181H283.7ZM282.9 191.4H275.1V204.2H282.9C287.6 204.2 289.8 201.8 289.8 197.7C289.8 193.9 287.6 191.4 282.9 191.4Z" fill="black"/>
</svg>
