<svg id="Layer_1" height="512" viewBox="0 0 512 512" width="512" xmlns="http://www.w3.org/2000/svg" data-name="Layer 1"><path d="m344.139 154.779a87.994 87.994 0 0 0 -4.627-28.246 12.493 12.493 0 1 0 -23.669 8 63.072 63.072 0 1 1 -39.949-39.717 12.493 12.493 0 0 0 7.864-23.716 88.152 88.152 0 1 0 60.381 83.676z"/><path d="m421.674 383.691c-25.579-9.785-59.6-17.134-97.385-21.141 12.07-18.431 24.68-38.784 36.37-59.911 32.959-59.567 49.67-109.466 49.67-148.311 0-85.097-69.229-154.328-154.329-154.328s-154.329 69.231-154.329 154.328c0 67.242 45.056 147.753 85.285 208.3-38.218 4.1-72.588 11.65-98.128 21.64-43.328 16.952-52.428 37.232-52.428 51.259 0 50.206 110.473 76.473 219.6 76.473s219.6-26.267 219.6-76.473c0-14.236-9.356-34.787-53.926-51.836zm-165.674-358.706a129.49 129.49 0 0 1 129.344 129.343c0 81.451-85.67 201.644-122.253 252.97q-3.954 5.546-7.11 10-3.676-5.154-8.425-11.692c-36.178-50-120.9-167.092-120.9-251.281a129.49 129.49 0 0 1 129.344-129.34zm142.759 443.847c-37.959 11.726-88.659 18.183-142.759 18.183s-104.8-6.457-142.759-18.183c-35.821-11.066-51.855-24.7-51.855-33.305 0-15.881 49.2-41.637 141.625-49.329 8.968 12.863 17.287 24.362 24.3 34.057 1.82 2.516 3.51 4.853 5.09 7.046h-35.168a12.493 12.493 0 1 0 0 24.985h117.534a12.493 12.493 0 1 0 0-24.985h-35.248q1.845-2.6 3.918-5.5c6.919-9.708 15.552-21.821 25.025-35.646 40.952 3.379 77.769 10.729 104.285 20.873 27.95 10.692 37.867 22.035 37.867 28.5 0 8.603-16.034 22.238-51.855 33.304z"/></svg>