<svg width="651" height="161" viewBox="0 0 651 161" fill="none" xmlns="http://www.w3.org/2000/svg">
<rect x="0.5" y="0.5" width="196" height="102" rx="9.5" fill="#D9EAFF" stroke="#DBDBDB"/>
<path d="M81.001 32.2939H87.1357V27.0029H88.4805V39H87.1357V33.542H81.001V39H79.6562V27.0029H81.001V32.2939ZM94.4746 40.1514C94.5859 40.1045 94.7031 40.0811 94.8262 40.0811C94.9492 40.0811 95.0664 40.1045 95.1777 40.1514C95.2891 40.1982 95.3857 40.2627 95.4678 40.3447C95.5498 40.4268 95.6143 40.5205 95.6611 40.626C95.708 40.7373 95.7314 40.8545 95.7314 40.9775C95.7314 41.1006 95.708 41.2178 95.6611 41.3291C95.6143 41.4404 95.5498 41.5371 95.4678 41.6191C95.3857 41.7012 95.2891 41.7656 95.1777 41.8125C95.0664 41.8594 94.9492 41.8828 94.8262 41.8828C94.7031 41.8828 94.5859 41.8594 94.4746 41.8125C94.3633 41.7656 94.2666 41.7012 94.1846 41.6191C94.1084 41.5371 94.0469 41.4404 94 41.3291C93.9531 41.2178 93.9297 41.0977 93.9297 40.9688C93.9297 40.8457 93.9531 40.7314 94 40.626C94.0469 40.5205 94.1113 40.4268 94.1934 40.3447C94.2754 40.2627 94.3691 40.1982 94.4746 40.1514ZM94.5889 31.9688C93.7158 31.9688 93.0039 32.3203 92.4531 33.0234C92.043 33.5391 91.8379 34.1982 91.8379 35.001C91.8379 35.9385 92.1162 36.6855 92.6729 37.2422C93.2119 37.7812 93.8682 38.0508 94.6416 38.0508C95.5557 38.0508 96.2793 37.6963 96.8125 36.9873C97.2109 36.4541 97.4102 35.7891 97.4102 34.9922C97.4102 34.084 97.1406 33.3457 96.6016 32.7773C96.0801 32.2383 95.4092 31.9688 94.5889 31.9688ZM98.667 39H97.3838V37.9541C96.6338 38.792 95.6992 39.2109 94.5801 39.2109C93.8828 39.2109 93.2295 39.0322 92.6201 38.6748C91.9639 38.2998 91.4512 37.7783 91.082 37.1104C90.7246 36.4717 90.5459 35.7715 90.5459 35.0098C90.5459 33.7383 90.9971 32.6895 91.8994 31.8633C92.6729 31.1602 93.5664 30.8086 94.5801 30.8086C95.6758 30.8086 96.6104 31.2305 97.3838 32.0742V31.0195H98.667V39ZM102.218 31.916C102.804 31.1777 103.604 30.8086 104.617 30.8086C105.596 30.8086 106.393 31.1455 107.008 31.8193C107.154 31.9775 107.28 32.1504 107.386 32.3379C107.491 32.5254 107.576 32.7363 107.641 32.9707C107.705 33.1992 107.752 33.4541 107.781 33.7354C107.816 34.0166 107.834 34.3301 107.834 34.6758V39H106.551V34.834C106.551 34.5469 106.539 34.292 106.516 34.0693C106.498 33.8408 106.466 33.6416 106.419 33.4717C106.378 33.2959 106.322 33.1406 106.252 33.0059C106.188 32.8711 106.105 32.751 106.006 32.6455C105.625 32.2412 105.124 32.0391 104.503 32.0391C103.729 32.0391 103.135 32.291 102.719 32.7949C102.385 33.1992 102.218 33.9375 102.218 35.0098V39H100.935V31.0195H102.218V31.916ZM113.573 31.9688C112.7 31.9688 111.988 32.3203 111.438 33.0234C111.027 33.5391 110.822 34.1982 110.822 35.001C110.822 35.9385 111.101 36.6855 111.657 37.2422C112.196 37.7812 112.853 38.0508 113.626 38.0508C114.534 38.0508 115.255 37.6963 115.788 36.9873C116.181 36.4658 116.377 35.8008 116.377 34.9922C116.377 34.084 116.107 33.3457 115.568 32.7773C115.059 32.2383 114.394 31.9688 113.573 31.9688ZM117.651 31.0195V39.1494C117.651 40.3096 117.338 41.2646 116.711 42.0146C116.336 42.46 115.867 42.8027 115.305 43.043C114.742 43.2891 114.133 43.4121 113.477 43.4121C112.732 43.4121 112.076 43.2744 111.508 42.999C110.957 42.7295 110.403 42.2783 109.847 41.6455L110.69 40.8018C110.89 41.042 111.074 41.2412 111.244 41.3994C111.42 41.5635 111.581 41.6924 111.728 41.7861C112.226 42.0967 112.806 42.252 113.468 42.252C114.37 42.252 115.079 41.9766 115.595 41.4258C116.11 40.875 116.368 40.1162 116.368 39.1494V37.9541C115.618 38.792 114.684 39.2109 113.564 39.2109C112.867 39.2109 112.214 39.0322 111.604 38.6748C110.948 38.2998 110.436 37.7783 110.066 37.1104C109.709 36.4717 109.53 35.7715 109.53 35.0098C109.53 33.7383 109.981 32.6895 110.884 31.8633C111.657 31.1602 112.551 30.8086 113.564 30.8086C114.66 30.8086 115.595 31.2305 116.368 32.0742V31.0195H117.651Z" fill="black"/>
<path d="M60.8594 117.242C59.0365 117.242 58.125 118.737 58.125 121.727C58.125 122.987 58.3177 124.01 58.7031 124.797C59.1302 125.661 59.8464 126.094 60.8516 126.094C62.6693 126.094 63.5781 124.617 63.5781 121.664C63.5781 118.716 62.6719 117.242 60.8594 117.242ZM56.9141 121.594C56.9141 117.964 58.2266 116.148 60.8516 116.148C63.4766 116.148 64.7891 117.99 64.7891 121.672C64.7891 125.349 63.4792 127.188 60.8594 127.188C59.3542 127.188 58.2943 126.617 57.6797 125.477C57.1693 124.544 56.9141 123.25 56.9141 121.594ZM70.0156 122.805H72.9219V123.828H70.0156V122.805ZM83.4531 116.75L79.2266 123.547H82.7266V120.727H83.9141V123.547H85.2266V124.633H83.9141V127H82.7266V124.633H77.9844V123.414L82.5 116.148L83.4531 116.75ZM90.1719 117.234C89.4844 117.234 88.901 117.482 88.4219 117.977C87.9531 118.461 87.7188 119.057 87.7188 119.766C87.7188 120.427 87.9427 120.987 88.3906 121.445C88.8646 121.909 89.4557 122.141 90.1641 122.141C90.8411 122.141 91.4167 121.909 91.8906 121.445C92.3594 120.977 92.5938 120.401 92.5938 119.719C92.5938 119.021 92.3672 118.44 91.9141 117.977C91.4349 117.482 90.8542 117.234 90.1719 117.234ZM89.4141 127.195L88.5078 126.516L90.9219 123.102C90.625 123.164 90.3542 123.195 90.1094 123.195C88.974 123.195 88.0599 122.805 87.3672 122.023C86.8203 121.409 86.5469 120.667 86.5469 119.797C86.5469 118.714 86.9401 117.81 87.7266 117.086C88.3984 116.461 89.2031 116.148 90.1406 116.148C91.1979 116.148 92.0833 116.531 92.7969 117.297C93.4427 117.99 93.7656 118.818 93.7656 119.781C93.7656 120.625 93.4948 121.432 92.9531 122.203L89.4141 127.195ZM98.8906 117.234C98.2031 117.234 97.6198 117.482 97.1406 117.977C96.6719 118.461 96.4375 119.057 96.4375 119.766C96.4375 120.427 96.6615 120.987 97.1094 121.445C97.5833 121.909 98.1745 122.141 98.8828 122.141C99.5599 122.141 100.135 121.909 100.609 121.445C101.078 120.977 101.312 120.401 101.312 119.719C101.312 119.021 101.086 118.44 100.633 117.977C100.154 117.482 99.5729 117.234 98.8906 117.234ZM98.1328 127.195L97.2266 126.516L99.6406 123.102C99.3438 123.164 99.0729 123.195 98.8281 123.195C97.6927 123.195 96.7786 122.805 96.0859 122.023C95.5391 121.409 95.2656 120.667 95.2656 119.797C95.2656 118.714 95.6589 117.81 96.4453 117.086C97.1172 116.461 97.9219 116.148 98.8594 116.148C99.9167 116.148 100.802 116.531 101.516 117.297C102.161 117.99 102.484 118.818 102.484 119.781C102.484 120.625 102.214 121.432 101.672 122.203L98.1328 127.195ZM111.375 120.75C110.599 120.75 109.966 121.062 109.477 121.688C109.112 122.146 108.93 122.732 108.93 123.445C108.93 124.279 109.177 124.943 109.672 125.438C110.151 125.917 110.734 126.156 111.422 126.156C112.229 126.156 112.867 125.841 113.336 125.211C113.685 124.747 113.859 124.156 113.859 123.438C113.859 122.62 113.622 121.964 113.148 121.469C112.695 120.99 112.104 120.75 111.375 120.75ZM113.859 117.641V116.336H115V117.641H115.961V118.672H115V127H113.859V126.07C113.193 126.815 112.362 127.188 111.367 127.188C110.742 127.188 110.161 127.029 109.625 126.711C109.042 126.378 108.586 125.914 108.258 125.32C107.94 124.753 107.781 124.13 107.781 123.453C107.781 122.323 108.182 121.391 108.984 120.656C109.672 120.031 110.466 119.719 111.367 119.719C112.341 119.719 113.172 120.094 113.859 120.844V118.672H111.938V117.641H113.859ZM117.289 116.797C117.393 116.755 117.5 116.734 117.609 116.734C117.719 116.734 117.823 116.755 117.922 116.797C118.021 116.839 118.107 116.898 118.18 116.977C118.258 117.049 118.318 117.135 118.359 117.234C118.401 117.333 118.422 117.438 118.422 117.547C118.422 117.781 118.344 117.977 118.188 118.133C118.031 118.289 117.836 118.367 117.602 118.367C117.492 118.367 117.388 118.346 117.289 118.305C117.19 118.258 117.102 118.198 117.023 118.125C116.951 118.052 116.893 117.966 116.852 117.867C116.81 117.763 116.789 117.654 116.789 117.539C116.789 117.43 116.81 117.328 116.852 117.234C116.898 117.135 116.958 117.049 117.031 116.977C117.104 116.898 117.19 116.839 117.289 116.797ZM118.172 119.906V127H117.031V119.906H118.172ZM124.742 117.125C124.747 116.906 124.82 116.695 124.961 116.492L125.109 116.273C125.26 116.06 125.336 115.901 125.336 115.797C125.336 115.542 125.159 115.414 124.805 115.414C124.643 115.414 124.445 115.456 124.211 115.539L123.891 114.727C124.266 114.581 124.615 114.508 124.938 114.508C125.375 114.508 125.724 114.607 125.984 114.805C126.245 115.003 126.375 115.266 126.375 115.594C126.375 115.849 126.292 116.107 126.125 116.367L125.875 116.75C125.802 116.87 125.766 116.995 125.766 117.125H124.742ZM123.656 116.602L125.492 118.617L124.672 119.031L123.195 117.641L121.727 119.031L120.906 118.617L122.75 116.602H123.656ZM125.445 122.961C125.424 122.81 125.396 122.672 125.359 122.547C125.328 122.417 125.292 122.299 125.25 122.195C125.057 121.727 124.771 121.362 124.391 121.102C124.036 120.867 123.641 120.75 123.203 120.75C122.609 120.75 122.104 120.951 121.688 121.352C121.281 121.742 121.026 122.279 120.922 122.961H125.445ZM120.922 123.938C120.943 124.073 120.969 124.206 121 124.336C121.031 124.461 121.073 124.583 121.125 124.703C121.318 125.167 121.617 125.531 122.023 125.797C122.388 126.036 122.805 126.156 123.273 126.156C124.232 126.156 124.951 125.737 125.43 124.898L126.445 125.328C126.096 125.938 125.651 126.401 125.109 126.719C124.568 127.031 123.958 127.188 123.281 127.188C122.193 127.188 121.31 126.779 120.633 125.961C120.044 125.253 119.75 124.409 119.75 123.43C119.75 122.768 119.898 122.151 120.195 121.578C120.518 120.984 120.953 120.521 121.5 120.188C122.021 119.875 122.586 119.719 123.195 119.719C124.19 119.719 125.003 120.081 125.633 120.805C126.268 121.534 126.586 122.461 126.586 123.586C126.586 123.622 126.586 123.669 126.586 123.727C126.586 123.784 126.583 123.854 126.578 123.938H120.922ZM133.469 120.891C134.047 120.104 134.82 119.711 135.789 119.711C136.753 119.711 137.508 120.047 138.055 120.719C138.352 121.083 138.539 121.484 138.617 121.922C138.654 122.104 138.68 122.297 138.695 122.5C138.711 122.703 138.719 122.922 138.719 123.156V127H137.578V123.297C137.578 122.359 137.43 121.714 137.133 121.359C136.831 120.995 136.419 120.812 135.898 120.812C135.258 120.812 134.768 121.036 134.43 121.484C134.159 121.839 134.023 122.495 134.023 123.453V127H132.883V123.297C132.883 122.359 132.734 121.714 132.438 121.359C132.135 120.995 131.719 120.812 131.188 120.812C130.542 120.812 130.049 121.036 129.711 121.484C129.435 121.849 129.297 122.505 129.297 123.453V127H128.156V119.906H129.297V120.703C129.786 120.047 130.453 119.719 131.297 119.719C132.214 119.719 132.938 120.109 133.469 120.891Z" fill="black"/>
<path d="M48.7031 147.242C46.8802 147.242 45.9688 148.737 45.9688 151.727C45.9688 152.987 46.1615 154.01 46.5469 154.797C46.974 155.661 47.6901 156.094 48.6953 156.094C50.513 156.094 51.4219 154.617 51.4219 151.664C51.4219 148.716 50.5156 147.242 48.7031 147.242ZM44.7578 151.594C44.7578 147.964 46.0703 146.148 48.6953 146.148C51.3203 146.148 52.6328 147.99 52.6328 151.672C52.6328 155.349 51.3229 157.188 48.7031 157.188C47.1979 157.188 46.138 156.617 45.5234 155.477C45.013 154.544 44.7578 153.25 44.7578 151.594ZM57.8594 152.805H60.7656V153.828H57.8594V152.805ZM71.2969 146.75L67.0703 153.547H70.5703V150.727H71.7578V153.547H73.0703V154.633H71.7578V157H70.5703V154.633H65.8281V153.414L70.3438 146.148L71.2969 146.75ZM78.0156 147.234C77.3281 147.234 76.7448 147.482 76.2656 147.977C75.7969 148.461 75.5625 149.057 75.5625 149.766C75.5625 150.427 75.7865 150.987 76.2344 151.445C76.7083 151.909 77.2995 152.141 78.0078 152.141C78.6849 152.141 79.2604 151.909 79.7344 151.445C80.2031 150.977 80.4375 150.401 80.4375 149.719C80.4375 149.021 80.2109 148.44 79.7578 147.977C79.2786 147.482 78.6979 147.234 78.0156 147.234ZM77.2578 157.195L76.3516 156.516L78.7656 153.102C78.4688 153.164 78.1979 153.195 77.9531 153.195C76.8177 153.195 75.9036 152.805 75.2109 152.023C74.6641 151.409 74.3906 150.667 74.3906 149.797C74.3906 148.714 74.7839 147.81 75.5703 147.086C76.2422 146.461 77.0469 146.148 77.9844 146.148C79.0417 146.148 79.9271 146.531 80.6406 147.297C81.2865 147.99 81.6094 148.818 81.6094 149.781C81.6094 150.625 81.3385 151.432 80.7969 152.203L77.2578 157.195ZM83.8594 155.641C83.9531 155.599 84.0547 155.578 84.1641 155.578C84.2734 155.578 84.375 155.599 84.4688 155.641C84.5677 155.682 84.651 155.74 84.7188 155.812C84.7917 155.88 84.849 155.964 84.8906 156.062C84.9323 156.156 84.9531 156.258 84.9531 156.367C84.9531 156.477 84.9323 156.581 84.8906 156.68C84.849 156.773 84.7917 156.857 84.7188 156.93C84.651 156.997 84.5677 157.052 84.4688 157.094C84.375 157.135 84.2734 157.156 84.1641 157.156C84.0547 157.156 83.9505 157.135 83.8516 157.094C83.7578 157.052 83.6745 156.995 83.6016 156.922C83.5339 156.849 83.4792 156.766 83.4375 156.672C83.3958 156.573 83.375 156.469 83.375 156.359C83.375 156.25 83.3958 156.148 83.4375 156.055C83.4792 155.961 83.5365 155.88 83.6094 155.812C83.6823 155.74 83.7656 155.682 83.8594 155.641ZM90.3594 147.234C89.6719 147.234 89.0885 147.482 88.6094 147.977C88.1406 148.461 87.9062 149.057 87.9062 149.766C87.9062 150.427 88.1302 150.987 88.5781 151.445C89.0521 151.909 89.6432 152.141 90.3516 152.141C91.0286 152.141 91.6042 151.909 92.0781 151.445C92.5469 150.977 92.7812 150.401 92.7812 149.719C92.7812 149.021 92.5547 148.44 92.1016 147.977C91.6224 147.482 91.0417 147.234 90.3594 147.234ZM89.6016 157.195L88.6953 156.516L91.1094 153.102C90.8125 153.164 90.5417 153.195 90.2969 153.195C89.1615 153.195 88.2474 152.805 87.5547 152.023C87.0078 151.409 86.7344 150.667 86.7344 149.797C86.7344 148.714 87.1276 147.81 87.9141 147.086C88.5859 146.461 89.3906 146.148 90.3281 146.148C91.3854 146.148 92.2708 146.531 92.9844 147.297C93.6302 147.99 93.9531 148.818 93.9531 149.781C93.9531 150.625 93.6823 151.432 93.1406 152.203L89.6016 157.195ZM99.2812 147.242C97.4583 147.242 96.5469 148.737 96.5469 151.727C96.5469 152.987 96.7396 154.01 97.125 154.797C97.5521 155.661 98.2682 156.094 99.2734 156.094C101.091 156.094 102 154.617 102 151.664C102 148.716 101.094 147.242 99.2812 147.242ZM95.3359 151.594C95.3359 147.964 96.6484 146.148 99.2734 146.148C101.898 146.148 103.211 147.99 103.211 151.672C103.211 155.349 101.901 157.188 99.2812 157.188C97.776 157.188 96.7161 156.617 96.1016 155.477C95.5911 154.544 95.3359 153.25 95.3359 151.594ZM108.438 147.242C106.615 147.242 105.703 148.737 105.703 151.727C105.703 152.987 105.896 154.01 106.281 154.797C106.708 155.661 107.424 156.094 108.43 156.094C110.247 156.094 111.156 154.617 111.156 151.664C111.156 148.716 110.25 147.242 108.438 147.242ZM104.492 151.594C104.492 147.964 105.805 146.148 108.43 146.148C111.055 146.148 112.367 147.99 112.367 151.672C112.367 155.349 111.057 157.188 108.438 157.188C106.932 157.188 105.872 156.617 105.258 155.477C104.747 154.544 104.492 153.25 104.492 151.594ZM114.516 155.641C114.609 155.599 114.711 155.578 114.82 155.578C114.93 155.578 115.031 155.599 115.125 155.641C115.224 155.682 115.307 155.74 115.375 155.812C115.448 155.88 115.505 155.964 115.547 156.062C115.589 156.156 115.609 156.258 115.609 156.367C115.609 156.477 115.589 156.581 115.547 156.68C115.505 156.773 115.448 156.857 115.375 156.93C115.307 156.997 115.224 157.052 115.125 157.094C115.031 157.135 114.93 157.156 114.82 157.156C114.711 157.156 114.607 157.135 114.508 157.094C114.414 157.052 114.331 156.995 114.258 156.922C114.19 156.849 114.135 156.766 114.094 156.672C114.052 156.573 114.031 156.469 114.031 156.359C114.031 156.25 114.052 156.148 114.094 156.055C114.135 155.961 114.193 155.88 114.266 155.812C114.339 155.74 114.422 155.682 114.516 155.641ZM121.219 147.242C119.396 147.242 118.484 148.737 118.484 151.727C118.484 152.987 118.677 154.01 119.062 154.797C119.49 155.661 120.206 156.094 121.211 156.094C123.029 156.094 123.938 154.617 123.938 151.664C123.938 148.716 123.031 147.242 121.219 147.242ZM117.273 151.594C117.273 147.964 118.586 146.148 121.211 146.148C123.836 146.148 125.148 147.99 125.148 151.672C125.148 155.349 123.839 157.188 121.219 157.188C119.714 157.188 118.654 156.617 118.039 155.477C117.529 154.544 117.273 153.25 117.273 151.594ZM130.375 147.242C128.552 147.242 127.641 148.737 127.641 151.727C127.641 152.987 127.833 154.01 128.219 154.797C128.646 155.661 129.362 156.094 130.367 156.094C132.185 156.094 133.094 154.617 133.094 151.664C133.094 148.716 132.188 147.242 130.375 147.242ZM126.43 151.594C126.43 147.964 127.742 146.148 130.367 146.148C132.992 146.148 134.305 147.99 134.305 151.672C134.305 155.349 132.995 157.188 130.375 157.188C128.87 157.188 127.81 156.617 127.195 155.477C126.685 154.544 126.43 153.25 126.43 151.594ZM139.531 147.242C137.708 147.242 136.797 148.737 136.797 151.727C136.797 152.987 136.99 154.01 137.375 154.797C137.802 155.661 138.518 156.094 139.523 156.094C141.341 156.094 142.25 154.617 142.25 151.664C142.25 148.716 141.344 147.242 139.531 147.242ZM135.586 151.594C135.586 147.964 136.898 146.148 139.523 146.148C142.148 146.148 143.461 147.99 143.461 151.672C143.461 155.349 142.151 157.188 139.531 157.188C138.026 157.188 136.966 156.617 136.352 155.477C135.841 154.544 135.586 153.25 135.586 151.594ZM148.25 150.75C147.474 150.75 146.841 151.062 146.352 151.688C145.987 152.146 145.805 152.732 145.805 153.445C145.805 154.279 146.052 154.943 146.547 155.438C147.026 155.917 147.609 156.156 148.297 156.156C149.104 156.156 149.742 155.841 150.211 155.211C150.56 154.747 150.734 154.156 150.734 153.438C150.734 152.62 150.497 151.964 150.023 151.469C149.57 150.99 148.979 150.75 148.25 150.75ZM150.734 147.641V146.336H151.875V147.641H152.836V148.672H151.875V157H150.734V156.07C150.068 156.815 149.237 157.188 148.242 157.188C147.617 157.188 147.036 157.029 146.5 156.711C145.917 156.378 145.461 155.914 145.133 155.32C144.815 154.753 144.656 154.13 144.656 153.453C144.656 152.323 145.057 151.391 145.859 150.656C146.547 150.031 147.341 149.719 148.242 149.719C149.216 149.719 150.047 150.094 150.734 150.844V148.672H148.812V147.641H150.734Z" fill="black"/>
<path d="M59.7773 71V55.0039H62.2148L67.6758 64.7305L73.1367 55.0039H75.5625V71H73.0664V59.7031L68.6602 67.5664H66.6797L62.2734 59.7031V71H59.7773ZM86.1328 64.7422C85.9531 64.0547 85.6992 63.5078 85.3711 63.1016C84.8711 62.4609 84.1875 62.1406 83.3203 62.1406C82.5859 62.1406 81.9688 62.3672 81.4688 62.8203C80.9688 63.2734 80.6328 63.9141 80.4609 64.7422H86.1328ZM80.4609 66.5938C80.5781 67.1562 80.7852 67.6406 81.082 68.0469C81.6367 68.7891 82.4297 69.1602 83.4609 69.1602C84.0234 69.1602 84.5391 69.0391 85.0078 68.7969C85.4844 68.5547 85.8633 68.2188 86.1445 67.7891L86.3555 67.4492L88.418 68.3047C87.2227 70.3203 85.5664 71.3281 83.4492 71.3281C81.8086 71.3281 80.4688 70.7383 79.4297 69.5586C78.4766 68.4648 78 67.168 78 65.668C78 63.918 78.6094 62.4844 79.8281 61.3672C80.8047 60.4688 81.9609 60.0195 83.2969 60.0195C84.8125 60.0195 86.0742 60.582 87.082 61.707C87.6055 62.293 87.9883 63.0156 88.2305 63.875C88.418 64.5312 88.5117 65.2109 88.5117 65.9141C88.5117 65.9766 88.5117 66.0625 88.5117 66.1719C88.5117 66.2812 88.5078 66.4219 88.5 66.5938H80.4609ZM98.5078 61.4727C99.3828 60.5117 100.484 60.0312 101.812 60.0312C103.062 60.0312 104.105 60.4062 104.941 61.1562C105.465 61.6406 105.836 62.1914 106.055 62.8086C106.273 63.4336 106.383 64.2539 106.383 65.2695V71H103.992V65.457C103.992 64.3789 103.863 63.5977 103.605 63.1133C103.285 62.5273 102.73 62.2344 101.941 62.2344C101.543 62.2344 101.172 62.3242 100.828 62.5039C100.484 62.6836 100.23 62.9219 100.066 63.2188C99.8008 63.6953 99.668 64.5156 99.668 65.6797V71H97.2773V65.457C97.2773 64.3789 97.1484 63.5977 96.8906 63.1133C96.5703 62.5273 96.0117 62.2344 95.2148 62.2344C94.8086 62.2344 94.4336 62.3242 94.0898 62.5039C93.7461 62.6836 93.4922 62.9219 93.3281 63.2188C93.0625 63.7031 92.9297 64.5234 92.9297 65.6797V71H90.5391V60.3594H92.9297V61.1328C93.6406 60.3984 94.4883 60.0312 95.4727 60.0312C96.6367 60.0312 97.6484 60.5117 98.5078 61.4727ZM114.586 62.1992C113.68 62.1992 112.926 62.5234 112.324 63.1719C111.762 63.7969 111.48 64.6289 111.48 65.668C111.48 66.8477 111.84 67.7617 112.559 68.4102C113.113 68.9102 113.797 69.1602 114.609 69.1602C115.523 69.1602 116.285 68.8281 116.895 68.1641C117.465 67.5469 117.75 66.6992 117.75 65.6211C117.75 64.5508 117.43 63.707 116.789 63.0898C116.188 62.4961 115.453 62.1992 114.586 62.1992ZM109.102 71V55.0039H111.492V61.2852C112.586 60.4492 113.68 60.0312 114.773 60.0312C115.656 60.0312 116.512 60.2695 117.34 60.7461C118.215 61.2461 118.906 61.9297 119.414 62.7969C119.914 63.6719 120.164 64.6289 120.164 65.668C120.164 67.3945 119.543 68.8125 118.301 69.9219C117.246 70.8594 116.07 71.3281 114.773 71.3281C113.672 71.3281 112.578 70.9102 111.492 70.0742V71H109.102ZM129.656 64.7422C129.477 64.0547 129.223 63.5078 128.895 63.1016C128.395 62.4609 127.711 62.1406 126.844 62.1406C126.109 62.1406 125.492 62.3672 124.992 62.8203C124.492 63.2734 124.156 63.9141 123.984 64.7422H129.656ZM123.984 66.5938C124.102 67.1562 124.309 67.6406 124.605 68.0469C125.16 68.7891 125.953 69.1602 126.984 69.1602C127.547 69.1602 128.062 69.0391 128.531 68.7969C129.008 68.5547 129.387 68.2188 129.668 67.7891L129.879 67.4492L131.941 68.3047C130.746 70.3203 129.09 71.3281 126.973 71.3281C125.332 71.3281 123.992 70.7383 122.953 69.5586C122 68.4648 121.523 67.168 121.523 65.668C121.523 63.918 122.133 62.4844 123.352 61.3672C124.328 60.4688 125.484 60.0195 126.82 60.0195C128.336 60.0195 129.598 60.582 130.605 61.707C131.129 62.293 131.512 63.0156 131.754 63.875C131.941 64.5312 132.035 65.2109 132.035 65.9141C132.035 65.9766 132.035 66.0625 132.035 66.1719C132.035 66.2812 132.031 66.4219 132.023 66.5938H123.984ZM134.062 60.3594H136.453V61.2148C136.922 60.8398 137.301 60.5977 137.59 60.4883C137.879 60.3711 138.266 60.3125 138.75 60.3125C138.867 60.3125 138.996 60.3164 139.137 60.3242C139.285 60.332 139.449 60.3438 139.629 60.3594V62.5039C139.434 62.4961 139.266 62.4922 139.125 62.4922C138.992 62.4844 138.883 62.4805 138.797 62.4805C137.836 62.4805 137.188 62.7969 136.852 63.4297C136.586 63.9297 136.453 64.7461 136.453 65.8789V71H134.062V60.3594Z" fill="black"/>
<rect x="227.5" y="0.5" width="196" height="102" rx="9.5" fill="#FFF2B0" stroke="#DBDBDB"/>
<path d="M308.001 32.2939H314.136V27.0029H315.48V39H314.136V33.542H308.001V39H306.656V27.0029H308.001V32.2939ZM321.475 40.1514C321.586 40.1045 321.703 40.0811 321.826 40.0811C321.949 40.0811 322.066 40.1045 322.178 40.1514C322.289 40.1982 322.386 40.2627 322.468 40.3447C322.55 40.4268 322.614 40.5205 322.661 40.626C322.708 40.7373 322.731 40.8545 322.731 40.9775C322.731 41.1006 322.708 41.2178 322.661 41.3291C322.614 41.4404 322.55 41.5371 322.468 41.6191C322.386 41.7012 322.289 41.7656 322.178 41.8125C322.066 41.8594 321.949 41.8828 321.826 41.8828C321.703 41.8828 321.586 41.8594 321.475 41.8125C321.363 41.7656 321.267 41.7012 321.185 41.6191C321.108 41.5371 321.047 41.4404 321 41.3291C320.953 41.2178 320.93 41.0977 320.93 40.9688C320.93 40.8457 320.953 40.7314 321 40.626C321.047 40.5205 321.111 40.4268 321.193 40.3447C321.275 40.2627 321.369 40.1982 321.475 40.1514ZM321.589 31.9688C320.716 31.9688 320.004 32.3203 319.453 33.0234C319.043 33.5391 318.838 34.1982 318.838 35.001C318.838 35.9385 319.116 36.6855 319.673 37.2422C320.212 37.7812 320.868 38.0508 321.642 38.0508C322.556 38.0508 323.279 37.6963 323.812 36.9873C324.211 36.4541 324.41 35.7891 324.41 34.9922C324.41 34.084 324.141 33.3457 323.602 32.7773C323.08 32.2383 322.409 31.9688 321.589 31.9688ZM325.667 39H324.384V37.9541C323.634 38.792 322.699 39.2109 321.58 39.2109C320.883 39.2109 320.229 39.0322 319.62 38.6748C318.964 38.2998 318.451 37.7783 318.082 37.1104C317.725 36.4717 317.546 35.7715 317.546 35.0098C317.546 33.7383 317.997 32.6895 318.899 31.8633C319.673 31.1602 320.566 30.8086 321.58 30.8086C322.676 30.8086 323.61 31.2305 324.384 32.0742V31.0195H325.667V39ZM329.218 31.916C329.804 31.1777 330.604 30.8086 331.617 30.8086C332.596 30.8086 333.393 31.1455 334.008 31.8193C334.154 31.9775 334.28 32.1504 334.386 32.3379C334.491 32.5254 334.576 32.7363 334.641 32.9707C334.705 33.1992 334.752 33.4541 334.781 33.7354C334.816 34.0166 334.834 34.3301 334.834 34.6758V39H333.551V34.834C333.551 34.5469 333.539 34.292 333.516 34.0693C333.498 33.8408 333.466 33.6416 333.419 33.4717C333.378 33.2959 333.322 33.1406 333.252 33.0059C333.188 32.8711 333.105 32.751 333.006 32.6455C332.625 32.2412 332.124 32.0391 331.503 32.0391C330.729 32.0391 330.135 32.291 329.719 32.7949C329.385 33.1992 329.218 33.9375 329.218 35.0098V39H327.935V31.0195H329.218V31.916ZM340.573 31.9688C339.7 31.9688 338.988 32.3203 338.438 33.0234C338.027 33.5391 337.822 34.1982 337.822 35.001C337.822 35.9385 338.101 36.6855 338.657 37.2422C339.196 37.7812 339.853 38.0508 340.626 38.0508C341.534 38.0508 342.255 37.6963 342.788 36.9873C343.181 36.4658 343.377 35.8008 343.377 34.9922C343.377 34.084 343.107 33.3457 342.568 32.7773C342.059 32.2383 341.394 31.9688 340.573 31.9688ZM344.651 31.0195V39.1494C344.651 40.3096 344.338 41.2646 343.711 42.0146C343.336 42.46 342.867 42.8027 342.305 43.043C341.742 43.2891 341.133 43.4121 340.477 43.4121C339.732 43.4121 339.076 43.2744 338.508 42.999C337.957 42.7295 337.403 42.2783 336.847 41.6455L337.69 40.8018C337.89 41.042 338.074 41.2412 338.244 41.3994C338.42 41.5635 338.581 41.6924 338.728 41.7861C339.226 42.0967 339.806 42.252 340.468 42.252C341.37 42.252 342.079 41.9766 342.595 41.4258C343.11 40.875 343.368 40.1162 343.368 39.1494V37.9541C342.618 38.792 341.684 39.2109 340.564 39.2109C339.867 39.2109 339.214 39.0322 338.604 38.6748C337.948 38.2998 337.436 37.7783 337.066 37.1104C336.709 36.4717 336.53 35.7715 336.53 35.0098C336.53 33.7383 336.981 32.6895 337.884 31.8633C338.657 31.1602 339.551 30.8086 340.564 30.8086C341.66 30.8086 342.595 31.2305 343.368 32.0742V31.0195H344.651Z" fill="black"/>
<path d="M277.086 120.195C277.096 120.19 277.12 120.182 277.156 120.172C277.193 120.156 277.24 120.138 277.297 120.117C277.599 120.013 277.938 119.961 278.312 119.961C278.828 119.961 279.333 120.07 279.828 120.289C280.318 120.518 280.724 120.823 281.047 121.203C281.604 121.854 281.883 122.628 281.883 123.523C281.883 124.617 281.482 125.526 280.68 126.25C279.997 126.875 279.18 127.188 278.227 127.188C277.284 127.188 276.458 126.885 275.75 126.281C275.505 126.073 275.24 125.745 274.953 125.297L275.891 124.625C276.031 124.922 276.198 125.167 276.391 125.359C276.885 125.854 277.487 126.102 278.195 126.102C278.898 126.102 279.492 125.854 279.977 125.359C280.456 124.87 280.695 124.279 280.695 123.586C280.695 122.852 280.466 122.245 280.008 121.766C279.529 121.266 278.932 121.016 278.219 121.016C278.062 121.016 277.904 121.034 277.742 121.07C277.581 121.102 277.424 121.148 277.273 121.211C277.128 121.268 276.992 121.341 276.867 121.43C276.742 121.513 276.633 121.607 276.539 121.711L275.617 121.508L276.664 116.336H281.352V117.438H277.641L277.086 120.195ZM287.227 117.242C285.404 117.242 284.492 118.737 284.492 121.727C284.492 122.987 284.685 124.01 285.07 124.797C285.497 125.661 286.214 126.094 287.219 126.094C289.036 126.094 289.945 124.617 289.945 121.664C289.945 118.716 289.039 117.242 287.227 117.242ZM283.281 121.594C283.281 117.964 284.594 116.148 287.219 116.148C289.844 116.148 291.156 117.99 291.156 121.672C291.156 125.349 289.846 127.188 287.227 127.188C285.721 127.188 284.661 126.617 284.047 125.477C283.536 124.544 283.281 123.25 283.281 121.594ZM296.383 117.242C294.56 117.242 293.648 118.737 293.648 121.727C293.648 122.987 293.841 124.01 294.227 124.797C294.654 125.661 295.37 126.094 296.375 126.094C298.193 126.094 299.102 124.617 299.102 121.664C299.102 118.716 298.195 117.242 296.383 117.242ZM292.438 121.594C292.438 117.964 293.75 116.148 296.375 116.148C299 116.148 300.312 117.99 300.312 121.672C300.312 125.349 299.003 127.188 296.383 127.188C294.878 127.188 293.818 126.617 293.203 125.477C292.693 124.544 292.438 123.25 292.438 121.594ZM305.539 122.805H308.445V123.828H305.539V122.805ZM317.414 117.234C316.727 117.234 316.143 117.482 315.664 117.977C315.195 118.461 314.961 119.057 314.961 119.766C314.961 120.427 315.185 120.987 315.633 121.445C316.107 121.909 316.698 122.141 317.406 122.141C318.083 122.141 318.659 121.909 319.133 121.445C319.602 120.977 319.836 120.401 319.836 119.719C319.836 119.021 319.609 118.44 319.156 117.977C318.677 117.482 318.096 117.234 317.414 117.234ZM316.656 127.195L315.75 126.516L318.164 123.102C317.867 123.164 317.596 123.195 317.352 123.195C316.216 123.195 315.302 122.805 314.609 122.023C314.062 121.409 313.789 120.667 313.789 119.797C313.789 118.714 314.182 117.81 314.969 117.086C315.641 116.461 316.445 116.148 317.383 116.148C318.44 116.148 319.326 116.531 320.039 117.297C320.685 117.99 321.008 118.818 321.008 119.781C321.008 120.625 320.737 121.432 320.195 122.203L316.656 127.195ZM326.133 117.234C325.445 117.234 324.862 117.482 324.383 117.977C323.914 118.461 323.68 119.057 323.68 119.766C323.68 120.427 323.904 120.987 324.352 121.445C324.826 121.909 325.417 122.141 326.125 122.141C326.802 122.141 327.378 121.909 327.852 121.445C328.32 120.977 328.555 120.401 328.555 119.719C328.555 119.021 328.328 118.44 327.875 117.977C327.396 117.482 326.815 117.234 326.133 117.234ZM325.375 127.195L324.469 126.516L326.883 123.102C326.586 123.164 326.315 123.195 326.07 123.195C324.935 123.195 324.021 122.805 323.328 122.023C322.781 121.409 322.508 120.667 322.508 119.797C322.508 118.714 322.901 117.81 323.688 117.086C324.359 116.461 325.164 116.148 326.102 116.148C327.159 116.148 328.044 116.531 328.758 117.297C329.404 117.99 329.727 118.818 329.727 119.781C329.727 120.625 329.456 121.432 328.914 122.203L325.375 127.195ZM334.852 117.234C334.164 117.234 333.581 117.482 333.102 117.977C332.633 118.461 332.398 119.057 332.398 119.766C332.398 120.427 332.622 120.987 333.07 121.445C333.544 121.909 334.135 122.141 334.844 122.141C335.521 122.141 336.096 121.909 336.57 121.445C337.039 120.977 337.273 120.401 337.273 119.719C337.273 119.021 337.047 118.44 336.594 117.977C336.115 117.482 335.534 117.234 334.852 117.234ZM334.094 127.195L333.188 126.516L335.602 123.102C335.305 123.164 335.034 123.195 334.789 123.195C333.654 123.195 332.74 122.805 332.047 122.023C331.5 121.409 331.227 120.667 331.227 119.797C331.227 118.714 331.62 117.81 332.406 117.086C333.078 116.461 333.883 116.148 334.82 116.148C335.878 116.148 336.763 116.531 337.477 117.297C338.122 117.99 338.445 118.818 338.445 119.781C338.445 120.625 338.174 121.432 337.633 122.203L334.094 127.195ZM347.336 120.75C346.56 120.75 345.927 121.062 345.438 121.688C345.073 122.146 344.891 122.732 344.891 123.445C344.891 124.279 345.138 124.943 345.633 125.438C346.112 125.917 346.695 126.156 347.383 126.156C348.19 126.156 348.828 125.841 349.297 125.211C349.646 124.747 349.82 124.156 349.82 123.438C349.82 122.62 349.583 121.964 349.109 121.469C348.656 120.99 348.065 120.75 347.336 120.75ZM349.82 117.641V116.336H350.961V117.641H351.922V118.672H350.961V127H349.82V126.07C349.154 126.815 348.323 127.188 347.328 127.188C346.703 127.188 346.122 127.029 345.586 126.711C345.003 126.378 344.547 125.914 344.219 125.32C343.901 124.753 343.742 124.13 343.742 123.453C343.742 122.323 344.143 121.391 344.945 120.656C345.633 120.031 346.427 119.719 347.328 119.719C348.302 119.719 349.133 120.094 349.82 120.844V118.672H347.898V117.641H349.82ZM353.25 116.797C353.354 116.755 353.461 116.734 353.57 116.734C353.68 116.734 353.784 116.755 353.883 116.797C353.982 116.839 354.068 116.898 354.141 116.977C354.219 117.049 354.279 117.135 354.32 117.234C354.362 117.333 354.383 117.438 354.383 117.547C354.383 117.781 354.305 117.977 354.148 118.133C353.992 118.289 353.797 118.367 353.562 118.367C353.453 118.367 353.349 118.346 353.25 118.305C353.151 118.258 353.062 118.198 352.984 118.125C352.911 118.052 352.854 117.966 352.812 117.867C352.771 117.763 352.75 117.654 352.75 117.539C352.75 117.43 352.771 117.328 352.812 117.234C352.859 117.135 352.919 117.049 352.992 116.977C353.065 116.898 353.151 116.839 353.25 116.797ZM354.133 119.906V127H352.992V119.906H354.133ZM360.703 117.125C360.708 116.906 360.781 116.695 360.922 116.492L361.07 116.273C361.221 116.06 361.297 115.901 361.297 115.797C361.297 115.542 361.12 115.414 360.766 115.414C360.604 115.414 360.406 115.456 360.172 115.539L359.852 114.727C360.227 114.581 360.576 114.508 360.898 114.508C361.336 114.508 361.685 114.607 361.945 114.805C362.206 115.003 362.336 115.266 362.336 115.594C362.336 115.849 362.253 116.107 362.086 116.367L361.836 116.75C361.763 116.87 361.727 116.995 361.727 117.125H360.703ZM359.617 116.602L361.453 118.617L360.633 119.031L359.156 117.641L357.688 119.031L356.867 118.617L358.711 116.602H359.617ZM361.406 122.961C361.385 122.81 361.357 122.672 361.32 122.547C361.289 122.417 361.253 122.299 361.211 122.195C361.018 121.727 360.732 121.362 360.352 121.102C359.997 120.867 359.602 120.75 359.164 120.75C358.57 120.75 358.065 120.951 357.648 121.352C357.242 121.742 356.987 122.279 356.883 122.961H361.406ZM356.883 123.938C356.904 124.073 356.93 124.206 356.961 124.336C356.992 124.461 357.034 124.583 357.086 124.703C357.279 125.167 357.578 125.531 357.984 125.797C358.349 126.036 358.766 126.156 359.234 126.156C360.193 126.156 360.911 125.737 361.391 124.898L362.406 125.328C362.057 125.938 361.612 126.401 361.07 126.719C360.529 127.031 359.919 127.188 359.242 127.188C358.154 127.188 357.271 126.779 356.594 125.961C356.005 125.253 355.711 124.409 355.711 123.43C355.711 122.768 355.859 122.151 356.156 121.578C356.479 120.984 356.914 120.521 357.461 120.188C357.982 119.875 358.547 119.719 359.156 119.719C360.151 119.719 360.964 120.081 361.594 120.805C362.229 121.534 362.547 122.461 362.547 123.586C362.547 123.622 362.547 123.669 362.547 123.727C362.547 123.784 362.544 123.854 362.539 123.938H356.883ZM369.43 120.891C370.008 120.104 370.781 119.711 371.75 119.711C372.714 119.711 373.469 120.047 374.016 120.719C374.312 121.083 374.5 121.484 374.578 121.922C374.615 122.104 374.641 122.297 374.656 122.5C374.672 122.703 374.68 122.922 374.68 123.156V127H373.539V123.297C373.539 122.359 373.391 121.714 373.094 121.359C372.792 120.995 372.38 120.812 371.859 120.812C371.219 120.812 370.729 121.036 370.391 121.484C370.12 121.839 369.984 122.495 369.984 123.453V127H368.844V123.297C368.844 122.359 368.695 121.714 368.398 121.359C368.096 120.995 367.68 120.812 367.148 120.812C366.503 120.812 366.01 121.036 365.672 121.484C365.396 121.849 365.258 122.505 365.258 123.453V127H364.117V119.906H365.258V120.703C365.747 120.047 366.414 119.719 367.258 119.719C368.174 119.719 368.898 120.109 369.43 120.891Z" fill="black"/>
<path d="M234.023 150.195C234.034 150.19 234.057 150.182 234.094 150.172C234.13 150.156 234.177 150.138 234.234 150.117C234.536 150.013 234.875 149.961 235.25 149.961C235.766 149.961 236.271 150.07 236.766 150.289C237.255 150.518 237.661 150.823 237.984 151.203C238.542 151.854 238.82 152.628 238.82 153.523C238.82 154.617 238.419 155.526 237.617 156.25C236.935 156.875 236.117 157.188 235.164 157.188C234.221 157.188 233.396 156.885 232.688 156.281C232.443 156.073 232.177 155.745 231.891 155.297L232.828 154.625C232.969 154.922 233.135 155.167 233.328 155.359C233.823 155.854 234.424 156.102 235.133 156.102C235.836 156.102 236.43 155.854 236.914 155.359C237.393 154.87 237.633 154.279 237.633 153.586C237.633 152.852 237.404 152.245 236.945 151.766C236.466 151.266 235.87 151.016 235.156 151.016C235 151.016 234.841 151.034 234.68 151.07C234.518 151.102 234.362 151.148 234.211 151.211C234.065 151.268 233.93 151.341 233.805 151.43C233.68 151.513 233.57 151.607 233.477 151.711L232.555 151.508L233.602 146.336H238.289V147.438H234.578L234.023 150.195ZM244.164 147.242C242.341 147.242 241.43 148.737 241.43 151.727C241.43 152.987 241.622 154.01 242.008 154.797C242.435 155.661 243.151 156.094 244.156 156.094C245.974 156.094 246.883 154.617 246.883 151.664C246.883 148.716 245.977 147.242 244.164 147.242ZM240.219 151.594C240.219 147.964 241.531 146.148 244.156 146.148C246.781 146.148 248.094 147.99 248.094 151.672C248.094 155.349 246.784 157.188 244.164 157.188C242.659 157.188 241.599 156.617 240.984 155.477C240.474 154.544 240.219 153.25 240.219 151.594ZM250.242 155.641C250.336 155.599 250.438 155.578 250.547 155.578C250.656 155.578 250.758 155.599 250.852 155.641C250.951 155.682 251.034 155.74 251.102 155.812C251.174 155.88 251.232 155.964 251.273 156.062C251.315 156.156 251.336 156.258 251.336 156.367C251.336 156.477 251.315 156.581 251.273 156.68C251.232 156.773 251.174 156.857 251.102 156.93C251.034 156.997 250.951 157.052 250.852 157.094C250.758 157.135 250.656 157.156 250.547 157.156C250.438 157.156 250.333 157.135 250.234 157.094C250.141 157.052 250.057 156.995 249.984 156.922C249.917 156.849 249.862 156.766 249.82 156.672C249.779 156.573 249.758 156.469 249.758 156.359C249.758 156.25 249.779 156.148 249.82 156.055C249.862 155.961 249.919 155.88 249.992 155.812C250.065 155.74 250.148 155.682 250.242 155.641ZM256.945 147.242C255.122 147.242 254.211 148.737 254.211 151.727C254.211 152.987 254.404 154.01 254.789 154.797C255.216 155.661 255.932 156.094 256.938 156.094C258.755 156.094 259.664 154.617 259.664 151.664C259.664 148.716 258.758 147.242 256.945 147.242ZM253 151.594C253 147.964 254.312 146.148 256.938 146.148C259.562 146.148 260.875 147.99 260.875 151.672C260.875 155.349 259.565 157.188 256.945 157.188C255.44 157.188 254.38 156.617 253.766 155.477C253.255 154.544 253 153.25 253 151.594ZM266.102 147.242C264.279 147.242 263.367 148.737 263.367 151.727C263.367 152.987 263.56 154.01 263.945 154.797C264.372 155.661 265.089 156.094 266.094 156.094C267.911 156.094 268.82 154.617 268.82 151.664C268.82 148.716 267.914 147.242 266.102 147.242ZM262.156 151.594C262.156 147.964 263.469 146.148 266.094 146.148C268.719 146.148 270.031 147.99 270.031 151.672C270.031 155.349 268.721 157.188 266.102 157.188C264.596 157.188 263.536 156.617 262.922 155.477C262.411 154.544 262.156 153.25 262.156 151.594ZM275.258 147.242C273.435 147.242 272.523 148.737 272.523 151.727C272.523 152.987 272.716 154.01 273.102 154.797C273.529 155.661 274.245 156.094 275.25 156.094C277.068 156.094 277.977 154.617 277.977 151.664C277.977 148.716 277.07 147.242 275.258 147.242ZM271.312 151.594C271.312 147.964 272.625 146.148 275.25 146.148C277.875 146.148 279.188 147.99 279.188 151.672C279.188 155.349 277.878 157.188 275.258 157.188C273.753 157.188 272.693 156.617 272.078 155.477C271.568 154.544 271.312 153.25 271.312 151.594ZM281.336 155.641C281.43 155.599 281.531 155.578 281.641 155.578C281.75 155.578 281.852 155.599 281.945 155.641C282.044 155.682 282.128 155.74 282.195 155.812C282.268 155.88 282.326 155.964 282.367 156.062C282.409 156.156 282.43 156.258 282.43 156.367C282.43 156.477 282.409 156.581 282.367 156.68C282.326 156.773 282.268 156.857 282.195 156.93C282.128 156.997 282.044 157.052 281.945 157.094C281.852 157.135 281.75 157.156 281.641 157.156C281.531 157.156 281.427 157.135 281.328 157.094C281.234 157.052 281.151 156.995 281.078 156.922C281.01 156.849 280.956 156.766 280.914 156.672C280.872 156.573 280.852 156.469 280.852 156.359C280.852 156.25 280.872 156.148 280.914 156.055C280.956 155.961 281.013 155.88 281.086 155.812C281.159 155.74 281.242 155.682 281.336 155.641ZM288.039 147.242C286.216 147.242 285.305 148.737 285.305 151.727C285.305 152.987 285.497 154.01 285.883 154.797C286.31 155.661 287.026 156.094 288.031 156.094C289.849 156.094 290.758 154.617 290.758 151.664C290.758 148.716 289.852 147.242 288.039 147.242ZM284.094 151.594C284.094 147.964 285.406 146.148 288.031 146.148C290.656 146.148 291.969 147.99 291.969 151.672C291.969 155.349 290.659 157.188 288.039 157.188C286.534 157.188 285.474 156.617 284.859 155.477C284.349 154.544 284.094 153.25 284.094 151.594ZM297.195 147.242C295.372 147.242 294.461 148.737 294.461 151.727C294.461 152.987 294.654 154.01 295.039 154.797C295.466 155.661 296.182 156.094 297.188 156.094C299.005 156.094 299.914 154.617 299.914 151.664C299.914 148.716 299.008 147.242 297.195 147.242ZM293.25 151.594C293.25 147.964 294.562 146.148 297.188 146.148C299.812 146.148 301.125 147.99 301.125 151.672C301.125 155.349 299.815 157.188 297.195 157.188C295.69 157.188 294.63 156.617 294.016 155.477C293.505 154.544 293.25 153.25 293.25 151.594ZM306.352 147.242C304.529 147.242 303.617 148.737 303.617 151.727C303.617 152.987 303.81 154.01 304.195 154.797C304.622 155.661 305.339 156.094 306.344 156.094C308.161 156.094 309.07 154.617 309.07 151.664C309.07 148.716 308.164 147.242 306.352 147.242ZM302.406 151.594C302.406 147.964 303.719 146.148 306.344 146.148C308.969 146.148 310.281 147.99 310.281 151.672C310.281 155.349 308.971 157.188 306.352 157.188C304.846 157.188 303.786 156.617 303.172 155.477C302.661 154.544 302.406 153.25 302.406 151.594ZM315.07 150.75C314.294 150.75 313.661 151.062 313.172 151.688C312.807 152.146 312.625 152.732 312.625 153.445C312.625 154.279 312.872 154.943 313.367 155.438C313.846 155.917 314.43 156.156 315.117 156.156C315.924 156.156 316.562 155.841 317.031 155.211C317.38 154.747 317.555 154.156 317.555 153.438C317.555 152.62 317.318 151.964 316.844 151.469C316.391 150.99 315.799 150.75 315.07 150.75ZM317.555 147.641V146.336H318.695V147.641H319.656V148.672H318.695V157H317.555V156.07C316.888 156.815 316.057 157.188 315.062 157.188C314.438 157.188 313.857 157.029 313.32 156.711C312.737 156.378 312.281 155.914 311.953 155.32C311.635 154.753 311.477 154.13 311.477 153.453C311.477 152.323 311.878 151.391 312.68 150.656C313.367 150.031 314.161 149.719 315.062 149.719C316.036 149.719 316.867 150.094 317.555 150.844V148.672H315.633V147.641H317.555ZM324.289 152.805H327.195V153.828H324.289V152.805ZM336.164 147.234C335.477 147.234 334.893 147.482 334.414 147.977C333.945 148.461 333.711 149.057 333.711 149.766C333.711 150.427 333.935 150.987 334.383 151.445C334.857 151.909 335.448 152.141 336.156 152.141C336.833 152.141 337.409 151.909 337.883 151.445C338.352 150.977 338.586 150.401 338.586 149.719C338.586 149.021 338.359 148.44 337.906 147.977C337.427 147.482 336.846 147.234 336.164 147.234ZM335.406 157.195L334.5 156.516L336.914 153.102C336.617 153.164 336.346 153.195 336.102 153.195C334.966 153.195 334.052 152.805 333.359 152.023C332.812 151.409 332.539 150.667 332.539 149.797C332.539 148.714 332.932 147.81 333.719 147.086C334.391 146.461 335.195 146.148 336.133 146.148C337.19 146.148 338.076 146.531 338.789 147.297C339.435 147.99 339.758 148.818 339.758 149.781C339.758 150.625 339.487 151.432 338.945 152.203L335.406 157.195ZM344.883 147.234C344.195 147.234 343.612 147.482 343.133 147.977C342.664 148.461 342.43 149.057 342.43 149.766C342.43 150.427 342.654 150.987 343.102 151.445C343.576 151.909 344.167 152.141 344.875 152.141C345.552 152.141 346.128 151.909 346.602 151.445C347.07 150.977 347.305 150.401 347.305 149.719C347.305 149.021 347.078 148.44 346.625 147.977C346.146 147.482 345.565 147.234 344.883 147.234ZM344.125 157.195L343.219 156.516L345.633 153.102C345.336 153.164 345.065 153.195 344.82 153.195C343.685 153.195 342.771 152.805 342.078 152.023C341.531 151.409 341.258 150.667 341.258 149.797C341.258 148.714 341.651 147.81 342.438 147.086C343.109 146.461 343.914 146.148 344.852 146.148C345.909 146.148 346.794 146.531 347.508 147.297C348.154 147.99 348.477 148.818 348.477 149.781C348.477 150.625 348.206 151.432 347.664 152.203L344.125 157.195ZM350.727 155.641C350.82 155.599 350.922 155.578 351.031 155.578C351.141 155.578 351.242 155.599 351.336 155.641C351.435 155.682 351.518 155.74 351.586 155.812C351.659 155.88 351.716 155.964 351.758 156.062C351.799 156.156 351.82 156.258 351.82 156.367C351.82 156.477 351.799 156.581 351.758 156.68C351.716 156.773 351.659 156.857 351.586 156.93C351.518 156.997 351.435 157.052 351.336 157.094C351.242 157.135 351.141 157.156 351.031 157.156C350.922 157.156 350.818 157.135 350.719 157.094C350.625 157.052 350.542 156.995 350.469 156.922C350.401 156.849 350.346 156.766 350.305 156.672C350.263 156.573 350.242 156.469 350.242 156.359C350.242 156.25 350.263 156.148 350.305 156.055C350.346 155.961 350.404 155.88 350.477 155.812C350.549 155.74 350.633 155.682 350.727 155.641ZM357.227 147.234C356.539 147.234 355.956 147.482 355.477 147.977C355.008 148.461 354.773 149.057 354.773 149.766C354.773 150.427 354.997 150.987 355.445 151.445C355.919 151.909 356.51 152.141 357.219 152.141C357.896 152.141 358.471 151.909 358.945 151.445C359.414 150.977 359.648 150.401 359.648 149.719C359.648 149.021 359.422 148.44 358.969 147.977C358.49 147.482 357.909 147.234 357.227 147.234ZM356.469 157.195L355.562 156.516L357.977 153.102C357.68 153.164 357.409 153.195 357.164 153.195C356.029 153.195 355.115 152.805 354.422 152.023C353.875 151.409 353.602 150.667 353.602 149.797C353.602 148.714 353.995 147.81 354.781 147.086C355.453 146.461 356.258 146.148 357.195 146.148C358.253 146.148 359.138 146.531 359.852 147.297C360.497 147.99 360.82 148.818 360.82 149.781C360.82 150.625 360.549 151.432 360.008 152.203L356.469 157.195ZM366.148 147.242C364.326 147.242 363.414 148.737 363.414 151.727C363.414 152.987 363.607 154.01 363.992 154.797C364.419 155.661 365.135 156.094 366.141 156.094C367.958 156.094 368.867 154.617 368.867 151.664C368.867 148.716 367.961 147.242 366.148 147.242ZM362.203 151.594C362.203 147.964 363.516 146.148 366.141 146.148C368.766 146.148 370.078 147.99 370.078 151.672C370.078 155.349 368.768 157.188 366.148 157.188C364.643 157.188 363.583 156.617 362.969 155.477C362.458 154.544 362.203 153.25 362.203 151.594ZM375.305 147.242C373.482 147.242 372.57 148.737 372.57 151.727C372.57 152.987 372.763 154.01 373.148 154.797C373.576 155.661 374.292 156.094 375.297 156.094C377.115 156.094 378.023 154.617 378.023 151.664C378.023 148.716 377.117 147.242 375.305 147.242ZM371.359 151.594C371.359 147.964 372.672 146.148 375.297 146.148C377.922 146.148 379.234 147.99 379.234 151.672C379.234 155.349 377.924 157.188 375.305 157.188C373.799 157.188 372.74 156.617 372.125 155.477C371.615 154.544 371.359 153.25 371.359 151.594ZM381.383 155.641C381.477 155.599 381.578 155.578 381.688 155.578C381.797 155.578 381.898 155.599 381.992 155.641C382.091 155.682 382.174 155.74 382.242 155.812C382.315 155.88 382.372 155.964 382.414 156.062C382.456 156.156 382.477 156.258 382.477 156.367C382.477 156.477 382.456 156.581 382.414 156.68C382.372 156.773 382.315 156.857 382.242 156.93C382.174 156.997 382.091 157.052 381.992 157.094C381.898 157.135 381.797 157.156 381.688 157.156C381.578 157.156 381.474 157.135 381.375 157.094C381.281 157.052 381.198 156.995 381.125 156.922C381.057 156.849 381.003 156.766 380.961 156.672C380.919 156.573 380.898 156.469 380.898 156.359C380.898 156.25 380.919 156.148 380.961 156.055C381.003 155.961 381.06 155.88 381.133 155.812C381.206 155.74 381.289 155.682 381.383 155.641ZM388.086 147.242C386.263 147.242 385.352 148.737 385.352 151.727C385.352 152.987 385.544 154.01 385.93 154.797C386.357 155.661 387.073 156.094 388.078 156.094C389.896 156.094 390.805 154.617 390.805 151.664C390.805 148.716 389.898 147.242 388.086 147.242ZM384.141 151.594C384.141 147.964 385.453 146.148 388.078 146.148C390.703 146.148 392.016 147.99 392.016 151.672C392.016 155.349 390.706 157.188 388.086 157.188C386.581 157.188 385.521 156.617 384.906 155.477C384.396 154.544 384.141 153.25 384.141 151.594ZM397.242 147.242C395.419 147.242 394.508 148.737 394.508 151.727C394.508 152.987 394.701 154.01 395.086 154.797C395.513 155.661 396.229 156.094 397.234 156.094C399.052 156.094 399.961 154.617 399.961 151.664C399.961 148.716 399.055 147.242 397.242 147.242ZM393.297 151.594C393.297 147.964 394.609 146.148 397.234 146.148C399.859 146.148 401.172 147.99 401.172 151.672C401.172 155.349 399.862 157.188 397.242 157.188C395.737 157.188 394.677 156.617 394.062 155.477C393.552 154.544 393.297 153.25 393.297 151.594ZM406.398 147.242C404.576 147.242 403.664 148.737 403.664 151.727C403.664 152.987 403.857 154.01 404.242 154.797C404.669 155.661 405.385 156.094 406.391 156.094C408.208 156.094 409.117 154.617 409.117 151.664C409.117 148.716 408.211 147.242 406.398 147.242ZM402.453 151.594C402.453 147.964 403.766 146.148 406.391 146.148C409.016 146.148 410.328 147.99 410.328 151.672C410.328 155.349 409.018 157.188 406.398 157.188C404.893 157.188 403.833 156.617 403.219 155.477C402.708 154.544 402.453 153.25 402.453 151.594ZM415.117 150.75C414.341 150.75 413.708 151.062 413.219 151.688C412.854 152.146 412.672 152.732 412.672 153.445C412.672 154.279 412.919 154.943 413.414 155.438C413.893 155.917 414.477 156.156 415.164 156.156C415.971 156.156 416.609 155.841 417.078 155.211C417.427 154.747 417.602 154.156 417.602 153.438C417.602 152.62 417.365 151.964 416.891 151.469C416.438 150.99 415.846 150.75 415.117 150.75ZM417.602 147.641V146.336H418.742V147.641H419.703V148.672H418.742V157H417.602V156.07C416.935 156.815 416.104 157.188 415.109 157.188C414.484 157.188 413.904 157.029 413.367 156.711C412.784 156.378 412.328 155.914 412 155.32C411.682 154.753 411.523 154.13 411.523 153.453C411.523 152.323 411.924 151.391 412.727 150.656C413.414 150.031 414.208 149.719 415.109 149.719C416.083 149.719 416.914 150.094 417.602 150.844V148.672H415.68V147.641H417.602Z" fill="black"/>
<path d="M311.078 55.0039H313.68L317.852 67.6133L322.035 55.0039H324.625L319.305 71H316.398L311.078 55.0039ZM328.832 55.0039V71H326.336V55.0039H328.832ZM334.855 62.5508H336.109C337.273 62.5508 338.078 62.293 338.523 61.7773C338.945 61.3008 339.156 60.6719 339.156 59.8906C339.156 58.8125 338.777 58.0625 338.02 57.6406C337.59 57.3984 336.953 57.2773 336.109 57.2773H334.855V62.5508ZM332.359 55.0039H335.91C337.387 55.0039 338.52 55.2305 339.309 55.6836C339.996 56.0664 340.535 56.6094 340.926 57.3125C341.379 58.0938 341.605 58.9531 341.605 59.8906C341.605 61.2031 341.199 62.3242 340.387 63.2539C339.879 63.8086 339.285 64.207 338.605 64.4492C337.926 64.6914 337.027 64.8125 335.91 64.8125H334.855V71H332.359V55.0039Z" fill="black"/>
<rect x="454.5" y="0.5" width="196" height="102" rx="9.5" fill="#FFC671" stroke="#DBDBDB"/>
<path d="M535.001 32.2939H541.136V27.0029H542.48V39H541.136V33.542H535.001V39H533.656V27.0029H535.001V32.2939ZM548.475 40.1514C548.586 40.1045 548.703 40.0811 548.826 40.0811C548.949 40.0811 549.066 40.1045 549.178 40.1514C549.289 40.1982 549.386 40.2627 549.468 40.3447C549.55 40.4268 549.614 40.5205 549.661 40.626C549.708 40.7373 549.731 40.8545 549.731 40.9775C549.731 41.1006 549.708 41.2178 549.661 41.3291C549.614 41.4404 549.55 41.5371 549.468 41.6191C549.386 41.7012 549.289 41.7656 549.178 41.8125C549.066 41.8594 548.949 41.8828 548.826 41.8828C548.703 41.8828 548.586 41.8594 548.475 41.8125C548.363 41.7656 548.267 41.7012 548.185 41.6191C548.108 41.5371 548.047 41.4404 548 41.3291C547.953 41.2178 547.93 41.0977 547.93 40.9688C547.93 40.8457 547.953 40.7314 548 40.626C548.047 40.5205 548.111 40.4268 548.193 40.3447C548.275 40.2627 548.369 40.1982 548.475 40.1514ZM548.589 31.9688C547.716 31.9688 547.004 32.3203 546.453 33.0234C546.043 33.5391 545.838 34.1982 545.838 35.001C545.838 35.9385 546.116 36.6855 546.673 37.2422C547.212 37.7812 547.868 38.0508 548.642 38.0508C549.556 38.0508 550.279 37.6963 550.812 36.9873C551.211 36.4541 551.41 35.7891 551.41 34.9922C551.41 34.084 551.141 33.3457 550.602 32.7773C550.08 32.2383 549.409 31.9688 548.589 31.9688ZM552.667 39H551.384V37.9541C550.634 38.792 549.699 39.2109 548.58 39.2109C547.883 39.2109 547.229 39.0322 546.62 38.6748C545.964 38.2998 545.451 37.7783 545.082 37.1104C544.725 36.4717 544.546 35.7715 544.546 35.0098C544.546 33.7383 544.997 32.6895 545.899 31.8633C546.673 31.1602 547.566 30.8086 548.58 30.8086C549.676 30.8086 550.61 31.2305 551.384 32.0742V31.0195H552.667V39ZM556.218 31.916C556.804 31.1777 557.604 30.8086 558.617 30.8086C559.596 30.8086 560.393 31.1455 561.008 31.8193C561.154 31.9775 561.28 32.1504 561.386 32.3379C561.491 32.5254 561.576 32.7363 561.641 32.9707C561.705 33.1992 561.752 33.4541 561.781 33.7354C561.816 34.0166 561.834 34.3301 561.834 34.6758V39H560.551V34.834C560.551 34.5469 560.539 34.292 560.516 34.0693C560.498 33.8408 560.466 33.6416 560.419 33.4717C560.378 33.2959 560.322 33.1406 560.252 33.0059C560.188 32.8711 560.105 32.751 560.006 32.6455C559.625 32.2412 559.124 32.0391 558.503 32.0391C557.729 32.0391 557.135 32.291 556.719 32.7949C556.385 33.1992 556.218 33.9375 556.218 35.0098V39H554.935V31.0195H556.218V31.916ZM567.573 31.9688C566.7 31.9688 565.988 32.3203 565.438 33.0234C565.027 33.5391 564.822 34.1982 564.822 35.001C564.822 35.9385 565.101 36.6855 565.657 37.2422C566.196 37.7812 566.853 38.0508 567.626 38.0508C568.534 38.0508 569.255 37.6963 569.788 36.9873C570.181 36.4658 570.377 35.8008 570.377 34.9922C570.377 34.084 570.107 33.3457 569.568 32.7773C569.059 32.2383 568.394 31.9688 567.573 31.9688ZM571.651 31.0195V39.1494C571.651 40.3096 571.338 41.2646 570.711 42.0146C570.336 42.46 569.867 42.8027 569.305 43.043C568.742 43.2891 568.133 43.4121 567.477 43.4121C566.732 43.4121 566.076 43.2744 565.508 42.999C564.957 42.7295 564.403 42.2783 563.847 41.6455L564.69 40.8018C564.89 41.042 565.074 41.2412 565.244 41.3994C565.42 41.5635 565.581 41.6924 565.728 41.7861C566.226 42.0967 566.806 42.252 567.468 42.252C568.37 42.252 569.079 41.9766 569.595 41.4258C570.11 40.875 570.368 40.1162 570.368 39.1494V37.9541C569.618 38.792 568.684 39.2109 567.564 39.2109C566.867 39.2109 566.214 39.0322 565.604 38.6748C564.948 38.2998 564.436 37.7783 564.066 37.1104C563.709 36.4717 563.53 35.7715 563.53 35.0098C563.53 33.7383 563.981 32.6895 564.884 31.8633C565.657 31.1602 566.551 30.8086 567.564 30.8086C568.66 30.8086 569.595 31.2305 570.368 32.0742V31.0195H571.651Z" fill="black"/>
<path d="M511.375 120.938V124.867C511.375 125.654 511.641 126.047 512.172 126.047C512.302 126.047 512.464 126.021 512.656 125.969V127C512.391 127.073 512.156 127.109 511.953 127.109C510.807 127.109 510.234 126.362 510.234 124.867V120.938H509.438V119.906H510.234V118.227L511.375 117.773V119.906H512.555V120.938H511.375ZM515.023 116.75L516.148 116.148L517.742 118.352L517.023 118.766L515.023 116.75ZM520.172 121.375C520.62 121.115 520.844 120.766 520.844 120.328C520.844 119.88 520.62 119.464 520.172 119.078L520.969 118.68C521.562 119.112 521.859 119.672 521.859 120.359C521.859 120.802 521.711 121.208 521.414 121.578C521.122 121.948 520.708 122.245 520.172 122.469V127H519.031V126.203C518.505 126.859 517.794 127.188 516.898 127.188C516.029 127.188 515.32 126.888 514.773 126.289C514.643 126.148 514.531 125.995 514.438 125.828C514.344 125.661 514.268 125.477 514.211 125.273C514.154 125.065 514.109 124.836 514.078 124.586C514.052 124.336 514.039 124.057 514.039 123.75V119.906H515.18V123.617C515.18 123.872 515.188 124.099 515.203 124.297C515.224 124.495 515.253 124.672 515.289 124.828C515.331 124.979 515.38 125.115 515.438 125.234C515.5 125.354 515.576 125.461 515.664 125.555C515.992 125.914 516.438 126.094 517 126.094C517.688 126.094 518.216 125.87 518.586 125.422C518.883 125.062 519.031 124.406 519.031 123.453V119.906H520.172V121.375ZM529.672 127H528.484V117.672L526.805 118.641L526.258 117.688L528.594 116.336H529.672V127ZM535.523 117.242C533.701 117.242 532.789 118.737 532.789 121.727C532.789 122.987 532.982 124.01 533.367 124.797C533.794 125.661 534.51 126.094 535.516 126.094C537.333 126.094 538.242 124.617 538.242 121.664C538.242 118.716 537.336 117.242 535.523 117.242ZM531.578 121.594C531.578 117.964 532.891 116.148 535.516 116.148C538.141 116.148 539.453 117.99 539.453 121.672C539.453 125.349 538.143 127.188 535.523 127.188C534.018 127.188 532.958 126.617 532.344 125.477C531.833 124.544 531.578 123.25 531.578 121.594ZM544.68 117.242C542.857 117.242 541.945 118.737 541.945 121.727C541.945 122.987 542.138 124.01 542.523 124.797C542.951 125.661 543.667 126.094 544.672 126.094C546.49 126.094 547.398 124.617 547.398 121.664C547.398 118.716 546.492 117.242 544.68 117.242ZM540.734 121.594C540.734 117.964 542.047 116.148 544.672 116.148C547.297 116.148 548.609 117.99 548.609 121.672C548.609 125.349 547.299 127.188 544.68 127.188C543.174 127.188 542.115 126.617 541.5 125.477C540.99 124.544 540.734 123.25 540.734 121.594ZM553.836 117.242C552.013 117.242 551.102 118.737 551.102 121.727C551.102 122.987 551.294 124.01 551.68 124.797C552.107 125.661 552.823 126.094 553.828 126.094C555.646 126.094 556.555 124.617 556.555 121.664C556.555 118.716 555.648 117.242 553.836 117.242ZM549.891 121.594C549.891 117.964 551.203 116.148 553.828 116.148C556.453 116.148 557.766 117.99 557.766 121.672C557.766 125.349 556.456 127.188 553.836 127.188C552.331 127.188 551.271 126.617 550.656 125.477C550.146 124.544 549.891 123.25 549.891 121.594ZM566.555 120.75C565.779 120.75 565.146 121.062 564.656 121.688C564.292 122.146 564.109 122.732 564.109 123.445C564.109 124.279 564.357 124.943 564.852 125.438C565.331 125.917 565.914 126.156 566.602 126.156C567.409 126.156 568.047 125.841 568.516 125.211C568.865 124.747 569.039 124.156 569.039 123.438C569.039 122.62 568.802 121.964 568.328 121.469C567.875 120.99 567.284 120.75 566.555 120.75ZM569.039 117.641V116.336H570.18V117.641H571.141V118.672H570.18V127H569.039V126.07C568.372 126.815 567.542 127.188 566.547 127.188C565.922 127.188 565.341 127.029 564.805 126.711C564.221 126.378 563.766 125.914 563.438 125.32C563.12 124.753 562.961 124.13 562.961 123.453C562.961 122.323 563.362 121.391 564.164 120.656C564.852 120.031 565.646 119.719 566.547 119.719C567.521 119.719 568.352 120.094 569.039 120.844V118.672H567.117V117.641H569.039ZM572.469 116.797C572.573 116.755 572.68 116.734 572.789 116.734C572.898 116.734 573.003 116.755 573.102 116.797C573.201 116.839 573.286 116.898 573.359 116.977C573.438 117.049 573.497 117.135 573.539 117.234C573.581 117.333 573.602 117.438 573.602 117.547C573.602 117.781 573.523 117.977 573.367 118.133C573.211 118.289 573.016 118.367 572.781 118.367C572.672 118.367 572.568 118.346 572.469 118.305C572.37 118.258 572.281 118.198 572.203 118.125C572.13 118.052 572.073 117.966 572.031 117.867C571.99 117.763 571.969 117.654 571.969 117.539C571.969 117.43 571.99 117.328 572.031 117.234C572.078 117.135 572.138 117.049 572.211 116.977C572.284 116.898 572.37 116.839 572.469 116.797ZM573.352 119.906V127H572.211V119.906H573.352ZM579.922 117.125C579.927 116.906 580 116.695 580.141 116.492L580.289 116.273C580.44 116.06 580.516 115.901 580.516 115.797C580.516 115.542 580.339 115.414 579.984 115.414C579.823 115.414 579.625 115.456 579.391 115.539L579.07 114.727C579.445 114.581 579.794 114.508 580.117 114.508C580.555 114.508 580.904 114.607 581.164 114.805C581.424 115.003 581.555 115.266 581.555 115.594C581.555 115.849 581.471 116.107 581.305 116.367L581.055 116.75C580.982 116.87 580.945 116.995 580.945 117.125H579.922ZM578.836 116.602L580.672 118.617L579.852 119.031L578.375 117.641L576.906 119.031L576.086 118.617L577.93 116.602H578.836ZM580.625 122.961C580.604 122.81 580.576 122.672 580.539 122.547C580.508 122.417 580.471 122.299 580.43 122.195C580.237 121.727 579.951 121.362 579.57 121.102C579.216 120.867 578.82 120.75 578.383 120.75C577.789 120.75 577.284 120.951 576.867 121.352C576.461 121.742 576.206 122.279 576.102 122.961H580.625ZM576.102 123.938C576.122 124.073 576.148 124.206 576.18 124.336C576.211 124.461 576.253 124.583 576.305 124.703C576.497 125.167 576.797 125.531 577.203 125.797C577.568 126.036 577.984 126.156 578.453 126.156C579.411 126.156 580.13 125.737 580.609 124.898L581.625 125.328C581.276 125.938 580.831 126.401 580.289 126.719C579.747 127.031 579.138 127.188 578.461 127.188C577.372 127.188 576.49 126.779 575.812 125.961C575.224 125.253 574.93 124.409 574.93 123.43C574.93 122.768 575.078 122.151 575.375 121.578C575.698 120.984 576.133 120.521 576.68 120.188C577.201 119.875 577.766 119.719 578.375 119.719C579.37 119.719 580.182 120.081 580.812 120.805C581.448 121.534 581.766 122.461 581.766 123.586C581.766 123.622 581.766 123.669 581.766 123.727C581.766 123.784 581.763 123.854 581.758 123.938H576.102ZM588.648 120.891C589.227 120.104 590 119.711 590.969 119.711C591.932 119.711 592.688 120.047 593.234 120.719C593.531 121.083 593.719 121.484 593.797 121.922C593.833 122.104 593.859 122.297 593.875 122.5C593.891 122.703 593.898 122.922 593.898 123.156V127H592.758V123.297C592.758 122.359 592.609 121.714 592.312 121.359C592.01 120.995 591.599 120.812 591.078 120.812C590.438 120.812 589.948 121.036 589.609 121.484C589.339 121.839 589.203 122.495 589.203 123.453V127H588.062V123.297C588.062 122.359 587.914 121.714 587.617 121.359C587.315 120.995 586.898 120.812 586.367 120.812C585.721 120.812 585.229 121.036 584.891 121.484C584.615 121.849 584.477 122.505 584.477 123.453V127H583.336V119.906H584.477V120.703C584.966 120.047 585.633 119.719 586.477 119.719C587.393 119.719 588.117 120.109 588.648 120.891Z" fill="black"/>
<path d="M498.719 150.938V154.867C498.719 155.654 498.984 156.047 499.516 156.047C499.646 156.047 499.807 156.021 500 155.969V157C499.734 157.073 499.5 157.109 499.297 157.109C498.151 157.109 497.578 156.362 497.578 154.867V150.938H496.781V149.906H497.578V148.227L498.719 147.773V149.906H499.898V150.938H498.719ZM502.367 146.75L503.492 146.148L505.086 148.352L504.367 148.766L502.367 146.75ZM507.516 151.375C507.964 151.115 508.188 150.766 508.188 150.328C508.188 149.88 507.964 149.464 507.516 149.078L508.312 148.68C508.906 149.112 509.203 149.672 509.203 150.359C509.203 150.802 509.055 151.208 508.758 151.578C508.466 151.948 508.052 152.245 507.516 152.469V157H506.375V156.203C505.849 156.859 505.138 157.188 504.242 157.188C503.372 157.188 502.664 156.888 502.117 156.289C501.987 156.148 501.875 155.995 501.781 155.828C501.688 155.661 501.612 155.477 501.555 155.273C501.497 155.065 501.453 154.836 501.422 154.586C501.396 154.336 501.383 154.057 501.383 153.75V149.906H502.523V153.617C502.523 153.872 502.531 154.099 502.547 154.297C502.568 154.495 502.596 154.672 502.633 154.828C502.674 154.979 502.724 155.115 502.781 155.234C502.844 155.354 502.919 155.461 503.008 155.555C503.336 155.914 503.781 156.094 504.344 156.094C505.031 156.094 505.56 155.87 505.93 155.422C506.227 155.062 506.375 154.406 506.375 153.453V149.906H507.516V151.375ZM517.016 157H515.828V147.672L514.148 148.641L513.602 147.688L515.938 146.336H517.016V157ZM522.867 147.242C521.044 147.242 520.133 148.737 520.133 151.727C520.133 152.987 520.326 154.01 520.711 154.797C521.138 155.661 521.854 156.094 522.859 156.094C524.677 156.094 525.586 154.617 525.586 151.664C525.586 148.716 524.68 147.242 522.867 147.242ZM518.922 151.594C518.922 147.964 520.234 146.148 522.859 146.148C525.484 146.148 526.797 147.99 526.797 151.672C526.797 155.349 525.487 157.188 522.867 157.188C521.362 157.188 520.302 156.617 519.688 155.477C519.177 154.544 518.922 153.25 518.922 151.594ZM532.023 147.242C530.201 147.242 529.289 148.737 529.289 151.727C529.289 152.987 529.482 154.01 529.867 154.797C530.294 155.661 531.01 156.094 532.016 156.094C533.833 156.094 534.742 154.617 534.742 151.664C534.742 148.716 533.836 147.242 532.023 147.242ZM528.078 151.594C528.078 147.964 529.391 146.148 532.016 146.148C534.641 146.148 535.953 147.99 535.953 151.672C535.953 155.349 534.643 157.188 532.023 157.188C530.518 157.188 529.458 156.617 528.844 155.477C528.333 154.544 528.078 153.25 528.078 151.594ZM538.102 155.641C538.195 155.599 538.297 155.578 538.406 155.578C538.516 155.578 538.617 155.599 538.711 155.641C538.81 155.682 538.893 155.74 538.961 155.812C539.034 155.88 539.091 155.964 539.133 156.062C539.174 156.156 539.195 156.258 539.195 156.367C539.195 156.477 539.174 156.581 539.133 156.68C539.091 156.773 539.034 156.857 538.961 156.93C538.893 156.997 538.81 157.052 538.711 157.094C538.617 157.135 538.516 157.156 538.406 157.156C538.297 157.156 538.193 157.135 538.094 157.094C538 157.052 537.917 156.995 537.844 156.922C537.776 156.849 537.721 156.766 537.68 156.672C537.638 156.573 537.617 156.469 537.617 156.359C537.617 156.25 537.638 156.148 537.68 156.055C537.721 155.961 537.779 155.88 537.852 155.812C537.924 155.74 538.008 155.682 538.102 155.641ZM544.805 147.242C542.982 147.242 542.07 148.737 542.07 151.727C542.07 152.987 542.263 154.01 542.648 154.797C543.076 155.661 543.792 156.094 544.797 156.094C546.615 156.094 547.523 154.617 547.523 151.664C547.523 148.716 546.617 147.242 544.805 147.242ZM540.859 151.594C540.859 147.964 542.172 146.148 544.797 146.148C547.422 146.148 548.734 147.99 548.734 151.672C548.734 155.349 547.424 157.188 544.805 157.188C543.299 157.188 542.24 156.617 541.625 155.477C541.115 154.544 540.859 153.25 540.859 151.594ZM553.961 147.242C552.138 147.242 551.227 148.737 551.227 151.727C551.227 152.987 551.419 154.01 551.805 154.797C552.232 155.661 552.948 156.094 553.953 156.094C555.771 156.094 556.68 154.617 556.68 151.664C556.68 148.716 555.773 147.242 553.961 147.242ZM550.016 151.594C550.016 147.964 551.328 146.148 553.953 146.148C556.578 146.148 557.891 147.99 557.891 151.672C557.891 155.349 556.581 157.188 553.961 157.188C552.456 157.188 551.396 156.617 550.781 155.477C550.271 154.544 550.016 153.25 550.016 151.594ZM563.117 147.242C561.294 147.242 560.383 148.737 560.383 151.727C560.383 152.987 560.576 154.01 560.961 154.797C561.388 155.661 562.104 156.094 563.109 156.094C564.927 156.094 565.836 154.617 565.836 151.664C565.836 148.716 564.93 147.242 563.117 147.242ZM559.172 151.594C559.172 147.964 560.484 146.148 563.109 146.148C565.734 146.148 567.047 147.99 567.047 151.672C567.047 155.349 565.737 157.188 563.117 157.188C561.612 157.188 560.552 156.617 559.938 155.477C559.427 154.544 559.172 153.25 559.172 151.594ZM569.195 155.641C569.289 155.599 569.391 155.578 569.5 155.578C569.609 155.578 569.711 155.599 569.805 155.641C569.904 155.682 569.987 155.74 570.055 155.812C570.128 155.88 570.185 155.964 570.227 156.062C570.268 156.156 570.289 156.258 570.289 156.367C570.289 156.477 570.268 156.581 570.227 156.68C570.185 156.773 570.128 156.857 570.055 156.93C569.987 156.997 569.904 157.052 569.805 157.094C569.711 157.135 569.609 157.156 569.5 157.156C569.391 157.156 569.286 157.135 569.188 157.094C569.094 157.052 569.01 156.995 568.938 156.922C568.87 156.849 568.815 156.766 568.773 156.672C568.732 156.573 568.711 156.469 568.711 156.359C568.711 156.25 568.732 156.148 568.773 156.055C568.815 155.961 568.872 155.88 568.945 155.812C569.018 155.74 569.102 155.682 569.195 155.641ZM575.898 147.242C574.076 147.242 573.164 148.737 573.164 151.727C573.164 152.987 573.357 154.01 573.742 154.797C574.169 155.661 574.885 156.094 575.891 156.094C577.708 156.094 578.617 154.617 578.617 151.664C578.617 148.716 577.711 147.242 575.898 147.242ZM571.953 151.594C571.953 147.964 573.266 146.148 575.891 146.148C578.516 146.148 579.828 147.99 579.828 151.672C579.828 155.349 578.518 157.188 575.898 157.188C574.393 157.188 573.333 156.617 572.719 155.477C572.208 154.544 571.953 153.25 571.953 151.594ZM585.055 147.242C583.232 147.242 582.32 148.737 582.32 151.727C582.32 152.987 582.513 154.01 582.898 154.797C583.326 155.661 584.042 156.094 585.047 156.094C586.865 156.094 587.773 154.617 587.773 151.664C587.773 148.716 586.867 147.242 585.055 147.242ZM581.109 151.594C581.109 147.964 582.422 146.148 585.047 146.148C587.672 146.148 588.984 147.99 588.984 151.672C588.984 155.349 587.674 157.188 585.055 157.188C583.549 157.188 582.49 156.617 581.875 155.477C581.365 154.544 581.109 153.25 581.109 151.594ZM594.211 147.242C592.388 147.242 591.477 148.737 591.477 151.727C591.477 152.987 591.669 154.01 592.055 154.797C592.482 155.661 593.198 156.094 594.203 156.094C596.021 156.094 596.93 154.617 596.93 151.664C596.93 148.716 596.023 147.242 594.211 147.242ZM590.266 151.594C590.266 147.964 591.578 146.148 594.203 146.148C596.828 146.148 598.141 147.99 598.141 151.672C598.141 155.349 596.831 157.188 594.211 157.188C592.706 157.188 591.646 156.617 591.031 155.477C590.521 154.544 590.266 153.25 590.266 151.594ZM602.93 150.75C602.154 150.75 601.521 151.062 601.031 151.688C600.667 152.146 600.484 152.732 600.484 153.445C600.484 154.279 600.732 154.943 601.227 155.438C601.706 155.917 602.289 156.156 602.977 156.156C603.784 156.156 604.422 155.841 604.891 155.211C605.24 154.747 605.414 154.156 605.414 153.438C605.414 152.62 605.177 151.964 604.703 151.469C604.25 150.99 603.659 150.75 602.93 150.75ZM605.414 147.641V146.336H606.555V147.641H607.516V148.672H606.555V157H605.414V156.07C604.747 156.815 603.917 157.188 602.922 157.188C602.297 157.188 601.716 157.029 601.18 156.711C600.596 156.378 600.141 155.914 599.812 155.32C599.495 154.753 599.336 154.13 599.336 153.453C599.336 152.323 599.737 151.391 600.539 150.656C601.227 150.031 602.021 149.719 602.922 149.719C603.896 149.719 604.727 150.094 605.414 150.844V148.672H603.492V147.641H605.414Z" fill="black"/>
<path d="M531.305 55.0039H533.906L538.078 67.6133L542.262 55.0039H544.852L539.531 71H536.625L531.305 55.0039ZM544.852 55.0039H547.453L551.625 67.6133L555.809 55.0039H558.398L553.078 71H550.172L544.852 55.0039ZM562.605 55.0039V71H560.109V55.0039H562.605ZM568.629 62.5508H569.883C571.047 62.5508 571.852 62.293 572.297 61.7773C572.719 61.3008 572.93 60.6719 572.93 59.8906C572.93 58.8125 572.551 58.0625 571.793 57.6406C571.363 57.3984 570.727 57.2773 569.883 57.2773H568.629V62.5508ZM566.133 55.0039H569.684C571.16 55.0039 572.293 55.2305 573.082 55.6836C573.77 56.0664 574.309 56.6094 574.699 57.3125C575.152 58.0938 575.379 58.9531 575.379 59.8906C575.379 61.2031 574.973 62.3242 574.16 63.2539C573.652 63.8086 573.059 64.207 572.379 64.4492C571.699 64.6914 570.801 64.8125 569.684 64.8125H568.629V71H566.133V55.0039Z" fill="black"/>
</svg>
