<svg width="377" height="128" viewBox="0 0 377 128" fill="none" xmlns="http://www.w3.org/2000/svg">
<rect x="0.5" y="0.5" width="119" height="63" rx="9.5" fill="#D9EAFF" stroke="#DBDBDB"/>
<path d="M27.502 76.4619C25.9069 76.4619 25.1094 77.7699 25.1094 80.3857C25.1094 81.4886 25.278 82.3841 25.6152 83.0723C25.9889 83.8288 26.6156 84.207 27.4951 84.207C29.0856 84.207 29.8809 82.915 29.8809 80.3311C29.8809 77.7516 29.0879 76.4619 27.502 76.4619ZM24.0498 80.2695C24.0498 77.0931 25.1982 75.5049 27.4951 75.5049C29.792 75.5049 30.9404 77.1159 30.9404 80.3379C30.9404 83.5553 29.7943 85.1641 27.502 85.1641C26.1849 85.1641 25.2575 84.665 24.7197 83.667C24.2731 82.8512 24.0498 81.7188 24.0498 80.2695ZM35.5137 81.3291H38.0566V82.2246H35.5137V81.3291ZM47.2715 76.0312L43.5732 81.9785H46.6357V79.5107H47.6748V81.9785H48.8232V82.9287H47.6748V85H46.6357V82.9287H42.4863V81.8623L46.4375 75.5049L47.2715 76.0312ZM53.1504 76.4551C52.5488 76.4551 52.0384 76.6715 51.6191 77.1045C51.209 77.5283 51.0039 78.0501 51.0039 78.6699C51.0039 79.2487 51.1999 79.7386 51.5918 80.1396C52.0065 80.5452 52.5238 80.748 53.1436 80.748C53.736 80.748 54.2396 80.5452 54.6543 80.1396C55.0645 79.7295 55.2695 79.2259 55.2695 78.6289C55.2695 78.0182 55.0713 77.5101 54.6748 77.1045C54.2555 76.6715 53.7474 76.4551 53.1504 76.4551ZM52.4873 85.1709L51.6943 84.5762L53.8066 81.5889C53.5469 81.6436 53.3099 81.6709 53.0957 81.6709C52.1022 81.6709 51.3024 81.3291 50.6963 80.6455C50.2178 80.1077 49.9785 79.4583 49.9785 78.6973C49.9785 77.7493 50.3226 76.9587 51.0107 76.3252C51.5986 75.7783 52.3027 75.5049 53.123 75.5049C54.0482 75.5049 54.8229 75.8398 55.4473 76.5098C56.0124 77.1159 56.2949 77.8405 56.2949 78.6836C56.2949 79.4219 56.0579 80.1283 55.584 80.8027L52.4873 85.1709ZM60.7793 76.4551C60.1777 76.4551 59.6673 76.6715 59.248 77.1045C58.8379 77.5283 58.6328 78.0501 58.6328 78.6699C58.6328 79.2487 58.8288 79.7386 59.2207 80.1396C59.6354 80.5452 60.1527 80.748 60.7725 80.748C61.3649 80.748 61.8685 80.5452 62.2832 80.1396C62.6934 79.7295 62.8984 79.2259 62.8984 78.6289C62.8984 78.0182 62.7002 77.5101 62.3037 77.1045C61.8844 76.6715 61.3763 76.4551 60.7793 76.4551ZM60.1162 85.1709L59.3232 84.5762L61.4355 81.5889C61.1758 81.6436 60.9388 81.6709 60.7246 81.6709C59.7311 81.6709 58.9313 81.3291 58.3252 80.6455C57.8467 80.1077 57.6074 79.4583 57.6074 78.6973C57.6074 77.7493 57.9515 76.9587 58.6396 76.3252C59.2275 75.7783 59.9316 75.5049 60.752 75.5049C61.6771 75.5049 62.4518 75.8398 63.0762 76.5098C63.6413 77.1159 63.9238 77.8405 63.9238 78.6836C63.9238 79.4219 63.6868 80.1283 63.2129 80.8027L60.1162 85.1709ZM71.7031 79.5312C71.0241 79.5312 70.4704 79.8047 70.042 80.3516C69.723 80.7526 69.5635 81.2653 69.5635 81.8896C69.5635 82.6188 69.7799 83.1999 70.2129 83.6328C70.6322 84.0521 71.1426 84.2617 71.7441 84.2617C72.4505 84.2617 73.0088 83.986 73.4189 83.4346C73.7243 83.029 73.877 82.5117 73.877 81.8828C73.877 81.1673 73.6696 80.5931 73.2549 80.1602C72.8584 79.7409 72.3411 79.5312 71.7031 79.5312ZM73.877 76.8105V75.6689H74.875V76.8105H75.7158V77.7129H74.875V85H73.877V84.1865C73.2936 84.8382 72.5667 85.1641 71.6963 85.1641C71.1494 85.1641 70.6413 85.0251 70.1719 84.7471C69.6615 84.4554 69.2627 84.0498 68.9756 83.5303C68.6976 83.0335 68.5586 82.4889 68.5586 81.8965C68.5586 80.9076 68.9095 80.0918 69.6113 79.4492C70.2129 78.9023 70.9079 78.6289 71.6963 78.6289C72.5485 78.6289 73.2754 78.957 73.877 79.6133V77.7129H72.1953V76.8105H73.877ZM76.8779 76.0723C76.9691 76.0358 77.0625 76.0176 77.1582 76.0176C77.2539 76.0176 77.3451 76.0358 77.4316 76.0723C77.5182 76.1087 77.5934 76.1611 77.6572 76.2295C77.7256 76.2933 77.778 76.3685 77.8145 76.4551C77.8509 76.5417 77.8691 76.6328 77.8691 76.7285C77.8691 76.9336 77.8008 77.1045 77.6641 77.2412C77.5273 77.3779 77.3564 77.4463 77.1514 77.4463C77.0557 77.4463 76.9645 77.4281 76.8779 77.3916C76.7913 77.3506 76.7139 77.2982 76.6455 77.2344C76.5817 77.1706 76.5316 77.0954 76.4951 77.0088C76.4587 76.9176 76.4404 76.8219 76.4404 76.7217C76.4404 76.626 76.4587 76.5371 76.4951 76.4551C76.5361 76.3685 76.5885 76.2933 76.6523 76.2295C76.7161 76.1611 76.7913 76.1087 76.8779 76.0723ZM77.6504 78.793V85H76.6523V78.793H77.6504ZM83.3994 76.3594C83.404 76.168 83.4678 75.9834 83.5908 75.8057L83.7207 75.6143C83.8529 75.4274 83.9189 75.2884 83.9189 75.1973C83.9189 74.974 83.764 74.8623 83.4541 74.8623C83.3128 74.8623 83.1396 74.8988 82.9346 74.9717L82.6543 74.2607C82.9824 74.1331 83.2878 74.0693 83.5703 74.0693C83.9531 74.0693 84.2585 74.1559 84.4863 74.3291C84.7142 74.5023 84.8281 74.7324 84.8281 75.0195C84.8281 75.2428 84.7552 75.4684 84.6094 75.6963L84.3906 76.0312C84.3268 76.1361 84.2949 76.2454 84.2949 76.3594H83.3994ZM82.4492 75.9014L84.0557 77.665L83.3379 78.0273L82.0459 76.8105L80.7607 78.0273L80.043 77.665L81.6562 75.9014H82.4492ZM84.0146 81.4658C83.9964 81.3337 83.9714 81.2129 83.9395 81.1035C83.9121 80.9896 83.8802 80.887 83.8438 80.7959C83.6751 80.3857 83.4245 80.0667 83.0918 79.8389C82.7819 79.6338 82.4355 79.5312 82.0527 79.5312C81.5332 79.5312 81.0911 79.7067 80.7266 80.0576C80.3711 80.3994 80.1478 80.8688 80.0566 81.4658H84.0146ZM80.0566 82.3203C80.0749 82.4388 80.0977 82.555 80.125 82.6689C80.1523 82.7783 80.1888 82.8854 80.2344 82.9902C80.403 83.3958 80.665 83.7148 81.0205 83.9473C81.3395 84.1569 81.7041 84.2617 82.1143 84.2617C82.9528 84.2617 83.5817 83.8949 84.001 83.1611L84.8896 83.5371C84.5843 84.0703 84.1947 84.4759 83.7207 84.7539C83.2467 85.0273 82.7135 85.1641 82.1211 85.1641C81.1686 85.1641 80.3962 84.8063 79.8037 84.0908C79.2887 83.471 79.0312 82.7327 79.0312 81.876C79.0312 81.2972 79.1611 80.7572 79.4209 80.2559C79.7035 79.7363 80.084 79.3307 80.5625 79.0391C81.0182 78.7656 81.5127 78.6289 82.0459 78.6289C82.9163 78.6289 83.6273 78.9456 84.1787 79.5791C84.7347 80.2171 85.0127 81.0283 85.0127 82.0127C85.0127 82.0446 85.0127 82.0856 85.0127 82.1357C85.0127 82.1859 85.0104 82.2474 85.0059 82.3203H80.0566ZM91.0352 79.6543C91.541 78.9661 92.2178 78.6221 93.0654 78.6221C93.9085 78.6221 94.5693 78.916 95.0479 79.5039C95.3076 79.8229 95.4717 80.1738 95.54 80.5566C95.5719 80.7161 95.5947 80.8848 95.6084 81.0625C95.6221 81.2402 95.6289 81.4316 95.6289 81.6367V85H94.6309V81.7598C94.6309 80.9395 94.501 80.3743 94.2412 80.0645C93.9769 79.7454 93.6169 79.5859 93.1611 79.5859C92.6006 79.5859 92.1722 79.7819 91.876 80.1738C91.639 80.4837 91.5205 81.0579 91.5205 81.8965V85H90.5225V81.7598C90.5225 80.9395 90.3926 80.3743 90.1328 80.0645C89.8685 79.7454 89.5039 79.5859 89.0391 79.5859C88.474 79.5859 88.0433 79.7819 87.7471 80.1738C87.5055 80.4928 87.3848 81.0671 87.3848 81.8965V85H86.3867V78.793H87.3848V79.4902C87.8132 78.916 88.3965 78.6289 89.1348 78.6289C89.9368 78.6289 90.5703 78.9707 91.0352 79.6543Z" fill="black"/>
<path d="M15.4277 99.4619C13.8327 99.4619 13.0352 100.77 13.0352 103.386C13.0352 104.489 13.2038 105.384 13.541 106.072C13.9147 106.829 14.5413 107.207 15.4209 107.207C17.0114 107.207 17.8066 105.915 17.8066 103.331C17.8066 100.752 17.0137 99.4619 15.4277 99.4619ZM11.9756 103.27C11.9756 100.093 13.124 98.5049 15.4209 98.5049C17.7178 98.5049 18.8662 100.116 18.8662 103.338C18.8662 106.555 17.7201 108.164 15.4277 108.164C14.1107 108.164 13.1833 107.665 12.6455 106.667C12.1989 105.851 11.9756 104.719 11.9756 103.27ZM23.4395 104.329H25.9824V105.225H23.4395V104.329ZM35.1973 99.0312L31.499 104.979H34.5615V102.511H35.6006V104.979H36.749V105.929H35.6006V108H34.5615V105.929H30.4121V104.862L34.3633 98.5049L35.1973 99.0312ZM41.0762 99.4551C40.4746 99.4551 39.9642 99.6715 39.5449 100.104C39.1348 100.528 38.9297 101.05 38.9297 101.67C38.9297 102.249 39.1257 102.739 39.5176 103.14C39.9323 103.545 40.4495 103.748 41.0693 103.748C41.6618 103.748 42.1654 103.545 42.5801 103.14C42.9902 102.729 43.1953 102.226 43.1953 101.629C43.1953 101.018 42.9971 100.51 42.6006 100.104C42.1813 99.6715 41.6732 99.4551 41.0762 99.4551ZM40.4131 108.171L39.6201 107.576L41.7324 104.589C41.4727 104.644 41.2357 104.671 41.0215 104.671C40.028 104.671 39.2282 104.329 38.6221 103.646C38.1436 103.108 37.9043 102.458 37.9043 101.697C37.9043 100.749 38.2484 99.9587 38.9365 99.3252C39.5244 98.7783 40.2285 98.5049 41.0488 98.5049C41.974 98.5049 42.7487 98.8398 43.373 99.5098C43.9382 100.116 44.2207 100.84 44.2207 101.684C44.2207 102.422 43.9837 103.128 43.5098 103.803L40.4131 108.171ZM46.1895 106.811C46.2715 106.774 46.3604 106.756 46.4561 106.756C46.5518 106.756 46.6406 106.774 46.7227 106.811C46.8092 106.847 46.8822 106.897 46.9414 106.961C47.0052 107.02 47.0553 107.093 47.0918 107.18C47.1283 107.262 47.1465 107.351 47.1465 107.446C47.1465 107.542 47.1283 107.633 47.0918 107.72C47.0553 107.802 47.0052 107.875 46.9414 107.938C46.8822 107.998 46.8092 108.046 46.7227 108.082C46.6406 108.118 46.5518 108.137 46.4561 108.137C46.3604 108.137 46.2692 108.118 46.1826 108.082C46.1006 108.046 46.0277 107.995 45.9639 107.932C45.9046 107.868 45.8568 107.795 45.8203 107.713C45.7839 107.626 45.7656 107.535 45.7656 107.439C45.7656 107.344 45.7839 107.255 45.8203 107.173C45.8568 107.091 45.9069 107.02 45.9707 106.961C46.0345 106.897 46.1074 106.847 46.1895 106.811ZM51.877 99.4551C51.2754 99.4551 50.765 99.6715 50.3457 100.104C49.9355 100.528 49.7305 101.05 49.7305 101.67C49.7305 102.249 49.9264 102.739 50.3184 103.14C50.7331 103.545 51.2503 103.748 51.8701 103.748C52.4626 103.748 52.9661 103.545 53.3809 103.14C53.791 102.729 53.9961 102.226 53.9961 101.629C53.9961 101.018 53.7979 100.51 53.4014 100.104C52.9821 99.6715 52.474 99.4551 51.877 99.4551ZM51.2139 108.171L50.4209 107.576L52.5332 104.589C52.2734 104.644 52.0365 104.671 51.8223 104.671C50.8288 104.671 50.029 104.329 49.4229 103.646C48.9443 103.108 48.7051 102.458 48.7051 101.697C48.7051 100.749 49.0492 99.9587 49.7373 99.3252C50.3252 98.7783 51.0293 98.5049 51.8496 98.5049C52.7747 98.5049 53.5495 98.8398 54.1738 99.5098C54.7389 100.116 55.0215 100.84 55.0215 101.684C55.0215 102.422 54.7845 103.128 54.3105 103.803L51.2139 108.171ZM59.6836 99.4619C58.0885 99.4619 57.291 100.77 57.291 103.386C57.291 104.489 57.4596 105.384 57.7969 106.072C58.1706 106.829 58.7972 107.207 59.6768 107.207C61.2673 107.207 62.0625 105.915 62.0625 103.331C62.0625 100.752 61.2695 99.4619 59.6836 99.4619ZM56.2314 103.27C56.2314 100.093 57.3799 98.5049 59.6768 98.5049C61.9736 98.5049 63.1221 100.116 63.1221 103.338C63.1221 106.555 61.9759 108.164 59.6836 108.164C58.3665 108.164 57.4391 107.665 56.9014 106.667C56.4548 105.851 56.2314 104.719 56.2314 103.27ZM67.6953 99.4619C66.1003 99.4619 65.3027 100.77 65.3027 103.386C65.3027 104.489 65.4714 105.384 65.8086 106.072C66.1823 106.829 66.8089 107.207 67.6885 107.207C69.279 107.207 70.0742 105.915 70.0742 103.331C70.0742 100.752 69.2812 99.4619 67.6953 99.4619ZM64.2432 103.27C64.2432 100.093 65.3916 98.5049 67.6885 98.5049C69.9854 98.5049 71.1338 100.116 71.1338 103.338C71.1338 106.555 69.9876 108.164 67.6953 108.164C66.3783 108.164 65.4508 107.665 64.9131 106.667C64.4665 105.851 64.2432 104.719 64.2432 103.27ZM73.0137 106.811C73.0957 106.774 73.1846 106.756 73.2803 106.756C73.376 106.756 73.4648 106.774 73.5469 106.811C73.6335 106.847 73.7064 106.897 73.7656 106.961C73.8294 107.02 73.8796 107.093 73.916 107.18C73.9525 107.262 73.9707 107.351 73.9707 107.446C73.9707 107.542 73.9525 107.633 73.916 107.72C73.8796 107.802 73.8294 107.875 73.7656 107.938C73.7064 107.998 73.6335 108.046 73.5469 108.082C73.4648 108.118 73.376 108.137 73.2803 108.137C73.1846 108.137 73.0934 108.118 73.0068 108.082C72.9248 108.046 72.8519 107.995 72.7881 107.932C72.7288 107.868 72.681 107.795 72.6445 107.713C72.6081 107.626 72.5898 107.535 72.5898 107.439C72.5898 107.344 72.6081 107.255 72.6445 107.173C72.681 107.091 72.7311 107.02 72.7949 106.961C72.8587 106.897 72.9316 106.847 73.0137 106.811ZM78.8789 99.4619C77.2839 99.4619 76.4863 100.77 76.4863 103.386C76.4863 104.489 76.6549 105.384 76.9922 106.072C77.3659 106.829 77.9925 107.207 78.8721 107.207C80.4626 107.207 81.2578 105.915 81.2578 103.331C81.2578 100.752 80.4648 99.4619 78.8789 99.4619ZM75.4268 103.27C75.4268 100.093 76.5752 98.5049 78.8721 98.5049C81.1689 98.5049 82.3174 100.116 82.3174 103.338C82.3174 106.555 81.1712 108.164 78.8789 108.164C77.5618 108.164 76.6344 107.665 76.0967 106.667C75.6501 105.851 75.4268 104.719 75.4268 103.27ZM86.8906 99.4619C85.2956 99.4619 84.498 100.77 84.498 103.386C84.498 104.489 84.6667 105.384 85.0039 106.072C85.3776 106.829 86.0042 107.207 86.8838 107.207C88.4743 107.207 89.2695 105.915 89.2695 103.331C89.2695 100.752 88.4766 99.4619 86.8906 99.4619ZM83.4385 103.27C83.4385 100.093 84.5869 98.5049 86.8838 98.5049C89.1807 98.5049 90.3291 100.116 90.3291 103.338C90.3291 106.555 89.1829 108.164 86.8906 108.164C85.5736 108.164 84.6462 107.665 84.1084 106.667C83.6618 105.851 83.4385 104.719 83.4385 103.27ZM94.9023 99.4619C93.3073 99.4619 92.5098 100.77 92.5098 103.386C92.5098 104.489 92.6784 105.384 93.0156 106.072C93.3893 106.829 94.016 107.207 94.8955 107.207C96.486 107.207 97.2812 105.915 97.2812 103.331C97.2812 100.752 96.4883 99.4619 94.9023 99.4619ZM91.4502 103.27C91.4502 100.093 92.5986 98.5049 94.8955 98.5049C97.1924 98.5049 98.3408 100.116 98.3408 103.338C98.3408 106.555 97.1947 108.164 94.9023 108.164C93.5853 108.164 92.6579 107.665 92.1201 106.667C91.6735 105.851 91.4502 104.719 91.4502 103.27ZM102.531 102.531C101.852 102.531 101.299 102.805 100.87 103.352C100.551 103.753 100.392 104.265 100.392 104.89C100.392 105.619 100.608 106.2 101.041 106.633C101.46 107.052 101.971 107.262 102.572 107.262C103.279 107.262 103.837 106.986 104.247 106.435C104.552 106.029 104.705 105.512 104.705 104.883C104.705 104.167 104.498 103.593 104.083 103.16C103.687 102.741 103.169 102.531 102.531 102.531ZM104.705 99.8105V98.6689H105.703V99.8105H106.544V100.713H105.703V108H104.705V107.187C104.122 107.838 103.395 108.164 102.524 108.164C101.978 108.164 101.469 108.025 101 107.747C100.49 107.455 100.091 107.05 99.8037 106.53C99.5257 106.034 99.3867 105.489 99.3867 104.896C99.3867 103.908 99.7376 103.092 100.439 102.449C101.041 101.902 101.736 101.629 102.524 101.629C103.377 101.629 104.104 101.957 104.705 102.613V100.713H103.023V99.8105H104.705Z" fill="black"/>
<path d="M45.3896 21.7842H50.1611V17.6689H51.207V27H50.1611V22.7549H45.3896V27H44.3438V17.6689H45.3896V21.7842ZM55.8691 27.8955C55.9557 27.859 56.0469 27.8408 56.1426 27.8408C56.2383 27.8408 56.3294 27.859 56.416 27.8955C56.5026 27.932 56.5778 27.9821 56.6416 28.0459C56.7054 28.1097 56.7555 28.1826 56.792 28.2646C56.8285 28.3512 56.8467 28.4424 56.8467 28.5381C56.8467 28.6338 56.8285 28.7249 56.792 28.8115C56.7555 28.8981 56.7054 28.9733 56.6416 29.0371C56.5778 29.1009 56.5026 29.151 56.416 29.1875C56.3294 29.224 56.2383 29.2422 56.1426 29.2422C56.0469 29.2422 55.9557 29.224 55.8691 29.1875C55.7826 29.151 55.7074 29.1009 55.6436 29.0371C55.5843 28.9733 55.5365 28.8981 55.5 28.8115C55.4635 28.7249 55.4453 28.6315 55.4453 28.5312C55.4453 28.4355 55.4635 28.3467 55.5 28.2646C55.5365 28.1826 55.5866 28.1097 55.6504 28.0459C55.7142 27.9821 55.7871 27.932 55.8691 27.8955ZM55.958 21.5312C55.279 21.5312 54.7253 21.8047 54.2969 22.3516C53.9779 22.7526 53.8184 23.2653 53.8184 23.8896C53.8184 24.6188 54.0348 25.1999 54.4678 25.6328C54.887 26.0521 55.3975 26.2617 55.999 26.2617C56.71 26.2617 57.2728 25.986 57.6875 25.4346C57.9974 25.0199 58.1523 24.5026 58.1523 23.8828C58.1523 23.1764 57.9427 22.6022 57.5234 22.1602C57.1178 21.7409 56.596 21.5312 55.958 21.5312ZM59.1299 27H58.1318V26.1865C57.5485 26.8382 56.8216 27.1641 55.9512 27.1641C55.4089 27.1641 54.9007 27.0251 54.4268 26.7471C53.9163 26.4554 53.5176 26.0498 53.2305 25.5303C52.9525 25.0335 52.8135 24.4889 52.8135 23.8965C52.8135 22.9076 53.1644 22.0918 53.8662 21.4492C54.4678 20.9023 55.1628 20.6289 55.9512 20.6289C56.8034 20.6289 57.5303 20.957 58.1318 21.6133V20.793H59.1299V27ZM61.8916 21.4902C62.3473 20.916 62.9694 20.6289 63.7578 20.6289C64.5189 20.6289 65.1387 20.891 65.6172 21.415C65.7311 21.5381 65.8291 21.6725 65.9111 21.8184C65.9932 21.9642 66.0592 22.1283 66.1094 22.3105C66.1595 22.4883 66.196 22.6865 66.2188 22.9053C66.2461 23.124 66.2598 23.3678 66.2598 23.6367V27H65.2617V23.7598C65.2617 23.5365 65.2526 23.3382 65.2344 23.165C65.2207 22.9873 65.1956 22.8324 65.1592 22.7002C65.1273 22.5635 65.084 22.4427 65.0293 22.3379C64.9792 22.2331 64.9154 22.1396 64.8379 22.0576C64.5417 21.7432 64.152 21.5859 63.6689 21.5859C63.0674 21.5859 62.6048 21.7819 62.2812 22.1738C62.0215 22.4883 61.8916 23.0625 61.8916 23.8965V27H60.8936V20.793H61.8916V21.4902ZM70.7236 21.5312C70.0446 21.5312 69.4909 21.8047 69.0625 22.3516C68.7435 22.7526 68.584 23.2653 68.584 23.8896C68.584 24.6188 68.8005 25.1999 69.2334 25.6328C69.6527 26.0521 70.1631 26.2617 70.7646 26.2617C71.471 26.2617 72.0316 25.986 72.4463 25.4346C72.7516 25.029 72.9043 24.5117 72.9043 23.8828C72.9043 23.1764 72.6947 22.6022 72.2754 22.1602C71.8789 21.7409 71.3617 21.5312 70.7236 21.5312ZM73.8955 20.793V27.1162C73.8955 28.0186 73.6517 28.7614 73.1641 29.3447C72.8724 29.6911 72.5078 29.9577 72.0703 30.1445C71.6328 30.3359 71.1589 30.4316 70.6484 30.4316C70.0697 30.4316 69.5592 30.3245 69.1172 30.1104C68.6888 29.9007 68.2581 29.5498 67.8252 29.0576L68.4814 28.4014C68.6364 28.5882 68.7799 28.7432 68.9121 28.8662C69.0488 28.9938 69.1742 29.0941 69.2881 29.167C69.6755 29.4085 70.1266 29.5293 70.6416 29.5293C71.3434 29.5293 71.8949 29.3151 72.2959 28.8867C72.6969 28.4583 72.8975 27.8682 72.8975 27.1162V26.1865C72.3141 26.8382 71.5872 27.1641 70.7168 27.1641C70.1745 27.1641 69.6663 27.0251 69.1924 26.7471C68.682 26.4554 68.2832 26.0498 67.9961 25.5303C67.7181 25.0335 67.5791 24.4889 67.5791 23.8965C67.5791 22.9076 67.93 22.0918 68.6318 21.4492C69.2334 20.9023 69.9284 20.6289 70.7168 20.6289C71.569 20.6289 72.2959 20.957 72.8975 21.6133V20.793H73.8955Z" fill="black"/>
<path d="M27.8145 48V34.6699H29.8457L34.3965 42.7754L38.9473 34.6699H40.9688V48H38.8887V38.5859L35.2168 45.1387H33.5664L29.8945 38.5859V48H27.8145ZM49.7773 42.7852C49.6276 42.2122 49.416 41.7565 49.1426 41.418C48.7259 40.8841 48.1562 40.6172 47.4336 40.6172C46.8216 40.6172 46.3073 40.806 45.8906 41.1836C45.474 41.5612 45.194 42.0951 45.0508 42.7852H49.7773ZM45.0508 44.3281C45.1484 44.7969 45.321 45.2005 45.5684 45.5391C46.0306 46.1576 46.6914 46.4668 47.5508 46.4668C48.0195 46.4668 48.4492 46.3659 48.8398 46.1641C49.237 45.9622 49.5527 45.6823 49.7871 45.3242L49.9629 45.041L51.6816 45.7539C50.6855 47.4336 49.3053 48.2734 47.541 48.2734C46.1738 48.2734 45.0573 47.7819 44.1914 46.7988C43.3971 45.8874 43 44.8066 43 43.5566C43 42.0983 43.5078 40.9036 44.5234 39.9727C45.3372 39.224 46.3008 38.8496 47.4141 38.8496C48.6771 38.8496 49.7285 39.3184 50.5684 40.2559C51.0046 40.7441 51.3236 41.3464 51.5254 42.0625C51.6816 42.6094 51.7598 43.1758 51.7598 43.7617C51.7598 43.8138 51.7598 43.8854 51.7598 43.9766C51.7598 44.0677 51.7565 44.1849 51.75 44.3281H45.0508ZM60.0898 40.0605C60.819 39.2598 61.737 38.8594 62.8438 38.8594C63.8854 38.8594 64.7546 39.1719 65.4512 39.7969C65.8874 40.2005 66.1966 40.6595 66.3789 41.1738C66.5612 41.6947 66.6523 42.3783 66.6523 43.2246V48H64.6602V43.3809C64.6602 42.4824 64.5527 41.8314 64.3379 41.4277C64.071 40.9395 63.6087 40.6953 62.9512 40.6953C62.6191 40.6953 62.3099 40.7702 62.0234 40.9199C61.737 41.0697 61.5254 41.2682 61.3887 41.5156C61.1673 41.9128 61.0566 42.5964 61.0566 43.5664V48H59.0645V43.3809C59.0645 42.4824 58.957 41.8314 58.7422 41.4277C58.4753 40.9395 58.0098 40.6953 57.3457 40.6953C57.0072 40.6953 56.6947 40.7702 56.4082 40.9199C56.1217 41.0697 55.9102 41.2682 55.7734 41.5156C55.5521 41.9193 55.4414 42.6029 55.4414 43.5664V48H53.4492V39.1328H55.4414V39.7773C56.0339 39.1654 56.7402 38.8594 57.5605 38.8594C58.5306 38.8594 59.3737 39.2598 60.0898 40.0605ZM73.4883 40.666C72.7331 40.666 72.1048 40.9362 71.6035 41.4766C71.1348 41.9974 70.9004 42.6908 70.9004 43.5566C70.9004 44.5397 71.1999 45.3014 71.7988 45.8418C72.2611 46.2585 72.8307 46.4668 73.5078 46.4668C74.2695 46.4668 74.9043 46.1901 75.4121 45.6367C75.8874 45.1224 76.125 44.416 76.125 43.5176C76.125 42.6257 75.8581 41.9225 75.3242 41.4082C74.8229 40.9134 74.2109 40.666 73.4883 40.666ZM68.918 48V34.6699H70.9102V39.9043C71.8216 39.2077 72.7331 38.8594 73.6445 38.8594C74.3802 38.8594 75.0931 39.0579 75.7832 39.4551C76.5124 39.8717 77.0885 40.4414 77.5117 41.1641C77.9284 41.8932 78.1367 42.6908 78.1367 43.5566C78.1367 44.9954 77.6191 46.1771 76.584 47.1016C75.7051 47.8828 74.7253 48.2734 73.6445 48.2734C72.7266 48.2734 71.8151 47.9251 70.9102 47.2285V48H68.918ZM86.0469 42.7852C85.8971 42.2122 85.6855 41.7565 85.4121 41.418C84.9954 40.8841 84.4258 40.6172 83.7031 40.6172C83.0911 40.6172 82.5768 40.806 82.1602 41.1836C81.7435 41.5612 81.4635 42.0951 81.3203 42.7852H86.0469ZM81.3203 44.3281C81.418 44.7969 81.5905 45.2005 81.8379 45.5391C82.3001 46.1576 82.9609 46.4668 83.8203 46.4668C84.2891 46.4668 84.7188 46.3659 85.1094 46.1641C85.5065 45.9622 85.8223 45.6823 86.0566 45.3242L86.2324 45.041L87.9512 45.7539C86.9551 47.4336 85.5749 48.2734 83.8105 48.2734C82.4434 48.2734 81.3268 47.7819 80.4609 46.7988C79.6667 45.8874 79.2695 44.8066 79.2695 43.5566C79.2695 42.0983 79.7773 40.9036 80.793 39.9727C81.6068 39.224 82.5703 38.8496 83.6836 38.8496C84.9466 38.8496 85.998 39.3184 86.8379 40.2559C87.2741 40.7441 87.5931 41.3464 87.7949 42.0625C87.9512 42.6094 88.0293 43.1758 88.0293 43.7617C88.0293 43.8138 88.0293 43.8854 88.0293 43.9766C88.0293 44.0677 88.026 44.1849 88.0195 44.3281H81.3203ZM89.7188 39.1328H91.7109V39.8457C92.1016 39.5332 92.4173 39.3314 92.6582 39.2402C92.8991 39.1426 93.2214 39.0938 93.625 39.0938C93.7227 39.0938 93.8301 39.097 93.9473 39.1035C94.071 39.11 94.2077 39.1198 94.3574 39.1328V40.9199C94.1947 40.9134 94.0547 40.9102 93.9375 40.9102C93.8268 40.9036 93.7357 40.9004 93.6641 40.9004C92.8633 40.9004 92.3229 41.1641 92.043 41.6914C91.8216 42.1081 91.7109 42.7884 91.7109 43.7324V48H89.7188V39.1328Z" fill="black"/>
<rect x="128.5" y="0.5" width="119" height="63" rx="9.5" fill="#FFF2B0" stroke="#DBDBDB"/>
<path d="M146.575 79.0459C146.584 79.0413 146.605 79.0345 146.637 79.0254C146.669 79.0117 146.71 78.9958 146.76 78.9775C147.024 78.8864 147.32 78.8408 147.648 78.8408C148.1 78.8408 148.542 78.9365 148.975 79.1279C149.403 79.3285 149.758 79.5951 150.041 79.9277C150.529 80.4974 150.772 81.1742 150.772 81.958C150.772 82.915 150.422 83.7103 149.72 84.3438C149.123 84.8906 148.407 85.1641 147.573 85.1641C146.748 85.1641 146.026 84.8997 145.406 84.3711C145.192 84.1888 144.96 83.9017 144.709 83.5098L145.529 82.9219C145.652 83.1816 145.798 83.3958 145.967 83.5645C146.4 83.9974 146.926 84.2139 147.546 84.2139C148.161 84.2139 148.681 83.9974 149.104 83.5645C149.524 83.1361 149.733 82.6188 149.733 82.0127C149.733 81.3701 149.533 80.8392 149.132 80.4199C148.713 79.9824 148.191 79.7637 147.566 79.7637C147.43 79.7637 147.291 79.7796 147.149 79.8115C147.008 79.8389 146.871 79.8799 146.739 79.9346C146.612 79.9847 146.493 80.0485 146.384 80.126C146.274 80.1989 146.179 80.2809 146.097 80.3721L145.29 80.1943L146.206 75.6689H150.308V76.6328H147.061L146.575 79.0459ZM155.448 76.4619C153.853 76.4619 153.056 77.7699 153.056 80.3857C153.056 81.4886 153.224 82.3841 153.562 83.0723C153.935 83.8288 154.562 84.207 155.441 84.207C157.032 84.207 157.827 82.915 157.827 80.3311C157.827 77.7516 157.034 76.4619 155.448 76.4619ZM151.996 80.2695C151.996 77.0931 153.145 75.5049 155.441 75.5049C157.738 75.5049 158.887 77.1159 158.887 80.3379C158.887 83.5553 157.741 85.1641 155.448 85.1641C154.131 85.1641 153.204 84.665 152.666 83.667C152.219 82.8512 151.996 81.7188 151.996 80.2695ZM163.46 76.4619C161.865 76.4619 161.067 77.7699 161.067 80.3857C161.067 81.4886 161.236 82.3841 161.573 83.0723C161.947 83.8288 162.574 84.207 163.453 84.207C165.044 84.207 165.839 82.915 165.839 80.3311C165.839 77.7516 165.046 76.4619 163.46 76.4619ZM160.008 80.2695C160.008 77.0931 161.156 75.5049 163.453 75.5049C165.75 75.5049 166.898 77.1159 166.898 80.3379C166.898 83.5553 165.752 85.1641 163.46 85.1641C162.143 85.1641 161.215 84.665 160.678 83.667C160.231 82.8512 160.008 81.7188 160.008 80.2695ZM171.472 81.3291H174.015V82.2246H171.472V81.3291ZM181.862 76.4551C181.261 76.4551 180.75 76.6715 180.331 77.1045C179.921 77.5283 179.716 78.0501 179.716 78.6699C179.716 79.2487 179.912 79.7386 180.304 80.1396C180.718 80.5452 181.236 80.748 181.855 80.748C182.448 80.748 182.951 80.5452 183.366 80.1396C183.776 79.7295 183.981 79.2259 183.981 78.6289C183.981 78.0182 183.783 77.5101 183.387 77.1045C182.967 76.6715 182.459 76.4551 181.862 76.4551ZM181.199 85.1709L180.406 84.5762L182.519 81.5889C182.259 81.6436 182.022 81.6709 181.808 81.6709C180.814 81.6709 180.014 81.3291 179.408 80.6455C178.93 80.1077 178.69 79.4583 178.69 78.6973C178.69 77.7493 179.035 76.9587 179.723 76.3252C180.311 75.7783 181.015 75.5049 181.835 75.5049C182.76 75.5049 183.535 75.8398 184.159 76.5098C184.724 77.1159 185.007 77.8405 185.007 78.6836C185.007 79.4219 184.77 80.1283 184.296 80.8027L181.199 85.1709ZM189.491 76.4551C188.89 76.4551 188.379 76.6715 187.96 77.1045C187.55 77.5283 187.345 78.0501 187.345 78.6699C187.345 79.2487 187.541 79.7386 187.933 80.1396C188.347 80.5452 188.865 80.748 189.484 80.748C190.077 80.748 190.58 80.5452 190.995 80.1396C191.405 79.7295 191.61 79.2259 191.61 78.6289C191.61 78.0182 191.412 77.5101 191.016 77.1045C190.596 76.6715 190.088 76.4551 189.491 76.4551ZM188.828 85.1709L188.035 84.5762L190.147 81.5889C189.888 81.6436 189.651 81.6709 189.437 81.6709C188.443 81.6709 187.643 81.3291 187.037 80.6455C186.559 80.1077 186.319 79.4583 186.319 78.6973C186.319 77.7493 186.663 76.9587 187.352 76.3252C187.939 75.7783 188.644 75.5049 189.464 75.5049C190.389 75.5049 191.164 75.8398 191.788 76.5098C192.353 77.1159 192.636 77.8405 192.636 78.6836C192.636 79.4219 192.399 80.1283 191.925 80.8027L188.828 85.1709ZM197.12 76.4551C196.519 76.4551 196.008 76.6715 195.589 77.1045C195.179 77.5283 194.974 78.0501 194.974 78.6699C194.974 79.2487 195.17 79.7386 195.562 80.1396C195.976 80.5452 196.493 80.748 197.113 80.748C197.706 80.748 198.209 80.5452 198.624 80.1396C199.034 79.7295 199.239 79.2259 199.239 78.6289C199.239 78.0182 199.041 77.5101 198.645 77.1045C198.225 76.6715 197.717 76.4551 197.12 76.4551ZM196.457 85.1709L195.664 84.5762L197.776 81.5889C197.517 81.6436 197.28 81.6709 197.065 81.6709C196.072 81.6709 195.272 81.3291 194.666 80.6455C194.188 80.1077 193.948 79.4583 193.948 78.6973C193.948 77.7493 194.292 76.9587 194.98 76.3252C195.568 75.7783 196.272 75.5049 197.093 75.5049C198.018 75.5049 198.793 75.8398 199.417 76.5098C199.982 77.1159 200.265 77.8405 200.265 78.6836C200.265 79.4219 200.028 80.1283 199.554 80.8027L196.457 85.1709ZM208.044 79.5312C207.365 79.5312 206.811 79.8047 206.383 80.3516C206.064 80.7526 205.904 81.2653 205.904 81.8896C205.904 82.6188 206.121 83.1999 206.554 83.6328C206.973 84.0521 207.483 84.2617 208.085 84.2617C208.791 84.2617 209.35 83.986 209.76 83.4346C210.065 83.029 210.218 82.5117 210.218 81.8828C210.218 81.1673 210.01 80.5931 209.596 80.1602C209.199 79.7409 208.682 79.5312 208.044 79.5312ZM210.218 76.8105V75.6689H211.216V76.8105H212.057V77.7129H211.216V85H210.218V84.1865C209.634 84.8382 208.908 85.1641 208.037 85.1641C207.49 85.1641 206.982 85.0251 206.513 84.7471C206.002 84.4554 205.604 84.0498 205.316 83.5303C205.038 83.0335 204.899 82.4889 204.899 81.8965C204.899 80.9076 205.25 80.0918 205.952 79.4492C206.554 78.9023 207.249 78.6289 208.037 78.6289C208.889 78.6289 209.616 78.957 210.218 79.6133V77.7129H208.536V76.8105H210.218ZM213.219 76.0723C213.31 76.0358 213.403 76.0176 213.499 76.0176C213.595 76.0176 213.686 76.0358 213.772 76.0723C213.859 76.1087 213.934 76.1611 213.998 76.2295C214.066 76.2933 214.119 76.3685 214.155 76.4551C214.192 76.5417 214.21 76.6328 214.21 76.7285C214.21 76.9336 214.142 77.1045 214.005 77.2412C213.868 77.3779 213.697 77.4463 213.492 77.4463C213.396 77.4463 213.305 77.4281 213.219 77.3916C213.132 77.3506 213.055 77.2982 212.986 77.2344C212.923 77.1706 212.872 77.0954 212.836 77.0088C212.799 76.9176 212.781 76.8219 212.781 76.7217C212.781 76.626 212.799 76.5371 212.836 76.4551C212.877 76.3685 212.929 76.2933 212.993 76.2295C213.057 76.1611 213.132 76.1087 213.219 76.0723ZM213.991 78.793V85H212.993V78.793H213.991ZM219.74 76.3594C219.745 76.168 219.809 75.9834 219.932 75.8057L220.062 75.6143C220.194 75.4274 220.26 75.2884 220.26 75.1973C220.26 74.974 220.105 74.8623 219.795 74.8623C219.654 74.8623 219.48 74.8988 219.275 74.9717L218.995 74.2607C219.323 74.1331 219.629 74.0693 219.911 74.0693C220.294 74.0693 220.599 74.1559 220.827 74.3291C221.055 74.5023 221.169 74.7324 221.169 75.0195C221.169 75.2428 221.096 75.4684 220.95 75.6963L220.731 76.0312C220.668 76.1361 220.636 76.2454 220.636 76.3594H219.74ZM218.79 75.9014L220.396 77.665L219.679 78.0273L218.387 76.8105L217.102 78.0273L216.384 77.665L217.997 75.9014H218.79ZM220.355 81.4658C220.337 81.3337 220.312 81.2129 220.28 81.1035C220.253 80.9896 220.221 80.887 220.185 80.7959C220.016 80.3857 219.765 80.0667 219.433 79.8389C219.123 79.6338 218.776 79.5312 218.394 79.5312C217.874 79.5312 217.432 79.7067 217.067 80.0576C216.712 80.3994 216.489 80.8688 216.397 81.4658H220.355ZM216.397 82.3203C216.416 82.4388 216.438 82.555 216.466 82.6689C216.493 82.7783 216.53 82.8854 216.575 82.9902C216.744 83.3958 217.006 83.7148 217.361 83.9473C217.68 84.1569 218.045 84.2617 218.455 84.2617C219.294 84.2617 219.923 83.8949 220.342 83.1611L221.23 83.5371C220.925 84.0703 220.535 84.4759 220.062 84.7539C219.588 85.0273 219.054 85.1641 218.462 85.1641C217.509 85.1641 216.737 84.8063 216.145 84.0908C215.63 83.471 215.372 82.7327 215.372 81.876C215.372 81.2972 215.502 80.7572 215.762 80.2559C216.044 79.7363 216.425 79.3307 216.903 79.0391C217.359 78.7656 217.854 78.6289 218.387 78.6289C219.257 78.6289 219.968 78.9456 220.52 79.5791C221.076 80.2171 221.354 81.0283 221.354 82.0127C221.354 82.0446 221.354 82.0856 221.354 82.1357C221.354 82.1859 221.351 82.2474 221.347 82.3203H216.397ZM227.376 79.6543C227.882 78.9661 228.559 78.6221 229.406 78.6221C230.249 78.6221 230.91 78.916 231.389 79.5039C231.648 79.8229 231.812 80.1738 231.881 80.5566C231.913 80.7161 231.936 80.8848 231.949 81.0625C231.963 81.2402 231.97 81.4316 231.97 81.6367V85H230.972V81.7598C230.972 80.9395 230.842 80.3743 230.582 80.0645C230.318 79.7454 229.958 79.5859 229.502 79.5859C228.941 79.5859 228.513 79.7819 228.217 80.1738C227.98 80.4837 227.861 81.0579 227.861 81.8965V85H226.863V81.7598C226.863 80.9395 226.733 80.3743 226.474 80.0645C226.209 79.7454 225.845 79.5859 225.38 79.5859C224.815 79.5859 224.384 79.7819 224.088 80.1738C223.846 80.4928 223.726 81.0671 223.726 81.8965V85H222.728V78.793H223.726V79.4902C224.154 78.916 224.737 78.6289 225.476 78.6289C226.278 78.6289 226.911 78.9707 227.376 79.6543Z" fill="black"/>
<path d="M150.729 102.046C150.738 102.041 150.758 102.035 150.79 102.025C150.822 102.012 150.863 101.996 150.913 101.978C151.177 101.886 151.474 101.841 151.802 101.841C152.253 101.841 152.695 101.937 153.128 102.128C153.556 102.328 153.912 102.595 154.194 102.928C154.682 103.497 154.926 104.174 154.926 104.958C154.926 105.915 154.575 106.71 153.873 107.344C153.276 107.891 152.561 108.164 151.727 108.164C150.902 108.164 150.179 107.9 149.56 107.371C149.345 107.189 149.113 106.902 148.862 106.51L149.683 105.922C149.806 106.182 149.951 106.396 150.12 106.564C150.553 106.997 151.079 107.214 151.699 107.214C152.314 107.214 152.834 106.997 153.258 106.564C153.677 106.136 153.887 105.619 153.887 105.013C153.887 104.37 153.686 103.839 153.285 103.42C152.866 102.982 152.344 102.764 151.72 102.764C151.583 102.764 151.444 102.78 151.303 102.812C151.161 102.839 151.025 102.88 150.893 102.935C150.765 102.985 150.646 103.049 150.537 103.126C150.428 103.199 150.332 103.281 150.25 103.372L149.443 103.194L150.359 98.6689H154.461V99.6328H151.214L150.729 102.046ZM159.602 99.4619C158.007 99.4619 157.209 100.77 157.209 103.386C157.209 104.489 157.378 105.384 157.715 106.072C158.089 106.829 158.715 107.207 159.595 107.207C161.185 107.207 161.98 105.915 161.98 103.331C161.98 100.752 161.188 99.4619 159.602 99.4619ZM156.149 103.27C156.149 100.093 157.298 98.5049 159.595 98.5049C161.892 98.5049 163.04 100.116 163.04 103.338C163.04 106.555 161.894 108.164 159.602 108.164C158.285 108.164 157.357 107.665 156.819 106.667C156.373 105.851 156.149 104.719 156.149 103.27ZM164.92 106.811C165.002 106.774 165.091 106.756 165.187 106.756C165.282 106.756 165.371 106.774 165.453 106.811C165.54 106.847 165.613 106.897 165.672 106.961C165.736 107.02 165.786 107.093 165.822 107.18C165.859 107.262 165.877 107.351 165.877 107.446C165.877 107.542 165.859 107.633 165.822 107.72C165.786 107.802 165.736 107.875 165.672 107.938C165.613 107.998 165.54 108.046 165.453 108.082C165.371 108.118 165.282 108.137 165.187 108.137C165.091 108.137 165 108.118 164.913 108.082C164.831 108.046 164.758 107.995 164.694 107.932C164.635 107.868 164.587 107.795 164.551 107.713C164.514 107.626 164.496 107.535 164.496 107.439C164.496 107.344 164.514 107.255 164.551 107.173C164.587 107.091 164.637 107.02 164.701 106.961C164.765 106.897 164.838 106.847 164.92 106.811ZM170.785 99.4619C169.19 99.4619 168.393 100.77 168.393 103.386C168.393 104.489 168.561 105.384 168.898 106.072C169.272 106.829 169.899 107.207 170.778 107.207C172.369 107.207 173.164 105.915 173.164 103.331C173.164 100.752 172.371 99.4619 170.785 99.4619ZM167.333 103.27C167.333 100.093 168.481 98.5049 170.778 98.5049C173.075 98.5049 174.224 100.116 174.224 103.338C174.224 106.555 173.077 108.164 170.785 108.164C169.468 108.164 168.541 107.665 168.003 106.667C167.556 105.851 167.333 104.719 167.333 103.27ZM178.797 99.4619C177.202 99.4619 176.404 100.77 176.404 103.386C176.404 104.489 176.573 105.384 176.91 106.072C177.284 106.829 177.91 107.207 178.79 107.207C180.381 107.207 181.176 105.915 181.176 103.331C181.176 100.752 180.383 99.4619 178.797 99.4619ZM175.345 103.27C175.345 100.093 176.493 98.5049 178.79 98.5049C181.087 98.5049 182.235 100.116 182.235 103.338C182.235 106.555 181.089 108.164 178.797 108.164C177.48 108.164 176.552 107.665 176.015 106.667C175.568 105.851 175.345 104.719 175.345 103.27ZM186.809 99.4619C185.214 99.4619 184.416 100.77 184.416 103.386C184.416 104.489 184.585 105.384 184.922 106.072C185.296 106.829 185.922 107.207 186.802 107.207C188.392 107.207 189.188 105.915 189.188 103.331C189.188 100.752 188.395 99.4619 186.809 99.4619ZM183.356 103.27C183.356 100.093 184.505 98.5049 186.802 98.5049C189.099 98.5049 190.247 100.116 190.247 103.338C190.247 106.555 189.101 108.164 186.809 108.164C185.492 108.164 184.564 107.665 184.026 106.667C183.58 105.851 183.356 104.719 183.356 103.27ZM192.127 106.811C192.209 106.774 192.298 106.756 192.394 106.756C192.489 106.756 192.578 106.774 192.66 106.811C192.747 106.847 192.82 106.897 192.879 106.961C192.943 107.02 192.993 107.093 193.029 107.18C193.066 107.262 193.084 107.351 193.084 107.446C193.084 107.542 193.066 107.633 193.029 107.72C192.993 107.802 192.943 107.875 192.879 107.938C192.82 107.998 192.747 108.046 192.66 108.082C192.578 108.118 192.489 108.137 192.394 108.137C192.298 108.137 192.207 108.118 192.12 108.082C192.038 108.046 191.965 107.995 191.901 107.932C191.842 107.868 191.794 107.795 191.758 107.713C191.721 107.626 191.703 107.535 191.703 107.439C191.703 107.344 191.721 107.255 191.758 107.173C191.794 107.091 191.844 107.02 191.908 106.961C191.972 106.897 192.045 106.847 192.127 106.811ZM197.992 99.4619C196.397 99.4619 195.6 100.77 195.6 103.386C195.6 104.489 195.768 105.384 196.105 106.072C196.479 106.829 197.106 107.207 197.985 107.207C199.576 107.207 200.371 105.915 200.371 103.331C200.371 100.752 199.578 99.4619 197.992 99.4619ZM194.54 103.27C194.54 100.093 195.688 98.5049 197.985 98.5049C200.282 98.5049 201.431 100.116 201.431 103.338C201.431 106.555 200.285 108.164 197.992 108.164C196.675 108.164 195.748 107.665 195.21 106.667C194.763 105.851 194.54 104.719 194.54 103.27ZM206.004 99.4619C204.409 99.4619 203.611 100.77 203.611 103.386C203.611 104.489 203.78 105.384 204.117 106.072C204.491 106.829 205.118 107.207 205.997 107.207C207.588 107.207 208.383 105.915 208.383 103.331C208.383 100.752 207.59 99.4619 206.004 99.4619ZM202.552 103.27C202.552 100.093 203.7 98.5049 205.997 98.5049C208.294 98.5049 209.442 100.116 209.442 103.338C209.442 106.555 208.296 108.164 206.004 108.164C204.687 108.164 203.759 107.665 203.222 106.667C202.775 105.851 202.552 104.719 202.552 103.27ZM214.016 99.4619C212.421 99.4619 211.623 100.77 211.623 103.386C211.623 104.489 211.792 105.384 212.129 106.072C212.503 106.829 213.129 107.207 214.009 107.207C215.599 107.207 216.395 105.915 216.395 103.331C216.395 100.752 215.602 99.4619 214.016 99.4619ZM210.563 103.27C210.563 100.093 211.712 98.5049 214.009 98.5049C216.306 98.5049 217.454 100.116 217.454 103.338C217.454 106.555 216.308 108.164 214.016 108.164C212.699 108.164 211.771 107.665 211.233 106.667C210.787 105.851 210.563 104.719 210.563 103.27ZM221.645 102.531C220.965 102.531 220.412 102.805 219.983 103.352C219.664 103.753 219.505 104.265 219.505 104.89C219.505 105.619 219.721 106.2 220.154 106.633C220.574 107.052 221.084 107.262 221.686 107.262C222.392 107.262 222.95 106.986 223.36 106.435C223.666 106.029 223.818 105.512 223.818 104.883C223.818 104.167 223.611 103.593 223.196 103.16C222.8 102.741 222.283 102.531 221.645 102.531ZM223.818 99.8105V98.6689H224.816V99.8105H225.657V100.713H224.816V108H223.818V107.187C223.235 107.838 222.508 108.164 221.638 108.164C221.091 108.164 220.583 108.025 220.113 107.747C219.603 107.455 219.204 107.05 218.917 106.53C218.639 106.034 218.5 105.489 218.5 104.896C218.5 103.908 218.851 103.092 219.553 102.449C220.154 101.902 220.849 101.629 221.638 101.629C222.49 101.629 223.217 101.957 223.818 102.613V100.713H222.137V99.8105H223.818ZM152.349 115.455C151.747 115.455 151.237 115.672 150.817 116.104C150.407 116.528 150.202 117.05 150.202 117.67C150.202 118.249 150.398 118.739 150.79 119.14C151.205 119.545 151.722 119.748 152.342 119.748C152.934 119.748 153.438 119.545 153.853 119.14C154.263 118.729 154.468 118.226 154.468 117.629C154.468 117.018 154.27 116.51 153.873 116.104C153.454 115.672 152.946 115.455 152.349 115.455ZM151.686 124.171L150.893 123.576L153.005 120.589C152.745 120.644 152.508 120.671 152.294 120.671C151.3 120.671 150.501 120.329 149.895 119.646C149.416 119.108 149.177 118.458 149.177 117.697C149.177 116.749 149.521 115.959 150.209 115.325C150.797 114.778 151.501 114.505 152.321 114.505C153.246 114.505 154.021 114.84 154.646 115.51C155.211 116.116 155.493 116.84 155.493 117.684C155.493 118.422 155.256 119.128 154.782 119.803L151.686 124.171ZM159.978 115.455C159.376 115.455 158.866 115.672 158.446 116.104C158.036 116.528 157.831 117.05 157.831 117.67C157.831 118.249 158.027 118.739 158.419 119.14C158.834 119.545 159.351 119.748 159.971 119.748C160.563 119.748 161.067 119.545 161.481 119.14C161.892 118.729 162.097 118.226 162.097 117.629C162.097 117.018 161.898 116.51 161.502 116.104C161.083 115.672 160.575 115.455 159.978 115.455ZM159.314 124.171L158.521 123.576L160.634 120.589C160.374 120.644 160.137 120.671 159.923 120.671C158.929 120.671 158.13 120.329 157.523 119.646C157.045 119.108 156.806 118.458 156.806 117.697C156.806 116.749 157.15 115.959 157.838 115.325C158.426 114.778 159.13 114.505 159.95 114.505C160.875 114.505 161.65 114.84 162.274 115.51C162.84 116.116 163.122 116.84 163.122 117.684C163.122 118.422 162.885 119.128 162.411 119.803L159.314 124.171ZM165.091 122.811C165.173 122.774 165.262 122.756 165.357 122.756C165.453 122.756 165.542 122.774 165.624 122.811C165.711 122.847 165.784 122.897 165.843 122.961C165.907 123.02 165.957 123.093 165.993 123.18C166.03 123.262 166.048 123.351 166.048 123.446C166.048 123.542 166.03 123.633 165.993 123.72C165.957 123.802 165.907 123.875 165.843 123.938C165.784 123.998 165.711 124.046 165.624 124.082C165.542 124.118 165.453 124.137 165.357 124.137C165.262 124.137 165.171 124.118 165.084 124.082C165.002 124.046 164.929 123.995 164.865 123.932C164.806 123.868 164.758 123.795 164.722 123.713C164.685 123.626 164.667 123.535 164.667 123.439C164.667 123.344 164.685 123.255 164.722 123.173C164.758 123.091 164.808 123.02 164.872 122.961C164.936 122.897 165.009 122.847 165.091 122.811ZM170.778 115.455C170.177 115.455 169.666 115.672 169.247 116.104C168.837 116.528 168.632 117.05 168.632 117.67C168.632 118.249 168.828 118.739 169.22 119.14C169.634 119.545 170.152 119.748 170.771 119.748C171.364 119.748 171.868 119.545 172.282 119.14C172.692 118.729 172.897 118.226 172.897 117.629C172.897 117.018 172.699 116.51 172.303 116.104C171.883 115.672 171.375 115.455 170.778 115.455ZM170.115 124.171L169.322 123.576L171.435 120.589C171.175 120.644 170.938 120.671 170.724 120.671C169.73 120.671 168.93 120.329 168.324 119.646C167.846 119.108 167.606 118.458 167.606 117.697C167.606 116.749 167.951 115.959 168.639 115.325C169.227 114.778 169.931 114.505 170.751 114.505C171.676 114.505 172.451 114.84 173.075 115.51C173.64 116.116 173.923 116.84 173.923 117.684C173.923 118.422 173.686 119.128 173.212 119.803L170.115 124.171ZM178.585 115.462C176.99 115.462 176.192 116.77 176.192 119.386C176.192 120.489 176.361 121.384 176.698 122.072C177.072 122.829 177.699 123.207 178.578 123.207C180.169 123.207 180.964 121.915 180.964 119.331C180.964 116.752 180.171 115.462 178.585 115.462ZM175.133 119.27C175.133 116.093 176.281 114.505 178.578 114.505C180.875 114.505 182.023 116.116 182.023 119.338C182.023 122.555 180.877 124.164 178.585 124.164C177.268 124.164 176.34 123.665 175.803 122.667C175.356 121.851 175.133 120.719 175.133 119.27ZM186.597 115.462C185.002 115.462 184.204 116.77 184.204 119.386C184.204 120.489 184.373 121.384 184.71 122.072C185.084 122.829 185.71 123.207 186.59 123.207C188.18 123.207 188.976 121.915 188.976 119.331C188.976 116.752 188.183 115.462 186.597 115.462ZM183.145 119.27C183.145 116.093 184.293 114.505 186.59 114.505C188.887 114.505 190.035 116.116 190.035 119.338C190.035 122.555 188.889 124.164 186.597 124.164C185.28 124.164 184.352 123.665 183.814 122.667C183.368 121.851 183.145 120.719 183.145 119.27ZM191.915 122.811C191.997 122.774 192.086 122.756 192.182 122.756C192.277 122.756 192.366 122.774 192.448 122.811C192.535 122.847 192.608 122.897 192.667 122.961C192.731 123.02 192.781 123.093 192.817 123.18C192.854 123.262 192.872 123.351 192.872 123.446C192.872 123.542 192.854 123.633 192.817 123.72C192.781 123.802 192.731 123.875 192.667 123.938C192.608 123.998 192.535 124.046 192.448 124.082C192.366 124.118 192.277 124.137 192.182 124.137C192.086 124.137 191.995 124.118 191.908 124.082C191.826 124.046 191.753 123.995 191.689 123.932C191.63 123.868 191.582 123.795 191.546 123.713C191.509 123.626 191.491 123.535 191.491 123.439C191.491 123.344 191.509 123.255 191.546 123.173C191.582 123.091 191.632 123.02 191.696 122.961C191.76 122.897 191.833 122.847 191.915 122.811ZM197.78 115.462C196.185 115.462 195.388 116.77 195.388 119.386C195.388 120.489 195.556 121.384 195.894 122.072C196.267 122.829 196.894 123.207 197.773 123.207C199.364 123.207 200.159 121.915 200.159 119.331C200.159 116.752 199.366 115.462 197.78 115.462ZM194.328 119.27C194.328 116.093 195.477 114.505 197.773 114.505C200.07 114.505 201.219 116.116 201.219 119.338C201.219 122.555 200.073 124.164 197.78 124.164C196.463 124.164 195.536 123.665 194.998 122.667C194.551 121.851 194.328 120.719 194.328 119.27ZM205.792 115.462C204.197 115.462 203.399 116.77 203.399 119.386C203.399 120.489 203.568 121.384 203.905 122.072C204.279 122.829 204.906 123.207 205.785 123.207C207.376 123.207 208.171 121.915 208.171 119.331C208.171 116.752 207.378 115.462 205.792 115.462ZM202.34 119.27C202.34 116.093 203.488 114.505 205.785 114.505C208.082 114.505 209.23 116.116 209.23 119.338C209.23 122.555 208.084 124.164 205.792 124.164C204.475 124.164 203.548 123.665 203.01 122.667C202.563 121.851 202.34 120.719 202.34 119.27ZM213.804 115.462C212.209 115.462 211.411 116.77 211.411 119.386C211.411 120.489 211.58 121.384 211.917 122.072C212.291 122.829 212.917 123.207 213.797 123.207C215.387 123.207 216.183 121.915 216.183 119.331C216.183 116.752 215.39 115.462 213.804 115.462ZM210.352 119.27C210.352 116.093 211.5 114.505 213.797 114.505C216.094 114.505 217.242 116.116 217.242 119.338C217.242 122.555 216.096 124.164 213.804 124.164C212.487 124.164 211.559 123.665 211.021 122.667C210.575 121.851 210.352 120.719 210.352 119.27ZM221.433 118.531C220.754 118.531 220.2 118.805 219.771 119.352C219.452 119.753 219.293 120.265 219.293 120.89C219.293 121.619 219.509 122.2 219.942 122.633C220.362 123.052 220.872 123.262 221.474 123.262C222.18 123.262 222.738 122.986 223.148 122.435C223.454 122.029 223.606 121.512 223.606 120.883C223.606 120.167 223.399 119.593 222.984 119.16C222.588 118.741 222.071 118.531 221.433 118.531ZM223.606 115.811V114.669H224.604V115.811H225.445V116.713H224.604V124H223.606V123.187C223.023 123.838 222.296 124.164 221.426 124.164C220.879 124.164 220.371 124.025 219.901 123.747C219.391 123.455 218.992 123.05 218.705 122.53C218.427 122.034 218.288 121.489 218.288 120.896C218.288 119.908 218.639 119.092 219.341 118.449C219.942 117.902 220.637 117.629 221.426 117.629C222.278 117.629 223.005 117.957 223.606 118.613V116.713H221.925V115.811H223.606Z" fill="black"/>
<path d="M173.39 21.7842H178.161V17.6689H179.207V27H178.161V22.7549H173.39V27H172.344V17.6689H173.39V21.7842ZM183.869 27.8955C183.956 27.859 184.047 27.8408 184.143 27.8408C184.238 27.8408 184.329 27.859 184.416 27.8955C184.503 27.932 184.578 27.9821 184.642 28.0459C184.705 28.1097 184.756 28.1826 184.792 28.2646C184.828 28.3512 184.847 28.4424 184.847 28.5381C184.847 28.6338 184.828 28.7249 184.792 28.8115C184.756 28.8981 184.705 28.9733 184.642 29.0371C184.578 29.1009 184.503 29.151 184.416 29.1875C184.329 29.224 184.238 29.2422 184.143 29.2422C184.047 29.2422 183.956 29.224 183.869 29.1875C183.783 29.151 183.707 29.1009 183.644 29.0371C183.584 28.9733 183.536 28.8981 183.5 28.8115C183.464 28.7249 183.445 28.6315 183.445 28.5312C183.445 28.4355 183.464 28.3467 183.5 28.2646C183.536 28.1826 183.587 28.1097 183.65 28.0459C183.714 27.9821 183.787 27.932 183.869 27.8955ZM183.958 21.5312C183.279 21.5312 182.725 21.8047 182.297 22.3516C181.978 22.7526 181.818 23.2653 181.818 23.8896C181.818 24.6188 182.035 25.1999 182.468 25.6328C182.887 26.0521 183.397 26.2617 183.999 26.2617C184.71 26.2617 185.273 25.986 185.688 25.4346C185.997 25.0199 186.152 24.5026 186.152 23.8828C186.152 23.1764 185.943 22.6022 185.523 22.1602C185.118 21.7409 184.596 21.5312 183.958 21.5312ZM187.13 27H186.132V26.1865C185.549 26.8382 184.822 27.1641 183.951 27.1641C183.409 27.1641 182.901 27.0251 182.427 26.7471C181.916 26.4554 181.518 26.0498 181.23 25.5303C180.952 25.0335 180.813 24.4889 180.813 23.8965C180.813 22.9076 181.164 22.0918 181.866 21.4492C182.468 20.9023 183.163 20.6289 183.951 20.6289C184.803 20.6289 185.53 20.957 186.132 21.6133V20.793H187.13V27ZM189.892 21.4902C190.347 20.916 190.969 20.6289 191.758 20.6289C192.519 20.6289 193.139 20.891 193.617 21.415C193.731 21.5381 193.829 21.6725 193.911 21.8184C193.993 21.9642 194.059 22.1283 194.109 22.3105C194.16 22.4883 194.196 22.6865 194.219 22.9053C194.246 23.124 194.26 23.3678 194.26 23.6367V27H193.262V23.7598C193.262 23.5365 193.253 23.3382 193.234 23.165C193.221 22.9873 193.196 22.8324 193.159 22.7002C193.127 22.5635 193.084 22.4427 193.029 22.3379C192.979 22.2331 192.915 22.1396 192.838 22.0576C192.542 21.7432 192.152 21.5859 191.669 21.5859C191.067 21.5859 190.605 21.7819 190.281 22.1738C190.021 22.4883 189.892 23.0625 189.892 23.8965V27H188.894V20.793H189.892V21.4902ZM198.724 21.5312C198.045 21.5312 197.491 21.8047 197.062 22.3516C196.743 22.7526 196.584 23.2653 196.584 23.8896C196.584 24.6188 196.8 25.1999 197.233 25.6328C197.653 26.0521 198.163 26.2617 198.765 26.2617C199.471 26.2617 200.032 25.986 200.446 25.4346C200.752 25.029 200.904 24.5117 200.904 23.8828C200.904 23.1764 200.695 22.6022 200.275 22.1602C199.879 21.7409 199.362 21.5312 198.724 21.5312ZM201.896 20.793V27.1162C201.896 28.0186 201.652 28.7614 201.164 29.3447C200.872 29.6911 200.508 29.9577 200.07 30.1445C199.633 30.3359 199.159 30.4316 198.648 30.4316C198.07 30.4316 197.559 30.3245 197.117 30.1104C196.689 29.9007 196.258 29.5498 195.825 29.0576L196.481 28.4014C196.636 28.5882 196.78 28.7432 196.912 28.8662C197.049 28.9938 197.174 29.0941 197.288 29.167C197.675 29.4085 198.127 29.5293 198.642 29.5293C199.343 29.5293 199.895 29.3151 200.296 28.8867C200.697 28.4583 200.897 27.8682 200.897 27.1162V26.1865C200.314 26.8382 199.587 27.1641 198.717 27.1641C198.174 27.1641 197.666 27.0251 197.192 26.7471C196.682 26.4554 196.283 26.0498 195.996 25.5303C195.718 25.0335 195.579 24.4889 195.579 23.8965C195.579 22.9076 195.93 22.0918 196.632 21.4492C197.233 20.9023 197.928 20.6289 198.717 20.6289C199.569 20.6289 200.296 20.957 200.897 21.6133V20.793H201.896Z" fill="black"/>
<path d="M175.148 34.6699H177.316L180.793 45.1777L184.279 34.6699H186.438L182.004 48H179.582L175.148 34.6699ZM189.943 34.6699V48H187.863V34.6699H189.943ZM194.963 40.959H196.008C196.978 40.959 197.648 40.7441 198.02 40.3145C198.371 39.9173 198.547 39.3932 198.547 38.7422C198.547 37.8438 198.231 37.2188 197.6 36.8672C197.242 36.6654 196.711 36.5645 196.008 36.5645H194.963V40.959ZM192.883 34.6699H195.842C197.072 34.6699 198.016 34.8587 198.674 35.2363C199.247 35.5553 199.696 36.0078 200.021 36.5938C200.399 37.2448 200.588 37.9609 200.588 38.7422C200.588 39.8359 200.249 40.7702 199.572 41.5449C199.149 42.0072 198.654 42.3392 198.088 42.541C197.521 42.7428 196.773 42.8438 195.842 42.8438H194.963V48H192.883V34.6699Z" fill="black"/>
<rect x="257.5" y="0.5" width="119" height="63" rx="9.5" fill="#FFC671" stroke="#DBDBDB"/>
<path d="M281.453 79.6953V83.1338C281.453 83.8219 281.686 84.166 282.15 84.166C282.264 84.166 282.406 84.1432 282.574 84.0977V85C282.342 85.0638 282.137 85.0957 281.959 85.0957C280.956 85.0957 280.455 84.4417 280.455 83.1338V79.6953H279.758V78.793H280.455V77.3232L281.453 76.9268V78.793H282.485V79.6953H281.453ZM284.646 76.0312L285.63 75.5049L287.024 77.4326L286.396 77.7949L284.646 76.0312ZM289.15 80.0781C289.542 79.8503 289.738 79.5449 289.738 79.1621C289.738 78.7702 289.542 78.4056 289.15 78.0684L289.848 77.7197C290.367 78.098 290.627 78.5879 290.627 79.1895C290.627 79.5768 290.497 79.9323 290.237 80.2559C289.982 80.5794 289.62 80.8392 289.15 81.0352V85H288.152V84.3027C287.692 84.877 287.07 85.1641 286.286 85.1641C285.525 85.1641 284.905 84.902 284.427 84.3779C284.313 84.2549 284.215 84.1204 284.133 83.9746C284.051 83.8288 283.985 83.667 283.935 83.4893C283.884 83.307 283.846 83.1064 283.818 82.8877C283.796 82.6689 283.784 82.4251 283.784 82.1562V78.793H284.782V82.04C284.782 82.2633 284.789 82.4616 284.803 82.6348C284.821 82.8079 284.846 82.9629 284.878 83.0996C284.914 83.2318 284.958 83.3503 285.008 83.4551C285.062 83.5599 285.129 83.6533 285.206 83.7354C285.493 84.0498 285.883 84.207 286.375 84.207C286.977 84.207 287.439 84.0111 287.763 83.6191C288.022 83.3047 288.152 82.7305 288.152 81.8965V78.793H289.15V80.0781ZM297.463 85H296.424V76.8379L294.954 77.6855L294.476 76.8516L296.52 75.6689H297.463V85ZM302.583 76.4619C300.988 76.4619 300.19 77.7699 300.19 80.3857C300.19 81.4886 300.359 82.3841 300.696 83.0723C301.07 83.8288 301.697 84.207 302.576 84.207C304.167 84.207 304.962 82.915 304.962 80.3311C304.962 77.7516 304.169 76.4619 302.583 76.4619ZM299.131 80.2695C299.131 77.0931 300.279 75.5049 302.576 75.5049C304.873 75.5049 306.021 77.1159 306.021 80.3379C306.021 83.5553 304.875 85.1641 302.583 85.1641C301.266 85.1641 300.339 84.665 299.801 83.667C299.354 82.8512 299.131 81.7188 299.131 80.2695ZM310.595 76.4619C309 76.4619 308.202 77.7699 308.202 80.3857C308.202 81.4886 308.371 82.3841 308.708 83.0723C309.082 83.8288 309.708 84.207 310.588 84.207C312.178 84.207 312.974 82.915 312.974 80.3311C312.974 77.7516 312.181 76.4619 310.595 76.4619ZM307.143 80.2695C307.143 77.0931 308.291 75.5049 310.588 75.5049C312.885 75.5049 314.033 77.1159 314.033 80.3379C314.033 83.5553 312.887 85.1641 310.595 85.1641C309.278 85.1641 308.35 84.665 307.812 83.667C307.366 82.8512 307.143 81.7188 307.143 80.2695ZM318.606 76.4619C317.011 76.4619 316.214 77.7699 316.214 80.3857C316.214 81.4886 316.382 82.3841 316.72 83.0723C317.093 83.8288 317.72 84.207 318.6 84.207C320.19 84.207 320.985 82.915 320.985 80.3311C320.985 77.7516 320.192 76.4619 318.606 76.4619ZM315.154 80.2695C315.154 77.0931 316.303 75.5049 318.6 75.5049C320.896 75.5049 322.045 77.1159 322.045 80.3379C322.045 83.5553 320.899 85.1641 318.606 85.1641C317.289 85.1641 316.362 84.665 315.824 83.667C315.378 82.8512 315.154 81.7188 315.154 80.2695ZM329.735 79.5312C329.056 79.5312 328.503 79.8047 328.074 80.3516C327.755 80.7526 327.596 81.2653 327.596 81.8896C327.596 82.6188 327.812 83.1999 328.245 83.6328C328.664 84.0521 329.175 84.2617 329.776 84.2617C330.483 84.2617 331.041 83.986 331.451 83.4346C331.757 83.029 331.909 82.5117 331.909 81.8828C331.909 81.1673 331.702 80.5931 331.287 80.1602C330.891 79.7409 330.373 79.5312 329.735 79.5312ZM331.909 76.8105V75.6689H332.907V76.8105H333.748V77.7129H332.907V85H331.909V84.1865C331.326 84.8382 330.599 85.1641 329.729 85.1641C329.182 85.1641 328.674 85.0251 328.204 84.7471C327.694 84.4554 327.295 84.0498 327.008 83.5303C326.73 83.0335 326.591 82.4889 326.591 81.8965C326.591 80.9076 326.942 80.0918 327.644 79.4492C328.245 78.9023 328.94 78.6289 329.729 78.6289C330.581 78.6289 331.308 78.957 331.909 79.6133V77.7129H330.228V76.8105H331.909ZM334.91 76.0723C335.001 76.0358 335.095 76.0176 335.19 76.0176C335.286 76.0176 335.377 76.0358 335.464 76.0723C335.55 76.1087 335.626 76.1611 335.689 76.2295C335.758 76.2933 335.81 76.3685 335.847 76.4551C335.883 76.5417 335.901 76.6328 335.901 76.7285C335.901 76.9336 335.833 77.1045 335.696 77.2412C335.56 77.3779 335.389 77.4463 335.184 77.4463C335.088 77.4463 334.997 77.4281 334.91 77.3916C334.824 77.3506 334.746 77.2982 334.678 77.2344C334.614 77.1706 334.564 77.0954 334.527 77.0088C334.491 76.9176 334.473 76.8219 334.473 76.7217C334.473 76.626 334.491 76.5371 334.527 76.4551C334.568 76.3685 334.621 76.2933 334.685 76.2295C334.748 76.1611 334.824 76.1087 334.91 76.0723ZM335.683 78.793V85H334.685V78.793H335.683ZM341.432 76.3594C341.436 76.168 341.5 75.9834 341.623 75.8057L341.753 75.6143C341.885 75.4274 341.951 75.2884 341.951 75.1973C341.951 74.974 341.796 74.8623 341.486 74.8623C341.345 74.8623 341.172 74.8988 340.967 74.9717L340.687 74.2607C341.015 74.1331 341.32 74.0693 341.603 74.0693C341.985 74.0693 342.291 74.1559 342.519 74.3291C342.746 74.5023 342.86 74.7324 342.86 75.0195C342.86 75.2428 342.787 75.4684 342.642 75.6963L342.423 76.0312C342.359 76.1361 342.327 76.2454 342.327 76.3594H341.432ZM340.481 75.9014L342.088 77.665L341.37 78.0273L340.078 76.8105L338.793 78.0273L338.075 77.665L339.688 75.9014H340.481ZM342.047 81.4658C342.029 81.3337 342.004 81.2129 341.972 81.1035C341.944 80.9896 341.912 80.887 341.876 80.7959C341.707 80.3857 341.457 80.0667 341.124 79.8389C340.814 79.6338 340.468 79.5312 340.085 79.5312C339.565 79.5312 339.123 79.7067 338.759 80.0576C338.403 80.3994 338.18 80.8688 338.089 81.4658H342.047ZM338.089 82.3203C338.107 82.4388 338.13 82.555 338.157 82.6689C338.185 82.7783 338.221 82.8854 338.267 82.9902C338.435 83.3958 338.697 83.7148 339.053 83.9473C339.372 84.1569 339.736 84.2617 340.146 84.2617C340.985 84.2617 341.614 83.8949 342.033 83.1611L342.922 83.5371C342.617 84.0703 342.227 84.4759 341.753 84.7539C341.279 85.0273 340.746 85.1641 340.153 85.1641C339.201 85.1641 338.428 84.8063 337.836 84.0908C337.321 83.471 337.063 82.7327 337.063 81.876C337.063 81.2972 337.193 80.7572 337.453 80.2559C337.736 79.7363 338.116 79.3307 338.595 79.0391C339.05 78.7656 339.545 78.6289 340.078 78.6289C340.949 78.6289 341.66 78.9456 342.211 79.5791C342.767 80.2171 343.045 81.0283 343.045 82.0127C343.045 82.0446 343.045 82.0856 343.045 82.1357C343.045 82.1859 343.043 82.2474 343.038 82.3203H338.089ZM349.067 79.6543C349.573 78.9661 350.25 78.6221 351.098 78.6221C351.941 78.6221 352.602 78.916 353.08 79.5039C353.34 79.8229 353.504 80.1738 353.572 80.5566C353.604 80.7161 353.627 80.8848 353.641 81.0625C353.654 81.2402 353.661 81.4316 353.661 81.6367V85H352.663V81.7598C352.663 80.9395 352.533 80.3743 352.273 80.0645C352.009 79.7454 351.649 79.5859 351.193 79.5859C350.633 79.5859 350.204 79.7819 349.908 80.1738C349.671 80.4837 349.553 81.0579 349.553 81.8965V85H348.555V81.7598C348.555 80.9395 348.425 80.3743 348.165 80.0645C347.901 79.7454 347.536 79.5859 347.071 79.5859C346.506 79.5859 346.076 79.7819 345.779 80.1738C345.538 80.4928 345.417 81.0671 345.417 81.8965V85H344.419V78.793H345.417V79.4902C345.845 78.916 346.429 78.6289 347.167 78.6289C347.969 78.6289 348.603 78.9707 349.067 79.6543Z" fill="black"/>
<path d="M269.379 102.695V106.134C269.379 106.822 269.611 107.166 270.076 107.166C270.19 107.166 270.331 107.143 270.5 107.098V108C270.268 108.064 270.062 108.096 269.885 108.096C268.882 108.096 268.381 107.442 268.381 106.134V102.695H267.684V101.793H268.381V100.323L269.379 99.9268V101.793H270.411V102.695H269.379ZM272.571 99.0312L273.556 98.5049L274.95 100.433L274.321 100.795L272.571 99.0312ZM277.076 103.078C277.468 102.85 277.664 102.545 277.664 102.162C277.664 101.77 277.468 101.406 277.076 101.068L277.773 100.72C278.293 101.098 278.553 101.588 278.553 102.189C278.553 102.577 278.423 102.932 278.163 103.256C277.908 103.579 277.546 103.839 277.076 104.035V108H276.078V107.303C275.618 107.877 274.996 108.164 274.212 108.164C273.451 108.164 272.831 107.902 272.353 107.378C272.239 107.255 272.141 107.12 272.059 106.975C271.977 106.829 271.91 106.667 271.86 106.489C271.81 106.307 271.771 106.106 271.744 105.888C271.721 105.669 271.71 105.425 271.71 105.156V101.793H272.708V105.04C272.708 105.263 272.715 105.462 272.729 105.635C272.747 105.808 272.772 105.963 272.804 106.1C272.84 106.232 272.883 106.35 272.934 106.455C272.988 106.56 273.054 106.653 273.132 106.735C273.419 107.05 273.809 107.207 274.301 107.207C274.902 107.207 275.365 107.011 275.688 106.619C275.948 106.305 276.078 105.73 276.078 104.896V101.793H277.076V103.078ZM285.389 108H284.35V99.8379L282.88 100.686L282.401 99.8516L284.445 98.6689H285.389V108ZM290.509 99.4619C288.914 99.4619 288.116 100.77 288.116 103.386C288.116 104.489 288.285 105.384 288.622 106.072C288.996 106.829 289.622 107.207 290.502 107.207C292.092 107.207 292.888 105.915 292.888 103.331C292.888 100.752 292.095 99.4619 290.509 99.4619ZM287.057 103.27C287.057 100.093 288.205 98.5049 290.502 98.5049C292.799 98.5049 293.947 100.116 293.947 103.338C293.947 106.555 292.801 108.164 290.509 108.164C289.192 108.164 288.264 107.665 287.727 106.667C287.28 105.851 287.057 104.719 287.057 103.27ZM298.521 99.4619C296.925 99.4619 296.128 100.77 296.128 103.386C296.128 104.489 296.297 105.384 296.634 106.072C297.007 106.829 297.634 107.207 298.514 107.207C300.104 107.207 300.899 105.915 300.899 103.331C300.899 100.752 300.106 99.4619 298.521 99.4619ZM295.068 103.27C295.068 100.093 296.217 98.5049 298.514 98.5049C300.811 98.5049 301.959 100.116 301.959 103.338C301.959 106.555 300.813 108.164 298.521 108.164C297.203 108.164 296.276 107.665 295.738 106.667C295.292 105.851 295.068 104.719 295.068 103.27ZM303.839 106.811C303.921 106.774 304.01 106.756 304.105 106.756C304.201 106.756 304.29 106.774 304.372 106.811C304.459 106.847 304.532 106.897 304.591 106.961C304.655 107.02 304.705 107.093 304.741 107.18C304.778 107.262 304.796 107.351 304.796 107.446C304.796 107.542 304.778 107.633 304.741 107.72C304.705 107.802 304.655 107.875 304.591 107.938C304.532 107.998 304.459 108.046 304.372 108.082C304.29 108.118 304.201 108.137 304.105 108.137C304.01 108.137 303.919 108.118 303.832 108.082C303.75 108.046 303.677 107.995 303.613 107.932C303.554 107.868 303.506 107.795 303.47 107.713C303.433 107.626 303.415 107.535 303.415 107.439C303.415 107.344 303.433 107.255 303.47 107.173C303.506 107.091 303.556 107.02 303.62 106.961C303.684 106.897 303.757 106.847 303.839 106.811ZM309.704 99.4619C308.109 99.4619 307.312 100.77 307.312 103.386C307.312 104.489 307.48 105.384 307.817 106.072C308.191 106.829 308.818 107.207 309.697 107.207C311.288 107.207 312.083 105.915 312.083 103.331C312.083 100.752 311.29 99.4619 309.704 99.4619ZM306.252 103.27C306.252 100.093 307.4 98.5049 309.697 98.5049C311.994 98.5049 313.143 100.116 313.143 103.338C313.143 106.555 311.996 108.164 309.704 108.164C308.387 108.164 307.46 107.665 306.922 106.667C306.475 105.851 306.252 104.719 306.252 103.27ZM317.716 99.4619C316.121 99.4619 315.323 100.77 315.323 103.386C315.323 104.489 315.492 105.384 315.829 106.072C316.203 106.829 316.829 107.207 317.709 107.207C319.299 107.207 320.095 105.915 320.095 103.331C320.095 100.752 319.302 99.4619 317.716 99.4619ZM314.264 103.27C314.264 100.093 315.412 98.5049 317.709 98.5049C320.006 98.5049 321.154 100.116 321.154 103.338C321.154 106.555 320.008 108.164 317.716 108.164C316.399 108.164 315.471 107.665 314.934 106.667C314.487 105.851 314.264 104.719 314.264 103.27ZM325.728 99.4619C324.132 99.4619 323.335 100.77 323.335 103.386C323.335 104.489 323.504 105.384 323.841 106.072C324.215 106.829 324.841 107.207 325.721 107.207C327.311 107.207 328.106 105.915 328.106 103.331C328.106 100.752 327.313 99.4619 325.728 99.4619ZM322.275 103.27C322.275 100.093 323.424 98.5049 325.721 98.5049C328.018 98.5049 329.166 100.116 329.166 103.338C329.166 106.555 328.02 108.164 325.728 108.164C324.41 108.164 323.483 107.665 322.945 106.667C322.499 105.851 322.275 104.719 322.275 103.27ZM331.046 106.811C331.128 106.774 331.217 106.756 331.312 106.756C331.408 106.756 331.497 106.774 331.579 106.811C331.666 106.847 331.739 106.897 331.798 106.961C331.862 107.02 331.912 107.093 331.948 107.18C331.985 107.262 332.003 107.351 332.003 107.446C332.003 107.542 331.985 107.633 331.948 107.72C331.912 107.802 331.862 107.875 331.798 107.938C331.739 107.998 331.666 108.046 331.579 108.082C331.497 108.118 331.408 108.137 331.312 108.137C331.217 108.137 331.126 108.118 331.039 108.082C330.957 108.046 330.884 107.995 330.82 107.932C330.761 107.868 330.713 107.795 330.677 107.713C330.64 107.626 330.622 107.535 330.622 107.439C330.622 107.344 330.64 107.255 330.677 107.173C330.713 107.091 330.763 107.02 330.827 106.961C330.891 106.897 330.964 106.847 331.046 106.811ZM336.911 99.4619C335.316 99.4619 334.519 100.77 334.519 103.386C334.519 104.489 334.687 105.384 335.024 106.072C335.398 106.829 336.025 107.207 336.904 107.207C338.495 107.207 339.29 105.915 339.29 103.331C339.29 100.752 338.497 99.4619 336.911 99.4619ZM333.459 103.27C333.459 100.093 334.607 98.5049 336.904 98.5049C339.201 98.5049 340.35 100.116 340.35 103.338C340.35 106.555 339.203 108.164 336.911 108.164C335.594 108.164 334.667 107.665 334.129 106.667C333.682 105.851 333.459 104.719 333.459 103.27ZM344.923 99.4619C343.328 99.4619 342.53 100.77 342.53 103.386C342.53 104.489 342.699 105.384 343.036 106.072C343.41 106.829 344.036 107.207 344.916 107.207C346.507 107.207 347.302 105.915 347.302 103.331C347.302 100.752 346.509 99.4619 344.923 99.4619ZM341.471 103.27C341.471 100.093 342.619 98.5049 344.916 98.5049C347.213 98.5049 348.361 100.116 348.361 103.338C348.361 106.555 347.215 108.164 344.923 108.164C343.606 108.164 342.678 107.665 342.141 106.667C341.694 105.851 341.471 104.719 341.471 103.27ZM352.935 99.4619C351.34 99.4619 350.542 100.77 350.542 103.386C350.542 104.489 350.711 105.384 351.048 106.072C351.422 106.829 352.048 107.207 352.928 107.207C354.518 107.207 355.313 105.915 355.313 103.331C355.313 100.752 354.521 99.4619 352.935 99.4619ZM349.482 103.27C349.482 100.093 350.631 98.5049 352.928 98.5049C355.225 98.5049 356.373 100.116 356.373 103.338C356.373 106.555 355.227 108.164 352.935 108.164C351.618 108.164 350.69 107.665 350.152 106.667C349.706 105.851 349.482 104.719 349.482 103.27ZM360.563 102.531C359.884 102.531 359.331 102.805 358.902 103.352C358.583 103.753 358.424 104.265 358.424 104.89C358.424 105.619 358.64 106.2 359.073 106.633C359.493 107.052 360.003 107.262 360.604 107.262C361.311 107.262 361.869 106.986 362.279 106.435C362.585 106.029 362.737 105.512 362.737 104.883C362.737 104.167 362.53 103.593 362.115 103.16C361.719 102.741 361.201 102.531 360.563 102.531ZM362.737 99.8105V98.6689H363.735V99.8105H364.576V100.713H363.735V108H362.737V107.187C362.154 107.838 361.427 108.164 360.557 108.164C360.01 108.164 359.502 108.025 359.032 107.747C358.522 107.455 358.123 107.05 357.836 106.53C357.558 106.034 357.419 105.489 357.419 104.896C357.419 103.908 357.77 103.092 358.472 102.449C359.073 101.902 359.768 101.629 360.557 101.629C361.409 101.629 362.136 101.957 362.737 102.613V100.713H361.056V99.8105H362.737Z" fill="black"/>
<path d="M302.39 21.7842H307.161V17.6689H308.207V27H307.161V22.7549H302.39V27H301.344V17.6689H302.39V21.7842ZM312.869 27.8955C312.956 27.859 313.047 27.8408 313.143 27.8408C313.238 27.8408 313.329 27.859 313.416 27.8955C313.503 27.932 313.578 27.9821 313.642 28.0459C313.705 28.1097 313.756 28.1826 313.792 28.2646C313.828 28.3512 313.847 28.4424 313.847 28.5381C313.847 28.6338 313.828 28.7249 313.792 28.8115C313.756 28.8981 313.705 28.9733 313.642 29.0371C313.578 29.1009 313.503 29.151 313.416 29.1875C313.329 29.224 313.238 29.2422 313.143 29.2422C313.047 29.2422 312.956 29.224 312.869 29.1875C312.783 29.151 312.707 29.1009 312.644 29.0371C312.584 28.9733 312.536 28.8981 312.5 28.8115C312.464 28.7249 312.445 28.6315 312.445 28.5312C312.445 28.4355 312.464 28.3467 312.5 28.2646C312.536 28.1826 312.587 28.1097 312.65 28.0459C312.714 27.9821 312.787 27.932 312.869 27.8955ZM312.958 21.5312C312.279 21.5312 311.725 21.8047 311.297 22.3516C310.978 22.7526 310.818 23.2653 310.818 23.8896C310.818 24.6188 311.035 25.1999 311.468 25.6328C311.887 26.0521 312.397 26.2617 312.999 26.2617C313.71 26.2617 314.273 25.986 314.688 25.4346C314.997 25.0199 315.152 24.5026 315.152 23.8828C315.152 23.1764 314.943 22.6022 314.523 22.1602C314.118 21.7409 313.596 21.5312 312.958 21.5312ZM316.13 27H315.132V26.1865C314.549 26.8382 313.822 27.1641 312.951 27.1641C312.409 27.1641 311.901 27.0251 311.427 26.7471C310.916 26.4554 310.518 26.0498 310.23 25.5303C309.952 25.0335 309.813 24.4889 309.813 23.8965C309.813 22.9076 310.164 22.0918 310.866 21.4492C311.468 20.9023 312.163 20.6289 312.951 20.6289C313.803 20.6289 314.53 20.957 315.132 21.6133V20.793H316.13V27ZM318.892 21.4902C319.347 20.916 319.969 20.6289 320.758 20.6289C321.519 20.6289 322.139 20.891 322.617 21.415C322.731 21.5381 322.829 21.6725 322.911 21.8184C322.993 21.9642 323.059 22.1283 323.109 22.3105C323.16 22.4883 323.196 22.6865 323.219 22.9053C323.246 23.124 323.26 23.3678 323.26 23.6367V27H322.262V23.7598C322.262 23.5365 322.253 23.3382 322.234 23.165C322.221 22.9873 322.196 22.8324 322.159 22.7002C322.127 22.5635 322.084 22.4427 322.029 22.3379C321.979 22.2331 321.915 22.1396 321.838 22.0576C321.542 21.7432 321.152 21.5859 320.669 21.5859C320.067 21.5859 319.605 21.7819 319.281 22.1738C319.021 22.4883 318.892 23.0625 318.892 23.8965V27H317.894V20.793H318.892V21.4902ZM327.724 21.5312C327.045 21.5312 326.491 21.8047 326.062 22.3516C325.743 22.7526 325.584 23.2653 325.584 23.8896C325.584 24.6188 325.8 25.1999 326.233 25.6328C326.653 26.0521 327.163 26.2617 327.765 26.2617C328.471 26.2617 329.032 25.986 329.446 25.4346C329.752 25.029 329.904 24.5117 329.904 23.8828C329.904 23.1764 329.695 22.6022 329.275 22.1602C328.879 21.7409 328.362 21.5312 327.724 21.5312ZM330.896 20.793V27.1162C330.896 28.0186 330.652 28.7614 330.164 29.3447C329.872 29.6911 329.508 29.9577 329.07 30.1445C328.633 30.3359 328.159 30.4316 327.648 30.4316C327.07 30.4316 326.559 30.3245 326.117 30.1104C325.689 29.9007 325.258 29.5498 324.825 29.0576L325.481 28.4014C325.636 28.5882 325.78 28.7432 325.912 28.8662C326.049 28.9938 326.174 29.0941 326.288 29.167C326.675 29.4085 327.127 29.5293 327.642 29.5293C328.343 29.5293 328.895 29.3151 329.296 28.8867C329.697 28.4583 329.897 27.8682 329.897 27.1162V26.1865C329.314 26.8382 328.587 27.1641 327.717 27.1641C327.174 27.1641 326.666 27.0251 326.192 26.7471C325.682 26.4554 325.283 26.0498 324.996 25.5303C324.718 25.0335 324.579 24.4889 324.579 23.8965C324.579 22.9076 324.93 22.0918 325.632 21.4492C326.233 20.9023 326.928 20.6289 327.717 20.6289C328.569 20.6289 329.296 20.957 329.897 21.6133V20.793H330.896Z" fill="black"/>
<path d="M299.004 34.6699H301.172L304.648 45.1777L308.135 34.6699H310.293L305.859 48H303.438L299.004 34.6699ZM310.293 34.6699H312.461L315.938 45.1777L319.424 34.6699H321.582L317.148 48H314.727L310.293 34.6699ZM325.088 34.6699V48H323.008V34.6699H325.088ZM330.107 40.959H331.152C332.122 40.959 332.793 40.7441 333.164 40.3145C333.516 39.9173 333.691 39.3932 333.691 38.7422C333.691 37.8438 333.376 37.2188 332.744 36.8672C332.386 36.6654 331.855 36.5645 331.152 36.5645H330.107V40.959ZM328.027 34.6699H330.986C332.217 34.6699 333.161 34.8587 333.818 35.2363C334.391 35.5553 334.84 36.0078 335.166 36.5938C335.544 37.2448 335.732 37.9609 335.732 38.7422C335.732 39.8359 335.394 40.7702 334.717 41.5449C334.294 42.0072 333.799 42.3392 333.232 42.541C332.666 42.7428 331.917 42.8438 330.986 42.8438H330.107V48H328.027V34.6699Z" fill="black"/>
</svg>
