<svg id="Layer_1" height="512" viewBox="0 0 512 512" width="512" xmlns="http://www.w3.org/2000/svg" data-name="Layer 1"><path d="m367.931 294.319a14.347 14.347 0 0 0 -20.265 0l-61.192 61.193a5.921 5.921 0 0 1 -7.5.7 464.718 464.718 0 0 1 -67.521-55.942 464.7 464.7 0 0 1 -55.941-67.52 5.921 5.921 0 0 1 .705-7.5l61.192-61.193a14.348 14.348 0 0 0 0-20.265l-109.556-109.551a14.328 14.328 0 0 0 -20.263 0l-69.366 69.366a63.848 63.848 0 0 0 -17.712 55.532c13.377 80.475 57.418 161.47 124.012 228.061 66.35 66.35 147.017 110.42 227.141 124.091a63.847 63.847 0 0 0 55.77-17.673l69.765-69.766a14.347 14.347 0 0 0 0-20.264zm21.929 181.726a38.891 38.891 0 0 1 -34.015 10.747c-75.094-12.812-151-54.422-213.746-117.164-62.959-62.959-104.535-139.16-117.069-214.565a38.943 38.943 0 0 1 10.77-33.881l61.922-61.923 94.669 94.669-53.75 53.75a30.806 30.806 0 0 0 -3.7 39.026 489.52 489.52 0 0 0 58.937 71.145 489.6 489.6 0 0 0 71.145 58.937 30.806 30.806 0 0 0 39.026-3.7l53.751-53.75 94.386 94.385z"/><path d="m511.3 217.939a295.2 295.2 0 0 0 -217.8-217.797 12.427 12.427 0 0 0 -5.794 24.17 270.341 270.341 0 0 1 199.425 199.421 12.427 12.427 0 0 0 24.17-5.794z"/><path d="m286.32 119.02a179.351 179.351 0 0 1 106.1 106.1 12.428 12.428 0 1 0 23.33-8.574 204.209 204.209 0 0 0 -120.856-120.855 12.427 12.427 0 0 0 -8.574 23.329z"/></svg>