<svg width="322" height="206" viewBox="0 0 322 206" fill="none" xmlns="http://www.w3.org/2000/svg">
<path fill-rule="evenodd" clip-rule="evenodd" d="M7.59369 5.78006H116.991C118.184 5.78006 119.15 6.75454 119.15 7.95662V26.8201H124.188V7.95662C124.188 3.94968 120.966 0.701416 116.991 0.701416H7.59369C3.61878 0.701416 0.396484 3.94968 0.396484 7.95661V198.672C0.396484 202.679 3.61879 205.927 7.59369 205.927H116.991C120.966 205.927 124.188 202.679 124.188 198.672V182.711H119.15V198.672C119.15 199.874 118.184 200.849 116.991 200.849H7.59369C6.40122 200.849 5.43453 199.874 5.43453 198.672V7.95661C5.43453 6.75454 6.40121 5.78006 7.59369 5.78006Z" fill="white"/>
<path d="M134.316 63.5234C134.171 62.0881 133.552 60.9731 132.457 60.1783C131.363 59.3835 129.877 58.9861 128.001 58.9861C126.726 58.9861 125.649 59.1641 124.771 59.5199C123.893 59.8639 123.22 60.3444 122.751 60.9612C122.294 61.578 122.065 62.2779 122.065 63.0608C122.041 63.7132 122.179 64.2826 122.48 64.769C122.793 65.2553 123.22 65.6764 123.761 66.0323C124.302 66.3763 124.928 66.6788 125.637 66.9398C126.347 67.1889 127.105 67.4024 127.911 67.5803L131.23 68.3632C132.842 68.7191 134.322 69.1936 135.669 69.7867C137.016 70.3798 138.183 71.1094 139.169 71.9753C140.155 72.8412 140.919 73.8614 141.46 75.0358C142.014 76.2101 142.296 77.5565 142.308 79.0749C142.296 81.305 141.719 83.2385 140.576 84.8755C139.446 86.5006 137.81 87.764 135.669 88.6655C133.54 89.5552 130.972 90 127.965 90C124.982 90 122.384 89.5492 120.171 88.6477C117.969 87.7462 116.249 86.4117 115.011 84.6442C113.784 82.8648 113.14 80.6644 113.08 78.0428H120.64C120.724 79.2647 121.079 80.2848 121.704 81.1033C122.342 81.9099 123.19 82.5208 124.248 82.936C125.319 83.3393 126.527 83.541 127.875 83.541C129.198 83.541 130.346 83.3512 131.321 82.9716C132.307 82.592 133.071 82.0641 133.612 81.388C134.153 80.7119 134.424 79.9349 134.424 79.0571C134.424 78.2386 134.177 77.5506 133.684 76.993C133.203 76.4355 132.493 75.961 131.555 75.5696C130.629 75.1781 129.492 74.8222 128.145 74.502L124.122 73.5055C121.007 72.7582 118.547 71.5898 116.743 70.0002C114.938 68.4107 114.042 66.2696 114.054 63.5768C114.042 61.3704 114.638 59.4428 115.841 57.794C117.055 56.1451 118.721 54.8581 120.838 53.9328C122.955 53.0076 125.361 52.5449 128.055 52.5449C130.797 52.5449 133.191 53.0076 135.236 53.9328C137.293 54.8581 138.892 56.1451 140.035 57.794C141.178 59.4428 141.767 61.3526 141.803 63.5234H134.316Z" fill="white"/>
<path d="M81.376 89.4841V53.0432H95.954C98.7565 53.0432 101.144 53.5711 103.117 54.6268C105.089 55.6707 106.593 57.1238 107.627 58.9862C108.674 60.8367 109.197 62.9719 109.197 65.3918C109.197 67.8117 108.668 69.9469 107.609 71.7974C106.551 73.648 105.017 75.0892 103.008 76.1212C101.012 77.1532 98.5941 77.6693 95.7555 77.6693H86.4638V71.495H94.4926C95.9961 71.495 97.2349 71.2399 98.2092 70.7298C99.1955 70.2079 99.9292 69.4902 100.41 68.5768C100.903 67.6516 101.15 66.5899 101.15 65.3918C101.15 64.1819 100.903 63.1261 100.41 62.2246C99.9292 61.3112 99.1955 60.6054 98.2092 60.1072C97.2229 59.5971 95.972 59.3421 94.4565 59.3421H89.1882V89.4841H81.376Z" fill="white"/>
<path d="M74.9484 53.0432V89.4841H67.1362V53.0432H74.9484Z" fill="white"/>
<path d="M31.7915 59.3955V53.0432H62.1382V59.3955H50.8259V89.4841H43.1039V59.3955H31.7915Z" fill="white"/>
<path d="M313.658 126.57C313.404 125.698 313.046 124.927 312.586 124.258C312.125 123.577 311.562 123.003 310.896 122.537C310.241 122.059 309.49 121.695 308.642 121.444C307.806 121.193 306.879 121.068 305.861 121.068C303.959 121.068 302.287 121.534 300.845 122.466C299.415 123.398 298.301 124.754 297.501 126.534C296.701 128.303 296.301 130.466 296.301 133.023C296.301 135.58 296.695 137.755 297.483 139.547C298.27 141.34 299.385 142.708 300.827 143.652C302.269 144.584 303.971 145.05 305.934 145.05C307.715 145.05 309.236 144.739 310.496 144.118C311.768 143.485 312.737 142.594 313.404 141.447C314.082 140.3 314.421 138.944 314.421 137.378L316.021 137.611H306.425V131.768H322V136.393C322 139.619 321.31 142.391 319.928 144.709C318.547 147.016 316.645 148.796 314.221 150.051C311.798 151.293 309.024 151.915 305.898 151.915C302.408 151.915 299.343 151.156 296.701 149.638C294.06 148.109 292 145.94 290.522 143.132C289.056 140.312 288.323 136.966 288.323 133.095C288.323 130.119 288.759 127.466 289.631 125.136C290.516 122.794 291.752 120.811 293.339 119.186C294.926 117.56 296.774 116.324 298.882 115.475C300.99 114.627 303.274 114.203 305.734 114.203C307.842 114.203 309.805 114.507 311.623 115.117C313.44 115.714 315.051 116.563 316.457 117.662C317.875 118.761 319.032 120.07 319.928 121.587C320.825 123.093 321.4 124.754 321.655 126.57H313.658Z" fill="white"/>
<path d="M282.475 114.704V151.413H275.678L259.484 128.309H259.212V151.413H251.342V114.704H258.249L274.315 137.79H274.642V114.704H282.475Z" fill="white"/>
<path d="M219.473 151.413H211.04L223.89 114.704H234.031L246.862 151.413H238.429L229.106 123.093H228.815L219.473 151.413ZM218.946 136.984H238.865V143.042H218.946V136.984ZM226.271 111.155L220.727 103H227.87L231.741 111.155H226.271Z" fill="white"/>
<path d="M174.873 151.413V114.704H182.742V129.85H198.718V114.704H206.569V151.413H198.718V136.249H182.742V151.413H174.873Z" fill="white"/>
<path d="M131.158 151.413H122.725L135.574 114.704H145.716L158.547 151.413H150.114L140.791 123.093H140.5L131.158 151.413ZM130.631 136.984H150.55V143.042H130.631V136.984Z" fill="white"/>
<path d="M110.399 114.704H118.269V138.543C118.269 141.22 117.62 143.562 116.324 145.569C115.04 147.577 113.24 149.142 110.926 150.266C108.612 151.377 105.916 151.933 102.838 151.933C99.7487 151.933 97.0468 151.377 94.7325 150.266C92.4183 149.142 90.619 147.577 89.3347 145.569C88.0504 143.562 87.4082 141.22 87.4082 138.543V114.704H95.2778V137.88C95.2778 139.278 95.5867 140.521 96.2047 141.608C96.8347 142.696 97.7192 143.55 98.8582 144.171C99.9971 144.793 101.324 145.103 102.838 145.103C104.365 145.103 105.692 144.793 106.819 144.171C107.958 143.55 108.836 142.696 109.454 141.608C110.084 140.521 110.399 139.278 110.399 137.88V114.704Z" fill="white"/>
<path d="M40.5771 114.704H50.2823L60.5328 139.368H60.969L71.2194 114.704H80.9246V151.413H73.2913V127.52H72.9823L63.3498 151.233H58.1519L48.5194 127.43H48.2104V151.413H40.5771V114.704Z" fill="white"/>
</svg>
