<svg width="278" height="278" viewBox="0 0 278 278" fill="none" xmlns="http://www.w3.org/2000/svg">
<rect width="278" height="278" fill="white"/>
<path d="M140.505 15.8486C144.819 20.6243 149.133 25.4 153.292 30.1757C155.757 32.9487 156.527 33.2568 159.916 31.7162C165 29.5595 170.084 27.4027 175.168 25.2459C179.019 23.5513 180.714 24.3216 181.792 28.4811C183.333 33.873 185.027 39.4189 186.414 44.8108C187.03 47.2757 188.57 48.3541 191.035 48.3541C196.581 48.5081 202.127 48.6622 207.519 48.8162C211.987 48.9703 213.219 50.3568 212.603 54.6703C211.679 60.2163 210.754 65.7622 209.83 71.1541C209.368 73.619 209.984 75.3136 212.449 76.546C217.379 79.0109 222.154 81.6298 227.084 84.2487C231.398 86.5595 231.706 87.946 228.779 91.9514C225.543 96.419 222.462 101.041 219.227 105.354C217.687 107.357 217.687 109.051 219.227 111.208C222.616 115.676 225.852 120.297 229.241 124.765C232.014 128.462 231.551 130.003 227.546 132.314C222.77 134.933 217.841 137.706 213.065 140.324C210.754 141.557 209.984 143.097 210.6 145.87C211.833 151.57 212.757 157.424 213.835 163.279C214.298 166.36 213.065 167.9 210.138 168.054C204.284 168.362 198.276 168.67 192.422 168.979C189.803 169.133 188.416 170.057 187.646 172.83C186.26 178.376 184.565 183.922 183.025 189.468C181.946 193.165 180.406 193.935 176.862 192.549C171.779 190.546 166.849 188.389 161.765 186.387C157.76 184.692 157.452 184.846 154.524 188.081C150.981 192.087 147.438 196.246 143.741 200.406C141.122 203.333 139.273 203.333 136.654 200.406C132.803 196.246 128.951 192.087 125.254 187.619C123.406 185.462 121.711 185.154 119.246 186.387C114.47 188.697 109.387 190.7 104.457 192.857C99.5271 195.014 98.4487 194.397 96.9082 189.314C95.3676 184.076 93.8271 178.684 92.2865 173.446C91.6703 171.135 90.4378 170.211 87.9729 170.211C81.8108 170.057 75.6486 169.749 69.4864 169.287C66.5594 169.133 65.4811 167.592 65.9433 164.665C67.0217 158.657 67.946 152.649 69.0244 146.795C69.3325 144.638 68.7163 143.097 66.7136 142.019C61.4757 139.246 56.2378 136.473 50.9999 133.546C47.4567 131.697 47.1486 130.003 49.4594 126.922C52.6945 122.3 55.9297 117.833 59.1649 113.211C61.3216 110.13 61.3216 109.668 59.1649 106.741C55.9297 102.273 52.5405 97.6514 49.3054 93.1838C46.9946 89.9487 47.4567 88.2541 50.8459 86.2514C55.9297 83.4784 60.8595 80.7055 65.9433 77.9325C68.1001 76.8541 68.8703 75.3136 68.2541 72.8487C67.0217 67.1487 66.0974 61.4487 65.173 55.5946C64.5568 51.8973 65.7891 50.3568 69.4864 50.2027C75.1864 49.8946 81.0406 49.4325 86.7406 49.2784C89.5136 49.2784 90.746 48.046 91.3623 45.427C92.7487 39.8811 94.2891 34.4892 95.8297 28.9432C96.9081 25.0919 98.4487 24.3216 102.146 25.8622C107.538 28.0189 112.93 30.1757 118.322 32.4865C120.633 33.4108 122.019 32.9487 123.559 31.1C127.873 26.0162 132.341 20.9324 136.808 16.0027C138.195 15.8486 139.273 15.8486 140.505 15.8486ZM84.7378 109.205C84.7378 139.4 109.232 164.203 139.427 164.049C169.16 163.895 194.116 140.633 194.27 109.36C194.424 77.7784 168.543 54.3622 139.427 54.5162C109.078 54.5162 84.7378 78.8568 84.7378 109.205Z" fill="black"/>
<path d="M74.2622 247.7C74.4163 247.084 74.5704 246.314 74.8785 245.544C79.5001 231.063 84.2757 216.427 88.8974 201.946C89.5136 200.098 90.1298 199.636 91.8244 201.022C95.8298 204.103 100.452 205.181 105.381 203.795C109.233 202.717 113.084 201.638 116.935 200.406C118.322 199.944 119.4 200.098 120.478 201.176C123.251 203.795 126.024 206.26 128.797 208.725C129.876 209.649 130.184 210.419 129.722 211.806C124.638 227.519 119.554 243.233 114.471 258.946C114.008 260.179 113.546 261.411 112.005 261.565C110.465 261.719 109.695 260.795 108.77 259.717C105.535 255.557 102.146 251.244 98.9109 247.084C97.5244 245.39 96.1379 244.927 94.1352 245.544C88.7433 247.084 83.3514 248.625 77.9595 250.165C75.8028 250.936 74.2622 249.857 74.2622 247.7Z" fill="black"/>
<path d="M161.303 200.097C163.768 200.868 166.695 201.638 169.468 202.562C173.319 203.795 177.171 205.027 181.484 203.949C183.641 203.333 185.49 202.562 187.338 201.176C189.495 199.635 189.495 199.635 190.419 202.254C192.73 209.341 195.041 216.581 197.352 223.668C199.663 231.062 202.127 238.457 204.438 245.852C204.9 247.084 205.363 248.471 204.13 249.703C203.052 250.935 201.665 250.473 200.279 250.165C195.349 248.779 190.419 247.392 185.644 245.852C183.179 245.081 181.484 245.543 179.79 247.7C176.863 251.706 173.627 255.711 170.546 259.716C169.622 260.795 168.852 262.181 167.003 261.719C165.309 261.411 165.001 259.871 164.538 258.484C159.609 243.387 154.833 228.289 149.903 213.192C149.133 211.035 149.287 209.649 151.29 208.108C153.908 206.106 156.219 203.641 158.684 201.33C159.3 200.56 159.917 199.943 161.303 200.097Z" fill="black"/>
<path d="M119.555 118.14C119.863 116.446 119.093 115.984 118.322 115.367C114.163 111.978 110.157 108.435 105.998 105.046C105.382 104.584 104.919 104.121 104.303 103.659C102.917 102.273 101.992 100.886 102.609 98.7295C103.225 96.5728 104.765 95.3403 106.922 95.1863C109.541 94.8782 112.16 94.7241 114.779 94.57C118.014 94.416 121.249 94.1079 124.638 93.9538C126.487 93.9538 127.72 93.0295 128.336 91.1809C130.338 85.943 132.495 80.8592 134.652 75.6214C135.576 73.3106 136.809 71.77 139.582 71.77C142.201 71.77 143.433 73.4646 144.203 75.6214C146.36 80.8592 148.517 86.0971 150.519 91.489C151.136 93.3376 152.368 93.9538 154.063 94.1079C159.455 94.416 164.693 94.7241 170.084 95.1863C170.701 95.1863 171.163 95.1863 171.779 95.3403C173.936 95.6484 175.476 96.5728 176.247 98.8836C176.863 101.04 175.938 102.581 174.398 103.967C169.93 107.819 165.463 111.67 160.841 115.367C159.455 116.446 159.147 117.524 159.609 119.219C161.149 124.765 162.382 130.465 163.768 136.011C164.384 138.321 164.23 140.324 162.228 141.865C160.225 143.405 158.222 142.943 156.22 141.557C151.444 138.475 146.514 135.548 141.738 132.467C140.044 131.389 138.811 131.543 137.117 132.467C132.341 135.548 127.566 138.321 122.944 141.403C120.941 142.635 118.784 143.405 116.782 141.711C114.779 140.17 114.625 138.167 115.241 135.857C116.628 130.311 118.014 124.765 119.247 119.373C119.401 118.602 119.555 118.14 119.555 118.14Z" fill="black"/>
</svg>
