<svg width="278" height="278" viewBox="0 0 278 278" fill="none" xmlns="http://www.w3.org/2000/svg">
<rect width="278" height="278" fill="white"/>
<path d="M138.4 188.3C114 188.3 89.7001 188.2 65.3001 188.4C62.3001 188.4 60.8001 187.6 59.8001 184.6C51.5001 159.1 42.9001 133.7 34.4001 108.3C34.3001 107.9 34.2001 107.5 34.0001 107.1C33.7001 106.2 33.2001 105.3 34.2001 104.6C35.2001 103.8 35.9001 104.7 36.6001 105.3C39.0001 107.4 41.4001 109.4 43.8001 111.5C58.0001 124 72.2001 136.5 86.4001 149C89.0001 151.3 90.1001 151 92.4001 147.6C105.4 128.1 118.4 108.6 131.3 89.0999C132.8 86.7999 134.3 85.2999 137.2 86.3999C137.7 86.5999 138.3 86.6999 138.7 86.5999C142.9 84.7999 144.6 87.4999 146.6 90.4999C159 109.3 171.5 128 184 146.7C187.2 151.5 187.7 151.5 191.9 147.8C207.6 133.9 223.4 120.1 239.1 106.3C240.1 105.4 241.1 103.6 242.6 104.6C244.2 105.6 242.9 107.2 242.4 108.5C236.7 125.8 230.9 143 225.2 160.2C222.5 168.4 219.6 176.5 217.1 184.8C216.3 187.5 215 188.5 212.1 188.4C187.7 188.2 163 188.3 138.4 188.3Z" fill="black"/>
<path d="M138.9 190.3C165.1 190.3 191.3 190.3 217.5 190.3C222.4 190.3 226.2 193.2 227.3 197.6C228.5 202.1 226.6 206.7 222.7 209.1C220.7 210.3 218.5 210.4 216.2 210.4C174.5 210.4 132.8 210.4 91.1001 210.4C80.8001 210.4 70.6001 210.4 60.3001 210.4C53.8001 210.4 49.6001 206.4 49.6001 200.3C49.6001 194.2 53.8001 190.3 60.3001 190.2C86.5001 190.3 112.7 190.3 138.9 190.3Z" fill="black"/>
<path d="M188.8 144.7C187.8 144.7 187.4 144 187.1 143.5C184 138.8 180.8 134.1 177.7 129.4C177 128.3 176.9 127.4 177.7 126.3C180.5 122.1 183.3 117.9 186.1 113.7C186.8 112.6 187.6 112.1 188.9 112.7C191.6 113.9 194.3 113.9 197 112.7C198.3 112.1 199.1 112.5 199.8 113.6C202.5 117.6 205.1 121.6 207.8 125.7C208.4 126.6 208.7 127.6 207.7 128.4C201.8 133.6 195.8 138.8 189.9 144.1C189.5 144.4 189.1 144.6 188.8 144.7Z" fill="black"/>
<path d="M100.3 127.9C100 128.5 99.7 129.2 99.3 129.8C96.4 134.2 93.3 138.7 90.4 143.1C89.3 144.8 88.4 145.1 86.8 143.7C81.3 138.8 75.7 133.9 70.2 129.1C69 128.1 68.6 127.1 69.6 125.7C72.3 121.8 74.8 117.8 77.4 113.9C78.2 112.7 79 112.2 80.5 112.9C83.1 114 85.7 114 88.3 112.9C89.4 112.4 90.3 112.4 91 113.5C94 117.9 96.9 122.4 99.9 126.8C100 127 100.1 127.4 100.3 127.9Z" fill="black"/>
<path d="M138.5 82.2C134 82.1 130.9 78.9 131 74.3C131.1 69.9 134.3 67 138.7 67C143.2 67.1 146.3 70.3 146.1 74.9C146.1 79.2 142.9 82.2 138.5 82.2Z" fill="black"/>
<path d="M35.2 94.2002C35.2 98.8002 32.1 101.9 27.5 101.9C23.1 101.9 20 98.8002 20 94.4002C20 89.8002 23.1 86.7002 27.7 86.7002C32.1 86.7002 35.2 89.8002 35.2 94.2002Z" fill="black"/>
<path d="M249.5 86.7001C254.1 86.6001 257.3 89.7001 257.2 94.3001C257.2 98.7001 254.1 101.8 249.7 101.9C245.1 102 241.9 98.8001 242 94.3001C242 89.9001 245.1 86.8001 249.5 86.7001Z" fill="black"/>
<path d="M84.3002 109.3C81.2002 109.3 79.1002 107.1 79.2002 104C79.3002 101.1 81.4002 99.1001 84.4002 99.1001C87.5002 99.1001 89.6002 101.3 89.5002 104.4C89.4002 107.3 87.2002 109.3 84.3002 109.3Z" fill="black"/>
<path d="M192.8 109.3C189.7 109.3 187.6 107.1 187.7 104C187.8 101.1 189.9 99.1001 192.9 99.1001C196 99.1001 198.1 101.3 198 104.4C197.9 107.3 195.8 109.3 192.8 109.3Z" fill="black"/>
</svg>
