<svg width="278" height="278" viewBox="0 0 278 278" fill="none" xmlns="http://www.w3.org/2000/svg">
<rect width="278" height="278" fill="white"/>
<path d="M139.064 254.701C138.483 254.41 138.483 253.83 138.338 253.25C128.908 222.347 119.477 191.444 110.047 160.395C103.663 139.213 97.134 118.176 90.7503 96.9934C90.0249 94.3818 89.8799 94.3818 92.6365 94.3818C123.685 94.3818 154.733 94.3818 185.781 94.3818C188.392 94.3818 188.392 94.3818 187.667 96.9934C173.304 144.291 158.795 191.589 144.432 238.886C142.981 243.529 141.675 248.172 140.224 252.814C139.789 253.54 139.789 254.265 139.064 254.701Z" fill="black"/>
<path d="M131.374 249.622C130.504 248.462 129.633 247.446 128.908 246.285C107.725 217.559 86.6881 188.832 65.5057 160.25C49.8366 138.923 34.1674 117.595 18.4982 96.2677C18.2081 95.8324 17.4826 95.3972 17.7728 94.8168C18.063 94.2365 18.7884 94.5266 19.3688 94.5266C40.4061 94.5266 61.4434 94.5266 82.4807 94.5266C84.2217 94.5266 84.802 95.2521 85.2372 96.7029C91.1857 116.434 97.2793 136.166 103.228 155.898C110.047 178.386 117.011 201.019 123.83 223.507C126.296 231.777 128.908 239.902 131.374 248.171C131.519 248.462 131.955 249.042 131.374 249.622Z" fill="black"/>
<path d="M146.173 249.622C147.188 246.285 148.059 243.384 148.929 240.482C159.666 205.517 170.257 170.551 180.993 135.586C184.91 122.673 188.828 109.761 192.745 96.8481C193.325 94.962 194.051 94.3816 196.082 94.3816C216.829 94.5267 237.576 94.3816 258.178 94.3816C258.468 94.3816 258.904 94.3816 259.194 94.3816C259.629 94.3816 260.064 94.2365 260.355 94.6718C260.645 95.2521 260.21 95.5423 259.919 95.8325C259.194 96.8481 258.323 98.0087 257.598 99.0243C231.483 134.425 205.513 169.826 179.397 205.226C168.951 219.3 158.65 233.518 148.204 247.591C147.769 248.317 147.479 249.042 146.173 249.622Z" fill="black"/>
<path d="M138.918 89.4488C123.394 89.4488 107.87 89.4488 92.3463 89.4488C89.7348 89.4488 89.5897 89.4488 90.4602 86.8373C96.4087 68.1214 102.212 49.2603 108.16 30.5444C108.741 28.6583 109.321 26.9173 109.902 25.0312C110.337 23.4353 111.062 23 112.658 23C119.912 23.1451 127.022 23 134.276 23C144.722 23 155.168 23 165.614 23C167.21 23 167.935 23.4353 168.371 25.0312C174.754 45.6332 181.283 66.2353 187.812 86.8373C188.537 89.1587 188.537 89.3037 186.071 89.3037C170.257 89.4488 154.588 89.4488 138.918 89.4488Z" fill="black"/>
<path d="M50.5621 89.4488C40.116 89.4488 29.5248 89.4488 19.0787 89.4488C18.4984 89.4488 17.4828 89.884 17.1926 89.0135C16.9024 88.4332 17.6278 87.8528 18.0631 87.4176C33.8773 66.5254 49.6916 45.6332 65.5058 24.5959C66.3763 23.5803 67.2468 23.145 68.5526 23.145C79.8692 23.145 91.3309 23.145 102.647 23.145C104.969 23.145 104.969 23.145 104.389 25.3213C97.8597 45.9233 91.3309 66.6705 84.9471 87.4176C84.5119 89.0135 83.7865 89.5939 82.0454 89.5939C71.5993 89.4488 61.1533 89.4488 50.5621 89.4488Z" fill="black"/>
<path d="M227.42 89.4488C216.829 89.4488 206.383 89.4488 195.792 89.4488C194.341 89.4488 193.616 89.0136 193.18 87.5627C186.652 66.8156 180.123 45.9234 173.739 25.1763C173.014 23.1451 173.159 23 175.335 23C186.797 23 198.113 23 209.575 23C210.881 23 211.751 23.4353 212.622 24.5959C228.291 45.3431 243.96 66.0902 259.629 86.8373C260.065 87.5627 261.225 88.1431 260.79 89.0136C260.355 89.8841 259.194 89.4488 258.323 89.4488C248.022 89.4488 237.721 89.4488 227.42 89.4488Z" fill="black"/>
</svg>
