<svg width="46" height="58" viewBox="0 0 46 58" fill="none" xmlns="http://www.w3.org/2000/svg">
<path fill-rule="evenodd" clip-rule="evenodd" d="M42.6253 22.6175C42.6253 33.6675 33.6675 42.6253 22.6175 42.6253C11.5675 42.6253 2.60971 33.6675 2.60971 22.6175C2.60971 11.5675 11.5675 2.60971 22.6175 2.60971C33.6675 2.60971 42.6253 11.5675 42.6253 22.6175ZM28.3809 44.4941C38.0806 41.9457 45.235 33.1171 45.235 22.6175C45.235 10.1262 35.1088 0 22.6175 0C10.1262 0 0 10.1262 0 22.6175C0 33.4628 7.63329 42.5252 17.8204 44.7253L23.053 57.4137L28.3809 44.4941Z" fill="black"/>
<path d="M36.0713 26.9671V18.5116H38.3992C38.9698 18.5116 39.4639 18.5742 39.8815 18.6995C40.299 18.8248 40.6226 19.0509 40.8523 19.378C41.0889 19.6981 41.2072 20.154 41.2072 20.7455C41.2072 21.0935 41.1794 21.4032 41.1237 21.6746C41.068 21.946 40.9636 22.1826 40.8105 22.3844C40.6644 22.5793 40.4521 22.7428 40.1738 22.875L41.3325 26.9671H39.4013L38.4722 23.1778H37.9398V26.9671H36.0713ZM37.9398 22.1026H38.4618C38.7262 22.1026 38.9315 22.0573 39.0777 21.9669C39.2238 21.8694 39.3247 21.7337 39.3804 21.5597C39.443 21.3788 39.4744 21.1631 39.4744 20.9125C39.4744 20.5507 39.4082 20.2688 39.276 20.067C39.1438 19.8652 38.9002 19.7643 38.5453 19.7643H37.9398V22.1026Z" fill="black"/>
<path d="M31.4028 26.9671V18.5116H35.2026V19.7851H33.2714V21.8833H34.7433V23.1778H33.2714V25.704H35.2235V26.9671H31.4028Z" fill="black"/>
<path d="M25.2656 26.9671V18.5116H27.4682C27.8301 18.5116 28.1711 18.5394 28.4912 18.5951C28.8183 18.6508 29.1071 18.7586 29.3577 18.9187C29.6082 19.0718 29.803 19.2945 29.9422 19.5868C30.0884 19.8721 30.1614 20.2514 30.1614 20.7246C30.1614 21.0656 30.1093 21.3544 30.0049 21.5911C29.9074 21.8207 29.7648 22.0051 29.5769 22.1443C29.3959 22.2835 29.1767 22.3775 28.9192 22.4262C29.2463 22.4679 29.5212 22.5758 29.7439 22.7498C29.9666 22.9168 30.1336 23.143 30.245 23.4283C30.3633 23.7136 30.4224 24.0581 30.4224 24.4617C30.4224 24.9002 30.3633 25.2795 30.245 25.5996C30.1336 25.9127 29.9701 26.1702 29.7543 26.3721C29.5386 26.5739 29.2707 26.7235 28.9505 26.8209C28.6374 26.9184 28.2755 26.9671 27.8649 26.9671H25.2656ZM27.1342 25.6622H27.5309C27.9415 25.6622 28.2233 25.5578 28.3764 25.349C28.5365 25.1403 28.6165 24.8341 28.6165 24.4304C28.6165 24.1103 28.5817 23.8563 28.5121 23.6684C28.4425 23.4805 28.3277 23.3448 28.1676 23.2613C28.0076 23.1708 27.7918 23.1256 27.5204 23.1256H27.1342V25.6622ZM27.1342 21.8938H27.4995C27.7849 21.8938 28.0006 21.852 28.1467 21.7685C28.2929 21.6781 28.3903 21.5493 28.439 21.3823C28.4947 21.2153 28.5225 21.0134 28.5225 20.7768C28.5225 20.5541 28.4808 20.3697 28.3973 20.2236C28.3207 20.0705 28.2024 19.9556 28.0424 19.8791C27.8893 19.8025 27.6944 19.7643 27.4578 19.7643H27.1342V21.8938Z" fill="black"/>
<path d="M17.8848 26.9671L18.0309 18.5116H20.0352L20.9642 23.4283L21.9664 18.5116H23.8975L24.0437 26.9671H22.718L22.5614 21.3405L21.5801 26.9671H20.4005L19.3566 21.2988L19.2314 26.9671H17.8848Z" fill="black"/>
<path d="M13.2471 26.9671V18.5116H17.0468V19.7851H15.1156V21.8833H16.5875V23.1778H15.1156V25.704H17.0677V26.9671H13.2471Z" fill="black"/>
<path d="M5.86475 26.9671L6.01089 18.5116H8.01515L8.94421 23.4283L9.94634 18.5116H11.8775L12.0237 26.9671H10.6979L10.5414 21.3405L9.5601 26.9671H8.38051L7.33663 21.2988L7.21136 26.9671H5.86475Z" fill="black"/>
</svg>
