<svg width="46" height="58" viewBox="0 0 46 58" fill="none" xmlns="http://www.w3.org/2000/svg">
<path fill-rule="evenodd" clip-rule="evenodd" d="M42.6253 22.6175C42.6253 33.6675 33.6675 42.6253 22.6175 42.6253C11.5675 42.6253 2.60971 33.6675 2.60971 22.6175C2.60971 11.5675 11.5675 2.60971 22.6175 2.60971C33.6675 2.60971 42.6253 11.5675 42.6253 22.6175ZM28.3805 44.4943C38.0804 41.9459 45.235 33.1172 45.235 22.6175C45.235 10.1262 35.1088 0 22.6175 0C10.1262 0 0 10.1262 0 22.6175C0 33.4626 7.63308 42.525 17.8199 44.7252L23.0526 57.4137L28.3805 44.4943Z" fill="black"/>
<path d="M25.8857 26.9671V18.5116H28.7251C29.2331 18.5116 29.6507 18.609 29.9778 18.8039C30.3049 18.9918 30.5484 19.2702 30.7085 19.639C30.8686 20.0009 30.9486 20.4428 30.9486 20.9647C30.9486 21.6189 30.8407 22.12 30.625 22.4679C30.4092 22.8089 30.117 23.0455 29.7481 23.1778C29.3793 23.31 28.9652 23.3761 28.5059 23.3761H27.7543V26.9671H25.8857ZM27.7543 22.0712H28.3806C28.6103 22.0712 28.7843 22.0295 28.9026 21.946C29.0209 21.8625 29.0974 21.7372 29.1322 21.5702C29.174 21.4032 29.1949 21.1909 29.1949 20.9334C29.1949 20.7177 29.1775 20.5298 29.1427 20.3697C29.1148 20.2027 29.0418 20.0705 28.9234 19.973C28.8051 19.8756 28.6207 19.8269 28.3702 19.8269H27.7543V22.0712Z" fill="black"/>
<path d="M22.7554 26.9671V18.5116H24.6239V26.9671H22.7554Z" fill="black"/>
<path d="M18.3776 26.9671L16.8535 18.5116H18.4507L19.3588 24.253L20.2044 18.5116H21.8955L20.3505 26.9671H18.3776Z" fill="black"/>
</svg>
