<svg width="46" height="58" viewBox="0 0 46 58" fill="none" xmlns="http://www.w3.org/2000/svg">
<path fill-rule="evenodd" clip-rule="evenodd" d="M43.0799 22.6175C43.0799 33.6675 34.1221 42.6253 23.0721 42.6253C12.0221 42.6253 3.0643 33.6675 3.0643 22.6175C3.0643 11.5675 12.0221 2.60971 23.0721 2.60971C34.1221 2.60971 43.0799 11.5675 43.0799 22.6175ZM28.8336 44.4946C38.5343 41.9468 45.6896 33.1178 45.6896 22.6175C45.6896 10.1262 35.5634 0 23.0721 0C10.5808 0 0.45459 10.1262 0.45459 22.6175C0.45459 33.4621 8.08696 42.5241 18.2731 44.7249L23.5059 57.4137L28.8336 44.4946Z" fill="black"/>
<path d="M28.6504 26.9671V18.5116H31.4898C31.9978 18.5116 32.4153 18.609 32.7424 18.8039C33.0695 18.9918 33.3131 19.2702 33.4731 19.639C33.6332 20.0009 33.7132 20.4428 33.7132 20.9647C33.7132 21.6189 33.6054 22.12 33.3896 22.4679C33.1739 22.8089 32.8816 23.0455 32.5128 23.1778C32.1439 23.31 31.7299 23.3761 31.2705 23.3761H30.5189V26.9671H28.6504ZM30.5189 22.0712H31.1453C31.3749 22.0712 31.5489 22.0295 31.6672 21.946C31.7855 21.8625 31.8621 21.7372 31.8969 21.5702C31.9386 21.4032 31.9595 21.1909 31.9595 20.9334C31.9595 20.7177 31.9421 20.5298 31.9073 20.3697C31.8795 20.2027 31.8064 20.0705 31.6881 19.973C31.5698 19.8756 31.3854 19.8269 31.1348 19.8269H30.5189V22.0712Z" fill="black"/>
<path d="M25.522 26.9671V18.5116H27.3905V26.9671H25.522Z" fill="black"/>
<path d="M21.1442 26.9671L19.6201 18.5116H21.2173L22.1254 24.253L22.971 18.5116H24.6621L23.1171 26.9671H21.1442Z" fill="black"/>
<path d="M15.6496 26.9671L14.1255 18.5116H15.7226L16.6308 24.253L17.4764 18.5116H19.1675L17.6225 26.9671H15.6496Z" fill="black"/>
</svg>
