<svg id="Layer_1" height="512" viewBox="0 0 512 512" width="512" xmlns="http://www.w3.org/2000/svg" data-name="Layer 1"><path d="m474.426 440.17h-436.852a37.617 37.617 0 0 1 -37.574-37.57v-293.2a37.617 37.617 0 0 1 37.574-37.57h436.852a37.617 37.617 0 0 1 37.574 37.57v293.2a37.617 37.617 0 0 1 -37.574 37.57zm-436.852-343.724a12.974 12.974 0 0 0 -12.959 12.954v293.2a12.974 12.974 0 0 0 12.959 12.958h436.852a12.974 12.974 0 0 0 12.959-12.958v-293.2a12.974 12.974 0 0 0 -12.959-12.958z"/><path d="m59.079 391.674a12.307 12.307 0 0 1 -9.206-20.474l78.794-88.9a12.308 12.308 0 0 1 18.422 16.327l-78.789 88.902a12.281 12.281 0 0 1 -9.221 4.145z"/><path d="m452.921 391.674a12.277 12.277 0 0 1 -9.216-4.145l-78.794-88.906a12.308 12.308 0 0 1 18.422-16.323l78.794 88.9a12.307 12.307 0 0 1 -9.206 20.471z"/><path d="m256 287.69a57.81 57.81 0 0 1 -34.113-11.157l-170.061-123.983a12.307 12.307 0 0 1 14.5-19.89l170.062 123.983a33.194 33.194 0 0 0 39.224 0l170.061-123.983a12.307 12.307 0 0 1 14.5 19.89l-170.06 123.983a57.81 57.81 0 0 1 -34.113 11.157z"/></svg>